<svg width="31" height="35" viewBox="0 0 31 35" fill="none" xmlns="http://www.w3.org/2000/svg">
<path d="M30.1909 9.00897C30.1491 8.08819 30.1491 7.20927 30.1491 6.33034C30.1491 5.61883 29.605 5.07474 28.8935 5.07474C23.6618 5.07474 19.6857 3.56801 16.3793 0.345291C15.877 -0.115097 15.1237 -0.115097 14.6214 0.345291C11.315 3.56801 7.33893 5.07474 2.10724 5.07474C1.39573 5.07474 0.851632 5.61883 0.851632 6.33034C0.851632 7.20927 0.851632 8.08819 0.809778 9.00897C0.642364 17.7982 0.391243 29.852 15.0818 34.9163L15.5004 35L15.9189 34.9163C30.5676 29.852 30.3584 17.8401 30.1909 9.00897ZM14.4959 21.1883C14.2448 21.3976 13.9518 21.5232 13.617 21.5232H13.5751C13.2403 21.5232 12.9054 21.3558 12.6962 21.1046L8.8038 16.7937L10.6872 15.1196L13.7425 18.5097L20.5228 12.0643L22.2388 13.9058L14.4959 21.1883Z" fill="white"/>
</svg>
