<svg width="31" height="35" viewBox="0 0 31 35" fill="none" xmlns="http://www.w3.org/2000/svg">
<path d="M1.64642 13.125C4.12021 13.125 6.75061 15.1701 6.75061 18.9583C6.75061 20.8809 6.01574 22.2538 5.30508 23.5825C4.54882 24.9968 3.83392 26.3326 3.83392 28.4375C3.83392 31.8726 5.50305 33.5417 8.93811 33.5417H9.75226C8.80282 32.6142 8.20892 31.3247 8.20892 29.8959V26.9792C8.20892 23.2322 10.3751 21.3296 11.9559 19.941C12.2621 19.6718 12.5498 19.4198 12.7976 19.172C13.1608 18.8088 13.6479 18.373 14.179 17.8988C15.4921 16.7281 17.6881 14.7685 17.6881 13.8542V6.5625C17.6881 4.46045 19.2704 3.45926 20.0081 3.10748C20.3143 2.21457 21.2984 0 23.5214 0C23.9245 0 24.2506 0.326143 24.2506 0.729189C24.2506 1.85855 24.7519 2.91669 24.9798 2.91669C26.0323 2.91669 26.6617 3.86094 27.1673 4.62144C27.3538 4.90055 27.5305 5.16544 27.6829 5.31788C27.8623 5.49732 28.1258 5.6782 28.3978 5.87043C29.1882 6.43016 30.084 7.06528 30.084 8.02088C30.084 10.6769 26.9537 11.6667 24.9798 11.6667C24.5426 11.6667 24.4087 11.6994 24.3916 11.6994C24.3916 11.6994 24.3916 11.6994 24.3902 11.6994C24.2492 11.9045 24.2492 12.9726 24.2506 14.2088V14.5833C24.2506 14.9393 24.3788 15.1687 24.6465 15.6144C25.0952 16.3621 25.709 17.3846 25.709 19.6874C25.709 21.2241 24.591 23.5612 24.2507 24.2376V30.625H24.9799C26.1861 30.625 27.1674 31.6062 27.1674 32.8125V34.2708C27.1673 34.6739 26.8412 35 26.4381 35H8.93811C4.7055 35 2.37561 32.6701 2.37561 28.4375C2.37561 25.968 3.24862 24.3345 4.0191 22.8947C4.7027 21.6172 5.2923 20.5149 5.2923 18.9584C5.2923 15.7484 3.1119 14.5834 1.64648 14.5834C1.24344 14.5834 0.917295 14.2572 0.917295 13.8542C0.917295 13.4511 1.24344 13.125 1.64642 13.125Z" fill="white"/>
</svg>
