<svg width="35" height="35" viewBox="0 0 35 35" fill="none" xmlns="http://www.w3.org/2000/svg">
<path d="M17.499 6.23743C11.2888 6.23743 6.23633 11.2899 6.23633 17.5001C6.23633 23.7104 11.2888 28.7628 17.499 28.7628C23.7093 28.7628 28.7617 23.7104 28.7617 17.5001C28.7617 11.2899 23.7093 6.23743 17.499 6.23743ZM9.81084 18.5255C9.24489 18.5255 8.78545 18.0661 8.78545 17.5001C8.78545 16.9341 9.24489 16.4747 9.81084 16.4747C10.3767 16.4747 10.8362 16.9341 10.8362 17.5001C10.8362 18.0661 10.3768 18.5255 9.81084 18.5255ZM12.0627 23.9621C11.4967 23.9621 11.0373 23.5027 11.0373 22.9367C11.0373 22.3707 11.4967 21.9113 12.0627 21.9113C12.6286 21.9113 13.0881 22.3707 13.0881 22.9367C13.0881 23.5027 12.6286 23.9621 12.0627 23.9621ZM12.0627 13.0894C11.4967 13.0894 11.0373 12.6301 11.0373 12.064C11.0373 11.498 11.4967 11.0386 12.0627 11.0386C12.6286 11.0386 13.0881 11.498 13.0881 12.064C13.0881 12.6301 12.6286 13.0894 12.0627 13.0894ZM15.3024 20.7221C14.7365 20.7221 14.277 20.2627 14.277 19.6967C14.277 19.1307 14.7365 18.6713 15.3024 18.6713C15.8684 18.6713 16.3278 19.1307 16.3278 19.6967C16.3278 20.2627 15.8683 20.7221 15.3024 20.7221ZM15.3024 16.3289C14.7365 16.3289 14.277 15.8695 14.277 15.3035C14.277 14.7375 14.7365 14.2781 15.3024 14.2781C15.8684 14.2781 16.3278 14.7375 16.3278 15.3035C16.3278 15.8695 15.8683 16.3289 15.3024 16.3289ZM17.499 26.2137C16.9331 26.2137 16.4736 25.7543 16.4736 25.1883C16.4736 24.6223 16.9331 24.1629 17.499 24.1629C18.0649 24.1629 18.5244 24.6223 18.5244 25.1883C18.5244 25.7543 18.0649 26.2137 17.499 26.2137ZM17.499 10.8373C16.9331 10.8373 16.4736 10.378 16.4736 9.81194C16.4736 9.24592 16.9331 8.78655 17.499 8.78655C18.0649 8.78655 18.5244 9.24592 18.5244 9.81194C18.5244 10.378 18.0649 10.8373 17.499 10.8373ZM19.6956 20.7221C19.1297 20.7221 18.6702 20.2627 18.6702 19.6967C18.6702 19.1307 19.1297 18.6713 19.6956 18.6713C20.2616 18.6713 20.721 19.1307 20.721 19.6967C20.721 20.2627 20.2616 20.7221 19.6956 20.7221ZM19.6956 16.3289C19.1297 16.3289 18.6702 15.8695 18.6702 15.3035C18.6702 14.7375 19.1297 14.2781 19.6956 14.2781C20.2616 14.2781 20.721 14.7375 20.721 15.3035C20.721 15.8695 20.2616 16.3289 19.6956 16.3289ZM22.9354 23.9621C22.3694 23.9621 21.91 23.5027 21.91 22.9367C21.91 22.3707 22.3694 21.9113 22.9354 21.9113C23.5013 21.9113 23.9608 22.3707 23.9608 22.9367C23.9608 23.5027 23.5012 23.9621 22.9354 23.9621ZM22.9354 13.0894C22.3694 13.0894 21.91 12.6301 21.91 12.064C21.91 11.498 22.3694 11.0386 22.9354 11.0386C23.5013 11.0386 23.9608 11.498 23.9608 12.064C23.9608 12.6301 23.5012 13.0894 22.9354 13.0894ZM25.1872 18.5255C24.6212 18.5255 24.1618 18.0661 24.1618 17.5001C24.1618 16.9341 24.6212 16.4747 25.1872 16.4747C25.7531 16.4747 26.2126 16.9341 26.2126 17.5001C26.2126 18.0661 25.7531 18.5255 25.1872 18.5255Z" fill="white"/>
<path d="M12.3495 2.59438L12.4381 2.57066L13.074 4.94383C13.7135 4.71776 14.375 4.53914 15.0547 4.41247L14.419 2.03985L14.5076 2.01613C15.0546 1.86957 15.3792 1.30731 15.2326 0.7603C15.0861 0.213289 14.5239 -0.111419 13.9768 0.0352124L11.8188 0.613464C11.2718 0.760027 10.9472 1.32228 11.0938 1.86929C11.2343 2.39423 11.7812 2.74669 12.3495 2.59438V2.59438Z" fill="white"/>
<path d="M5.58631 7.16665L5.65119 7.10178L7.39305 8.84364C7.83868 8.32411 8.32356 7.83917 8.84316 7.39354L7.10129 5.65174L7.16617 5.58687C7.56661 5.18642 7.56661 4.53721 7.16617 4.13676C6.76578 3.73631 6.11651 3.73631 5.71606 4.13676L4.13627 5.71655C3.73583 6.117 3.73583 6.7662 4.13627 7.16665C4.53665 7.56724 5.186 7.56703 5.58631 7.16665V7.16665Z" fill="white"/>
<path d="M0.760213 15.2325C1.28795 15.374 1.86435 15.0735 2.01604 14.5075L2.03976 14.4189L4.41238 15.0547C4.53912 14.375 4.71774 13.7134 4.94381 13.074L2.57051 12.438L2.59423 12.3494C2.74079 11.8024 2.41622 11.2402 1.86921 11.0936C1.32192 10.9469 0.75994 11.2716 0.613377 11.8186L0.0351938 13.9767C-0.111369 14.5237 0.213202 15.086 0.760213 15.2325V15.2325Z" fill="white"/>
<path d="M2.57057 22.5617L4.94374 21.9259C4.71767 21.2864 4.53905 20.6249 4.41238 19.9452L2.03976 20.5809L2.01604 20.4923C1.86435 19.9262 1.28788 19.6258 0.760213 19.7673C0.213202 19.9138 -0.111369 20.4761 0.0351938 21.0231L0.613446 23.1811C0.760077 23.7282 1.32199 24.0529 1.86928 23.9062C2.41629 23.7596 2.74086 23.1973 2.5943 22.6503L2.57057 22.5617Z" fill="white"/>
<path d="M7.39507 26.1564L5.65321 27.8982L5.58833 27.8334C5.18802 27.433 4.53868 27.4328 4.13823 27.8334C3.73778 28.2338 3.73778 28.883 4.13823 29.2835L5.71801 30.8633C6.11839 31.2637 6.76767 31.2637 7.16812 30.8633C7.56856 30.4628 7.56856 29.8136 7.16812 29.4132L7.10324 29.3483L8.84511 27.6065C8.32557 27.1608 7.8407 26.6759 7.39507 26.1564V26.1564Z" fill="white"/>
<path d="M14.5077 32.9838L14.4191 32.9601L15.0548 30.5875C14.3751 30.4608 13.7135 30.2822 13.0741 30.0562L12.4382 32.4293L12.3496 32.4056C11.7813 32.2533 11.2344 32.6057 11.0938 33.1306C10.9472 33.6776 11.2718 34.2399 11.8188 34.3864L13.9768 34.9647C14.5239 35.1113 15.0862 34.7866 15.2327 34.2397C15.3793 33.6927 15.0547 33.1304 14.5077 32.9838V32.9838Z" fill="white"/>
<path d="M22.6507 32.4056L22.5621 32.4293L21.9262 30.0562C21.2868 30.2822 20.6252 30.4608 19.9455 30.5875L20.5812 32.9601L20.4926 32.9838C19.9456 33.1304 19.6211 33.6927 19.7676 34.2397C19.9142 34.7866 20.4764 35.1113 21.0234 34.9647L23.1815 34.3864C23.7285 34.2399 24.0531 33.6776 23.9065 33.1306C23.7659 32.6057 23.219 32.2533 22.6507 32.4056V32.4056Z" fill="white"/>
<path d="M29.4131 27.8334L29.3482 27.8982L27.6064 26.1564C27.1607 26.6759 26.6759 27.1608 26.1562 27.6065L27.8981 29.3483L27.8332 29.4132C27.4328 29.8136 27.4328 30.4628 27.8332 30.8633C28.2336 31.2637 28.8829 31.2637 29.2834 30.8633L30.8631 29.2835C31.2636 28.883 31.2636 28.2338 30.8631 27.8334C30.4628 27.4328 29.8134 27.433 29.4131 27.8334V27.8334Z" fill="white"/>
<path d="M34.2402 19.7672C33.7124 19.6257 33.136 19.9262 32.9843 20.4922L32.9606 20.5808L30.588 19.945C30.4613 20.6247 30.2827 21.2863 30.0566 21.9257L32.4298 22.5616L32.4061 22.6502C32.2595 23.1972 32.5841 23.7595 33.1311 23.906C33.6784 24.0527 34.2404 23.728 34.3869 23.181L34.9652 21.023C35.1118 20.476 34.7872 19.9137 34.2402 19.7672V19.7672Z" fill="white"/>
<path d="M32.4299 12.4379L30.0566 13.0739C30.2827 13.7133 30.4613 14.3749 30.5881 15.0546L32.9607 14.4189L32.9844 14.5075C33.1361 15.0735 33.7126 15.374 34.2402 15.2325C34.7873 15.0859 35.1119 14.5237 34.9653 13.9767L34.387 11.8186C34.2404 11.2716 33.6785 10.9469 33.1312 11.0936C32.5842 11.2402 32.2596 11.8024 32.4062 12.3494L32.4299 12.4379Z" fill="white"/>
<path d="M27.6063 8.84364L29.3482 7.10178L29.413 7.16665C29.8133 7.56703 30.4627 7.56717 30.8631 7.16665C31.2636 6.7662 31.2636 6.117 30.8631 5.71655L29.2834 4.13676C28.883 3.73631 28.2337 3.73631 27.8332 4.13676C27.4328 4.53721 27.4328 5.18642 27.8332 5.58687L27.8981 5.65174L26.1562 7.39354C26.6758 7.83924 27.1607 8.32411 27.6063 8.84364Z" fill="white"/>
<path d="M20.4927 2.01618L20.5813 2.03991L19.9455 4.41252C20.6252 4.53919 21.2868 4.71782 21.9262 4.94388L22.5621 2.57072L22.6507 2.59444C23.219 2.74674 23.7659 2.39428 23.9065 1.86942C24.0531 1.32241 23.7285 0.760149 23.1815 0.613587L21.0235 0.0353347C20.4764 -0.111296 19.9141 0.213411 19.7676 0.760354C19.621 1.30737 19.9456 1.86962 20.4927 2.01618V2.01618Z" fill="white"/>
</svg>
