<svg width="30" height="30" viewBox="0 0 28 28" fill="none" xmlns="http://www.w3.org/2000/svg">
<path fill-rule="evenodd" clip-rule="evenodd" d="M10 2H2L2 10H10V2ZM2 0C0.895431 0 0 0.895431 0 2V10C0 11.1046 0.895431 12 2 12H10C11.1046 12 12 11.1046 12 10V2C12 0.895431 11.1046 0 10 0H2Z" fill="#757575"/>
<path fill-rule="evenodd" clip-rule="evenodd" d="M26 2H18L18 10H26V2ZM18 0C16.8954 0 16 0.895431 16 2V10C16 11.1046 16.8954 12 18 12H26C27.1046 12 28 11.1046 28 10V2C28 0.895431 27.1046 0 26 0H18Z" fill="#757575"/>
<path fill-rule="evenodd" clip-rule="evenodd" d="M10 18H2L2 26H10V18ZM2 16C0.895431 16 0 16.8954 0 18V26C0 27.1046 0.895431 28 2 28H10C11.1046 28 12 27.1046 12 26V18C12 16.8954 11.1046 16 10 16H2Z" fill="#757575"/>
<path fill-rule="evenodd" clip-rule="evenodd" d="M26 18H18L18 26H26V18ZM18 16C16.8954 16 16 16.8954 16 18V26C16 27.1046 16.8954 28 18 28H26C27.1046 28 28 27.1046 28 26V18C28 16.8954 27.1046 16 26 16H18Z" fill="#757575"/>
</svg>
