<svg width="30" height="30" viewBox="0 0 24 28" fill="none" xmlns="http://www.w3.org/2000/svg">
<path d="M11.8182 13.4877C13.7219 13.4877 15.3701 12.8232 16.7172 11.5119C18.0639 10.2009 18.7469 8.59684 18.7469 6.74366C18.7469 4.89112 18.0641 3.28681 16.717 1.97537C15.3699 0.664582 13.7217 0 11.8182 0C9.91431 0 8.26631 0.664582 6.91941 1.97559C5.57252 3.28659 4.88953 4.8909 4.88953 6.74366C4.88953 8.59684 5.57252 10.2011 6.91941 11.5122C8.26674 12.8229 9.91497 13.4877 11.8182 13.4877ZM8.11158 3.13578C9.14507 2.12982 10.3574 1.64084 11.8182 1.64084C13.2788 1.64084 14.4914 2.12982 15.5251 3.13578C16.5586 4.14194 17.0612 5.32221 17.0612 6.74366C17.0612 8.16553 16.5586 9.34559 15.5251 10.3518C14.4914 11.3579 13.2788 11.8469 11.8182 11.8469C10.3579 11.8469 9.14551 11.3577 8.11158 10.3518C7.07787 9.3458 6.57528 8.16553 6.57528 6.74366C6.57528 5.32221 7.07787 4.14194 8.11158 3.13578Z" fill="#757575"/>
<path d="M23.9418 21.5306C23.903 20.985 23.8244 20.3899 23.7088 19.7614C23.592 19.1282 23.4417 18.5297 23.2617 17.9826C23.0756 17.4171 22.823 16.8587 22.5102 16.3236C22.1861 15.7682 21.8051 15.2845 21.3775 14.8865C20.9305 14.4702 20.3831 14.1354 19.7502 13.8913C19.1194 13.6484 18.4204 13.5253 17.6727 13.5253C17.379 13.5253 17.095 13.6426 16.5466 13.9902C16.209 14.2044 15.8142 14.4522 15.3735 14.7263C14.9967 14.96 14.4862 15.179 13.8556 15.3772C13.2404 15.571 12.6158 15.6692 11.9991 15.6692C11.3828 15.6692 10.7582 15.571 10.1426 15.3772C9.51274 15.1792 9.00203 14.9602 8.62586 14.7265C8.18933 14.455 7.79428 14.2072 7.45169 13.99C6.90367 13.6424 6.61968 13.5251 6.32602 13.5251C5.57807 13.5251 4.87927 13.6484 4.24873 13.8915C3.61622 14.1352 3.06864 14.47 2.62114 14.8867C2.19361 15.2849 1.81261 15.7684 1.48867 16.3236C1.17636 16.8587 0.923533 17.4169 0.737422 17.9828C0.557675 18.5299 0.407338 19.1282 0.290579 19.7614C0.174699 20.389 0.0963477 20.9844 0.0575014 21.5313C0.0193134 22.066 0 22.6225 0 23.1847C0 24.6463 0.477349 25.8296 1.41866 26.7022C2.34834 27.5634 3.57825 28 5.07438 28H18.9256C20.4213 28 21.6512 27.5634 22.5811 26.7022C23.5227 25.8302 24 24.6465 24 23.1845C23.9998 22.6203 23.9802 22.0638 23.9418 21.5306ZM21.4188 25.5134C20.8045 26.0825 19.989 26.3592 18.9254 26.3592H5.07438C4.01061 26.3592 3.19505 26.0825 2.58098 25.5136C1.97853 24.9554 1.68575 24.1934 1.68575 23.1847C1.68575 22.6601 1.70353 22.142 1.73909 21.6447C1.77376 21.1568 1.84465 20.6208 1.94978 20.0513C2.05359 19.4888 2.18571 18.961 2.34285 18.4831C2.49363 18.0249 2.69927 17.5711 2.9543 17.1341C3.19769 16.7175 3.47773 16.3601 3.78675 16.0721C4.07579 15.8028 4.44011 15.5823 4.8694 15.417C5.26642 15.264 5.7126 15.1803 6.19698 15.1677C6.25601 15.1982 6.36114 15.2565 6.53145 15.3646C6.87799 15.5844 7.27743 15.8352 7.719 16.1097C8.21676 16.4186 8.85806 16.6976 9.62423 16.9384C10.4075 17.1849 11.2064 17.3101 11.9993 17.3101C12.7923 17.3101 13.5914 17.1849 14.3742 16.9386C15.1411 16.6974 15.7821 16.4186 16.2806 16.1093C16.7324 15.8282 17.1207 15.5847 17.4672 15.3646C17.6375 15.2567 17.7427 15.1982 17.8017 15.1677C18.2863 15.1803 18.7325 15.264 19.1297 15.417C19.5588 15.5823 19.9231 15.803 20.2122 16.0721C20.5212 16.3599 20.8012 16.7173 21.0446 17.1343C21.2999 17.5711 21.5057 18.0251 21.6563 18.4829C21.8136 18.9614 21.946 19.489 22.0496 20.0511C22.1545 20.6217 22.2256 21.1579 22.2603 21.6449C22.296 22.1403 22.314 22.6586 22.3142 23.1847C22.314 24.1937 22.0213 24.9554 21.4188 25.5134Z" fill="#757575"/>
</svg>
