<svg width="30" height="30" viewBox="0 0 28 27" fill="none" xmlns="http://www.w3.org/2000/svg">
<path fill-rule="evenodd" clip-rule="evenodd" d="M4.5 11H0V9H4.5V11ZM7.5 18.5H0V16.5H7.5V18.5ZM21 26H0V24H21V26Z" fill="#757575"/>
<path fill-rule="evenodd" clip-rule="evenodd" d="M13.6984 0.793805C15.6338 -0.0513014 17.7957 -0.227411 19.8424 0.293302C21.889 0.814015 23.7039 2.00186 25.0001 3.66915C26.3267 5.37558 28.1396 10.0635 25.348 14.53L23.652 13.47C25.8604 9.93654 24.414 6.17386 23.4211 4.8967C22.3978 3.58042 20.965 2.64264 19.3492 2.23156C17.7334 1.82047 16.0267 1.9595 14.4988 2.62669C12.9708 3.29388 11.7087 4.45118 10.9119 5.91574C10.1151 7.38029 9.82905 9.0686 10.0989 10.7139C10.3688 12.3592 11.1791 13.8677 12.402 15.001C13.6249 16.1343 15.1905 16.8278 16.8516 16.9719C18.4877 17.1139 20.1509 16.5565 21.0528 16.1056L21.8743 15.6948L27.8533 25.4785L26.1467 26.5215L21.1015 18.2657C19.9531 18.7093 18.3426 19.1088 16.6787 18.9644C14.5747 18.7818 12.5915 17.9034 11.0426 16.4679C9.49357 15.0324 8.46708 13.1216 8.12527 11.0376C7.78346 8.95356 8.14582 6.81504 9.15509 4.95993C10.1644 3.10483 11.763 1.63891 13.6984 0.793805Z" fill="#757575"/>
</svg>
