<svg width="170" height="30" viewBox="0 0 170 30" fill="none" xmlns="http://www.w3.org/2000/svg">
<path d="M15 30L13.5943 18.8621L5.35818 26.4907L11.4406 17.055L0.227882 17.6047L10.9524 14.2863L2.00962 7.5L12.3581 11.8516L9.8697 0.90461L15 10.89L20.1303 0.90461L17.6419 11.8516L27.9904 7.5L19.0476 14.2863L29.7721 17.6047L18.5594 17.055L24.6418 26.4907L16.4057 18.8621L15 30Z" fill="black"/>
<path d="M50 30L48.5943 18.8621L40.3582 26.4907L46.4406 17.055L35.2279 17.6047L45.9524 14.2863L37.0096 7.5L47.3581 11.8516L44.8697 0.90461L50 10.89L55.1303 0.90461L52.6419 11.8516L62.9904 7.5L54.0476 14.2863L64.7721 17.6047L53.5594 17.055L59.6418 26.4907L51.4057 18.8621L50 30Z" fill="black"/>
<path d="M85 30L83.5943 18.8621L75.3582 26.4907L81.4406 17.055L70.2279 17.6047L80.9524 14.2863L72.0096 7.5L82.3581 11.8516L79.8697 0.90461L85 10.89L90.1303 0.90461L87.6419 11.8516L97.9904 7.5L89.0476 14.2863L99.7721 17.6047L88.5594 17.055L94.6418 26.4907L86.4057 18.8621L85 30Z" fill="black"/>
<path d="M120 30L118.594 18.8621L110.358 26.4907L116.441 17.055L105.228 17.6047L115.952 14.2863L107.01 7.5L117.358 11.8516L114.87 0.90461L120 10.89L125.13 0.90461L122.642 11.8516L132.99 7.5L124.048 14.2863L134.772 17.6047L123.559 17.055L129.642 26.4907L121.406 18.8621L120 30Z" fill="black"/>
<path d="M155 30L153.594 18.8621L145.358 26.4907L151.441 17.055L140.228 17.6047L150.952 14.2863L142.01 7.5L152.358 11.8516L149.87 0.90461L155 10.89L160.13 0.90461L157.642 11.8516L167.99 7.5L159.048 14.2863L169.772 17.6047L158.559 17.055L164.642 26.4907L156.406 18.8621L155 30Z" fill="black"/>
</svg>
