<svg width="20" height="20" viewBox="0 0 20 20" fill="none" xmlns="http://www.w3.org/2000/svg">
<g clip-path="url(#clip0_720_10923)">
<path d="M9.99936 18.3337C11.0939 18.3351 12.178 18.1202 13.1892 17.7013C14.2004 17.2824 15.1189 16.6678 15.8919 15.8928C16.6668 15.1199 17.2814 14.2014 17.7003 13.1902C18.1192 12.1789 18.3341 11.0949 18.3327 10.0003C18.3341 8.90578 18.1192 7.82174 17.7003 6.81051C17.2814 5.79928 16.6668 4.88079 15.8919 4.10783C15.1189 3.33284 14.2004 2.71825 13.1892 2.29937C12.178 1.88049 11.0939 1.66558 9.99936 1.667C8.9048 1.6656 7.82077 1.88052 6.80953 2.2994C5.7983 2.71828 4.87982 3.33286 4.10686 4.10783C3.33189 4.88079 2.7173 5.79928 2.29842 6.81051C1.87954 7.82174 1.66463 8.90578 1.66602 10.0003C1.6646 11.0949 1.87951 12.1789 2.29839 13.1902C2.71727 14.2014 3.33187 15.1199 4.10686 15.8928C4.87982 16.6678 5.7983 17.2824 6.80953 17.7013C7.82077 18.1201 8.9048 18.3351 9.99936 18.3337V18.3337Z" stroke="#00AB3A" stroke-width="1.66667" stroke-linejoin="round"/>
<path fill-rule="evenodd" clip-rule="evenodd" d="M9.9987 15.4173C10.275 15.4173 10.5399 15.3076 10.7353 15.1122C10.9306 14.9169 11.0404 14.6519 11.0404 14.3757C11.0404 14.0994 10.9306 13.8344 10.7353 13.6391C10.5399 13.4437 10.275 13.334 9.9987 13.334C9.72243 13.334 9.45748 13.4437 9.26213 13.6391C9.06678 13.8344 8.95703 14.0994 8.95703 14.3757C8.95703 14.6519 9.06678 14.9169 9.26213 15.1122C9.45748 15.3076 9.72243 15.4173 9.9987 15.4173Z" fill="#00AB3A"/>
<path d="M10 6V12.6667" stroke="#00AB3A" stroke-width="1.66667" stroke-linecap="round" stroke-linejoin="round"/>
</g>
<defs>
<clipPath id="clip0_720_10923">
<rect width="20" height="20" fill="white"/>
</clipPath>
</defs>
</svg>
