<svg width="30" height="30" viewBox="0 0 30 30" fill="none" xmlns="http://www.w3.org/2000/svg">
<path d="M27.5781 13.4375H2.42188C1.60208 13.4375 0.9375 14.1021 0.9375 14.9219V15.0781C0.9375 15.8979 1.60208 16.5625 2.42188 16.5625H27.5781C28.3979 16.5625 29.0625 15.8979 29.0625 15.0781V14.9219C29.0625 14.1021 28.3979 13.4375 27.5781 13.4375Z" fill="black"/>
<path d="M27.5781 21.25H2.42188C1.60208 21.25 0.9375 21.9146 0.9375 22.7344V22.8906C0.9375 23.7104 1.60208 24.375 2.42188 24.375H27.5781C28.3979 24.375 29.0625 23.7104 29.0625 22.8906V22.7344C29.0625 21.9146 28.3979 21.25 27.5781 21.25Z" fill="black"/>
<path d="M27.5781 5.625H2.42188C1.60208 5.625 0.9375 6.28958 0.9375 7.10937V7.26563C0.9375 8.08542 1.60208 8.75 2.42188 8.75H27.5781C28.3979 8.75 29.0625 8.08542 29.0625 7.26563V7.10937C29.0625 6.28958 28.3979 5.625 27.5781 5.625Z" fill="black"/>
</svg>
