<svg width="32" height="32" viewBox="0 0 32 32" fill="none" xmlns="http://www.w3.org/2000/svg">
<g clip-path="url(#clip0_339_11260)">
<path d="M17.2534 16L24.6223 8.63112C24.7679 8.46107 24.844 8.24234 24.8353 8.01863C24.8267 7.79492 24.734 7.5827 24.5757 7.4244C24.4174 7.26609 24.2051 7.17335 23.9814 7.16471C23.7577 7.15607 23.539 7.23216 23.3689 7.37779L16 14.7467L8.63116 7.3689C8.46377 7.20152 8.23676 7.10748 8.00004 7.10748C7.76333 7.10748 7.53631 7.20152 7.36893 7.3689C7.20155 7.53628 7.10752 7.7633 7.10752 8.00001C7.10752 8.23672 7.20155 8.46374 7.36893 8.63112L14.7467 16L7.36893 23.3689C7.27588 23.4486 7.20031 23.5466 7.14695 23.6569C7.0936 23.7672 7.06362 23.8873 7.05889 24.0097C7.05416 24.1322 7.07479 24.2542 7.11948 24.3683C7.16417 24.4824 7.23195 24.586 7.31858 24.6726C7.4052 24.7592 7.5088 24.827 7.62287 24.8717C7.73693 24.9164 7.85901 24.937 7.98142 24.9323C8.10384 24.9275 8.22396 24.8976 8.33424 24.8442C8.44452 24.7909 8.54258 24.7153 8.62227 24.6222L16 17.2533L23.3689 24.6222C23.539 24.7679 23.7577 24.8439 23.9814 24.8353C24.2051 24.8267 24.4174 24.7339 24.5757 24.5756C24.734 24.4173 24.8267 24.2051 24.8353 23.9814C24.844 23.7577 24.7679 23.5389 24.6223 23.3689L17.2534 16Z" fill="black"/>
</g>
<defs>
<clipPath id="clip0_339_11260">
<rect width="32" height="32" fill="white"/>
</clipPath>
</defs>
</svg>
