<svg width="32" height="32" viewBox="0 0 32 32" fill="none" xmlns="http://www.w3.org/2000/svg">
<path d="M28.8001 7.13347C28.7998 6.59554 28.5909 6.07868 28.2175 5.69151C27.8441 5.30434 27.3351 5.07702 26.7975 5.05731V5.05347H5.39142V5.05923C5.3543 5.05731 5.3175 5.05347 5.28006 5.05347C4.84989 5.05375 4.43039 5.18739 4.07934 5.43599C3.72828 5.6846 3.46294 6.03593 3.31986 6.4416C3.17677 6.84727 3.16298 7.28733 3.28039 7.70116C3.39779 8.115 3.64062 8.48225 3.97542 8.75235L13.6202 18.3968L13.6199 24.3485V24.3978H13.6247C13.6328 24.5813 13.6873 24.7598 13.7832 24.9165C13.8791 25.0732 14.0131 25.203 14.1729 25.2938L14.17 25.2989L16.689 26.7533C16.7101 26.768 16.7335 26.7786 16.7556 26.7917L16.7645 26.7968V26.7965C16.9252 26.8893 17.1095 26.9466 17.3085 26.9466C17.4521 26.9466 17.5943 26.9184 17.7269 26.8635C17.8596 26.8085 17.9801 26.728 18.0816 26.6265C18.1831 26.525 18.2636 26.4045 18.3185 26.2718C18.3735 26.1392 18.4017 25.997 18.4017 25.8535C18.4017 25.8247 18.3953 25.7975 18.3933 25.7693H18.4017V18.4058L28.1351 8.67267L28.1255 8.66307C28.3381 8.46898 28.5078 8.23272 28.624 7.96935C28.7401 7.70599 28.8001 7.4213 28.8001 7.13347V7.13347ZM10.3197 9.21347H10.3242L10.3245 9.21827L10.3197 9.21347Z" fill="black"/>
</svg>
