<svg width="15" height="15" viewBox="0 0 15 15" fill="none" xmlns="http://www.w3.org/2000/svg">
<path fill-rule="evenodd" clip-rule="evenodd" d="M13.75 7.5C13.75 10.9518 10.9518 13.75 7.5 13.75C4.04822 13.75 1.25 10.9518 1.25 7.5C1.25 4.04822 4.04822 1.25 7.5 1.25C10.9518 1.25 13.75 4.04822 13.75 7.5ZM5.06931 9.93069C4.94728 9.80866 4.94728 9.61081 5.06931 9.48875L7.05806 7.50003L5.06931 5.51128C4.94728 5.38922 4.94728 5.19137 5.06931 5.06931C5.19134 4.94728 5.38922 4.94728 5.51125 5.06931L7.5 7.05806L9.48875 5.06934C9.61078 4.94731 9.80866 4.94731 9.93069 5.06934C10.0527 5.19138 10.0527 5.38925 9.93069 5.51128L7.94194 7.50003L9.93069 9.48875C10.0527 9.61078 10.0527 9.80866 9.93069 9.93069C9.80863 10.0527 9.61078 10.0527 9.48875 9.93069L7.5 7.94197L5.51128 9.93069C5.38922 10.0528 5.19137 10.0528 5.06931 9.93069Z" fill="#D20000"/>
</svg>
