<svg width="28" height="28" viewBox="0 0 28 28" fill="none" xmlns="http://www.w3.org/2000/svg">
<path d="M23.3334 12.8328H25.6667C25.6667 6.84782 21.1482 2.33398 15.155 2.33398V4.66732C19.894 4.66732 23.3334 8.10082 23.3334 12.8328Z" fill="black"/>
<path d="M15.1666 9.33394C17.6201 9.33394 18.6666 10.3804 18.6666 12.8339H21C21 9.07144 18.9291 7.0006 15.1666 7.0006V9.33394ZM19.159 15.6841C18.9348 15.4803 18.6402 15.3717 18.3374 15.381C18.0346 15.3904 17.7473 15.5171 17.5361 15.7343L14.7443 18.6054C14.0723 18.4771 12.7213 18.0559 11.3306 16.6688C9.93996 15.2769 9.5188 13.9224 9.39396 13.2551L12.2628 10.4621C12.4803 10.2511 12.6071 9.96373 12.6165 9.66085C12.6258 9.35796 12.517 9.06332 12.313 8.83927L8.00213 4.0991C7.79801 3.87435 7.51432 3.73803 7.21131 3.71907C6.90829 3.70012 6.60983 3.80004 6.3793 3.9976L3.84763 6.16877C3.64593 6.37121 3.52554 6.64063 3.5093 6.92594C3.4918 7.2176 3.15813 14.1266 8.51546 19.4863C13.1891 24.1588 19.0435 24.5006 20.6558 24.5006C20.8915 24.5006 21.0361 24.4936 21.0746 24.4913C21.3599 24.4753 21.6292 24.3544 21.8306 24.1518L24.0006 21.6189C24.1983 21.3886 24.2985 21.0902 24.2797 20.7872C24.261 20.4842 24.1249 20.2004 23.9003 19.9961L19.159 15.6841Z" fill="black"/>
</svg>
