<svg width="24" height="24" viewBox="0 0 24 24" fill="none" xmlns="http://www.w3.org/2000/svg">
<path d="M23.6975 22.2894L16.8116 15.3929C18.1691 13.7635 18.9856 11.6813 18.9856 9.40703C18.9856 4.21864 14.731 0 9.49769 0C4.26437 0 0 4.22357 0 9.41196C0 14.6003 4.25453 18.819 9.48786 18.819C11.711 18.819 13.7571 18.056 15.3803 16.781L22.2908 23.6973C22.6941 24.1009 23.2942 24.1009 23.6975 23.6973C24.1008 23.2936 24.1008 22.6931 23.6975 22.2894ZM2.0166 9.41196C2.0166 5.33607 5.37104 2.02318 9.48786 2.02318C13.6047 2.02318 16.9591 5.33607 16.9591 9.41196C16.9591 13.4878 13.6047 16.8007 9.48786 16.8007C5.37104 16.8007 2.0166 13.4829 2.0166 9.41196Z" fill="white"/>
</svg>
