<svg width="34" height="34" viewBox="0 0 34 34" fill="none" xmlns="http://www.w3.org/2000/svg">
<circle cx="17" cy="17" r="16.5" stroke="white"/>
<path d="M20.5866 24.0536C20.7102 23.9303 20.8083 23.7838 20.8752 23.6225C20.9421 23.4612 20.9766 23.2883 20.9766 23.1136C20.9766 22.939 20.9421 22.7661 20.8752 22.6048C20.8083 22.4435 20.7102 22.297 20.5866 22.1736L15.4133 17.0003L20.5866 11.827C20.8359 11.5777 20.976 11.2395 20.976 10.887C20.976 10.5344 20.8359 10.1963 20.5866 9.94696C20.3373 9.69766 19.9992 9.5576 19.6466 9.5576C19.2941 9.5576 18.9559 9.69766 18.7066 9.94696L12.5866 16.067C12.463 16.1903 12.365 16.3368 12.2981 16.4981C12.2312 16.6594 12.1967 16.8323 12.1967 17.007C12.1967 17.1816 12.2312 17.3545 12.2981 17.5158C12.365 17.6771 12.463 17.8236 12.5866 17.947L18.7066 24.067C19.2133 24.5736 20.0666 24.5736 20.5866 24.0536Z" fill="white"/>
</svg>
