<svg width="34" height="34" viewBox="0 0 34 34" fill="none" xmlns="http://www.w3.org/2000/svg">
<circle cx="17" cy="17" r="16.5" stroke="white"/>
<path d="M13.4134 9.94637C13.2898 10.0697 13.1917 10.2162 13.1248 10.3775C13.0579 10.5388 13.0234 10.7117 13.0234 10.8864C13.0234 11.061 13.0579 11.2339 13.1248 11.3952C13.1917 11.5565 13.2898 11.703 13.4134 11.8264L18.5867 16.9997L13.4134 22.173C13.1641 22.4223 13.024 22.7605 13.024 23.113C13.024 23.4656 13.1641 23.8037 13.4134 24.053C13.6627 24.3023 14.0008 24.4424 14.3534 24.4424C14.7059 24.4424 15.0441 24.3023 15.2934 24.053L21.4134 17.933C21.537 17.8097 21.635 17.6632 21.7019 17.5019C21.7688 17.3406 21.8033 17.1677 21.8033 16.993C21.8033 16.8184 21.7688 16.6455 21.7019 16.4842C21.635 16.3229 21.537 16.1764 21.4134 16.053L15.2934 9.93304C14.7867 9.42637 13.9334 9.42637 13.4134 9.94637Z" fill="white"/>
</svg>
