<svg width="15" height="15" viewBox="0 0 15 15" fill="none" xmlns="http://www.w3.org/2000/svg">
<path fill-rule="evenodd" clip-rule="evenodd" d="M7.5 13.75C10.9518 13.75 13.75 10.9518 13.75 7.5C13.75 4.04822 10.9518 1.25 7.5 1.25C4.04822 1.25 1.25 4.04822 1.25 7.5C1.25 10.9518 4.04822 13.75 7.5 13.75ZM10.8567 5.52216C10.9725 5.39419 10.9627 5.19656 10.8347 5.08078C10.7067 4.96497 10.5091 4.97484 10.3933 5.10284L6.65028 9.23984L4.59078 7.27394C4.46594 7.15478 4.26812 7.15937 4.14894 7.28422C4.02978 7.40906 4.03437 7.60688 4.15922 7.72606L6.45091 9.91356L6.68306 10.1352L6.89841 9.89716L10.8567 5.52216Z" fill="#00AB3A"/>
</svg>
