<svg width="125" height="29" viewBox="0 0 125 29" fill="none" xmlns="http://www.w3.org/2000/svg">
<path d="M37.1445 23H35.0352V7.98828H29.5859V6.08984H42.5938V7.98828H37.1445V23ZM47.1406 12.043C46.1484 12.043 45.3242 12.3711 44.668 13.0273C44.0195 13.6836 43.6602 14.5469 43.5898 15.6172H50.5391C50.5156 14.5469 50.1914 13.6836 49.5664 13.0273C48.9492 12.3711 48.1406 12.043 47.1406 12.043ZM50.4922 19.3906H52.5078C52.3359 20.4766 51.7578 21.3711 50.7734 22.0742C49.7891 22.7695 48.6211 23.1172 47.2695 23.1172C45.4961 23.1172 44.0859 22.543 43.0391 21.3945C42 20.2461 41.4805 18.6914 41.4805 16.7305C41.4805 14.7695 42 13.1992 43.0391 12.0195C44.0781 10.8398 45.457 10.25 47.1758 10.25C48.8633 10.25 50.1992 10.8086 51.1836 11.9258C52.168 13.0352 52.6602 14.543 52.6602 16.4492V17.2461H43.5898V17.3633C43.5898 18.5664 43.9297 19.5273 44.6094 20.2461C45.2891 20.9648 46.1914 21.3242 47.3164 21.3242C48.1055 21.3242 48.7852 21.1523 49.3555 20.8086C49.9336 20.457 50.3125 19.9844 50.4922 19.3906ZM54.9219 23V5.35156H56.9609V23H54.9219ZM64.8828 12.043C63.8906 12.043 63.0664 12.3711 62.4102 13.0273C61.7617 13.6836 61.4023 14.5469 61.332 15.6172H68.2812C68.2578 14.5469 67.9336 13.6836 67.3086 13.0273C66.6914 12.3711 65.8828 12.043 64.8828 12.043ZM68.2344 19.3906H70.25C70.0781 20.4766 69.5 21.3711 68.5156 22.0742C67.5312 22.7695 66.3633 23.1172 65.0117 23.1172C63.2383 23.1172 61.8281 22.543 60.7812 21.3945C59.7422 20.2461 59.2227 18.6914 59.2227 16.7305C59.2227 14.7695 59.7422 13.1992 60.7812 12.0195C61.8203 10.8398 63.1992 10.25 64.918 10.25C66.6055 10.25 67.9414 10.8086 68.9258 11.9258C69.9102 13.0352 70.4023 14.543 70.4023 16.4492V17.2461H61.332V17.3633C61.332 18.5664 61.6719 19.5273 62.3516 20.2461C63.0312 20.9648 63.9336 21.3242 65.0586 21.3242C65.8477 21.3242 66.5273 21.1523 67.0977 20.8086C67.6758 20.457 68.0547 19.9844 68.2344 19.3906ZM77.6562 21.1836C78.7656 21.1836 79.6602 20.7656 80.3398 19.9297C81.0273 19.0859 81.3711 17.9883 81.3711 16.6367C81.3711 15.2773 81.0273 14.1758 80.3398 13.332C79.6602 12.4883 78.7656 12.0664 77.6562 12.0664C76.5547 12.0664 75.6719 12.4844 75.0078 13.3203C74.3438 14.1484 74.0117 15.2539 74.0117 16.6367C74.0117 18.0117 74.3438 19.1133 75.0078 19.9414C75.6719 20.7695 76.5547 21.1836 77.6562 21.1836ZM77.6914 27.5117C76.2617 27.5117 75.0703 27.1914 74.1172 26.5508C73.1641 25.918 72.6133 25.0781 72.4648 24.0312H74.5859C74.7344 24.5547 75.0977 24.9688 75.6758 25.2734C76.2617 25.5859 76.9727 25.7422 77.8086 25.7422C78.9023 25.7422 79.7695 25.4766 80.4102 24.9453C81.0508 24.4219 81.3711 23.7109 81.3711 22.8125V20.832H81.3242C80.9258 21.5195 80.3711 22.0547 79.6602 22.4375C78.9492 22.8125 78.1523 23 77.2695 23C75.668 23 74.375 22.418 73.3906 21.2539C72.4141 20.082 71.9258 18.543 71.9258 16.6367C71.9258 14.707 72.418 13.1602 73.4023 11.9961C74.3867 10.832 75.6914 10.25 77.3164 10.25C78.207 10.25 79.0078 10.4375 79.7188 10.8125C80.4375 11.1875 81.0078 11.7227 81.4297 12.418H81.4648V10.3672H83.4102V22.6484C83.4102 24.1562 82.8984 25.3438 81.875 26.2109C80.8594 27.0781 79.4648 27.5117 77.6914 27.5117ZM86.1875 23V10.3672H88.1094V12.418H88.1562C88.3438 11.7539 88.7148 11.2266 89.2695 10.8359C89.8242 10.4453 90.4727 10.25 91.2148 10.25C91.5352 10.25 91.7969 10.2773 92 10.332V12.3477C91.7812 12.2539 91.4297 12.207 90.9453 12.207C90.125 12.207 89.4648 12.4805 88.9648 13.0273C88.4727 13.5742 88.2266 14.293 88.2266 15.1836V23H86.1875ZM97.9297 21.3477C98.9609 21.3477 99.8125 21.0508 100.484 20.457C101.164 19.8555 101.504 19.1016 101.504 18.1953V17.1758L98.1992 17.3867C96.2773 17.5039 95.3164 18.1797 95.3164 19.4141C95.3164 20 95.5508 20.4688 96.0195 20.8203C96.4961 21.1719 97.1328 21.3477 97.9297 21.3477ZM97.4961 23.1172C96.2148 23.1172 95.1836 22.7773 94.4023 22.0977C93.6211 21.418 93.2305 20.5195 93.2305 19.4023C93.2305 18.3164 93.6367 17.4648 94.4492 16.8477C95.2617 16.2227 96.4336 15.8633 97.9648 15.7695L101.504 15.5586V14.5039C101.504 13.7227 101.254 13.1211 100.754 12.6992C100.254 12.2773 99.5391 12.0664 98.6094 12.0664C97.875 12.0664 97.2539 12.2422 96.7461 12.5938C96.2461 12.9453 95.9336 13.418 95.8086 14.0117H93.8516C93.8828 12.9492 94.3555 12.0586 95.2695 11.3398C96.1836 10.6133 97.3047 10.25 98.6328 10.25C100.125 10.25 101.316 10.6211 102.207 11.3633C103.098 12.0977 103.543 13.0859 103.543 14.3281V23H101.609V20.8086H101.562C101.203 21.5117 100.656 22.0742 99.9219 22.4961C99.1875 22.9102 98.3789 23.1172 97.4961 23.1172ZM106.25 23V10.3672H108.172V12.418H108.219C108.516 11.7461 108.98 11.2188 109.613 10.8359C110.254 10.4453 110.984 10.25 111.805 10.25C112.656 10.25 113.391 10.457 114.008 10.8711C114.625 11.2852 115.07 11.875 115.344 12.6406H115.391C115.75 11.8906 116.281 11.3047 116.984 10.8828C117.688 10.4609 118.48 10.25 119.363 10.25C120.613 10.25 121.609 10.625 122.352 11.375C123.102 12.125 123.477 13.125 123.477 14.375V23H121.438V14.8438C121.438 13.9688 121.203 13.2891 120.734 12.8047C120.273 12.3125 119.621 12.0664 118.777 12.0664C117.934 12.0664 117.238 12.3477 116.691 12.9102C116.152 13.4727 115.883 14.1875 115.883 15.0547V23H113.844V14.5977C113.844 13.832 113.602 13.2188 113.117 12.7578C112.641 12.2969 112.008 12.0664 111.219 12.0664C110.375 12.0664 109.676 12.3633 109.121 12.957C108.566 13.543 108.289 14.2773 108.289 15.1602V23H106.25Z" fill="#61A8DE"/>
<path d="M20 3H5C2.23858 3 0 5.23858 0 8V23C0 25.7614 2.23858 28 5 28H20C22.7614 28 25 25.7614 25 23V8C25 5.23858 22.7614 3 20 3Z" fill="#61A8DE"/>
<path d="M19.6862 8.51873L2.96837 15.0335C2.42688 15.2445 2.45969 16.0216 3.01709 16.1861L4.71254 16.6868C6.30834 17.158 7.56517 18.3922 8.0653 19.9792L8.85068 22.4713C9.01629 22.9968 9.6822 23.1561 10.0677 22.7625V22.7625C11.3279 21.4757 13.3427 21.3115 14.7946 22.3773L16.5737 23.6832C17.1011 24.0703 17.8522 23.7827 17.9861 23.1423L20.8403 9.49612C20.9801 8.82769 20.3225 8.27078 19.6862 8.51873ZM17.5902 11.5472L9.82489 18.414C9.74748 18.4825 9.69822 18.5772 9.6867 18.6799L9.38773 21.3376C9.37797 21.4243 9.25668 21.4358 9.23079 21.3525L8.00073 17.3889C7.94439 17.2075 8.01784 17.0109 8.17929 16.9107L17.3493 11.2234C17.5602 11.0925 17.7761 11.3828 17.5902 11.5472Z" fill="white"/>
</svg>
