<svg width="30" height="30" viewBox="0 0 25 25" fill="none" xmlns="http://www.w3.org/2000/svg">
<path d="M20 0H5C2.23858 0 0 2.23858 0 5V20C0 22.7614 2.23858 25 5 25H20C22.7614 25 25 22.7614 25 20V5C25 2.23858 22.7614 0 20 0Z" fill="#61A8DE"/>
<path d="M19.6862 5.51873L2.96837 12.0335C2.42688 12.2445 2.45969 13.0216 3.01709 13.1861L4.71254 13.6868C6.30834 14.158 7.56517 15.3922 8.0653 16.9792L8.85068 19.4713C9.01629 19.9968 9.6822 20.1561 10.0677 19.7625C11.3279 18.4757 13.3427 18.3115 14.7946 19.3773L16.5737 20.6832C17.1011 21.0703 17.8522 20.7827 17.9861 20.1423L20.8403 6.49612C20.9801 5.82769 20.3225 5.27078 19.6862 5.51873ZM17.5902 8.5472L9.82489 15.414C9.74748 15.4825 9.69822 15.5772 9.6867 15.6799L9.38773 18.3376C9.37797 18.4243 9.25668 18.4358 9.23079 18.3525L8.00073 14.3889C7.94439 14.2075 8.01784 14.0109 8.17929 13.9107L17.3493 8.2234C17.5602 8.0925 17.7761 8.3828 17.5902 8.5472Z" fill="white"/>
</svg>
