<svg width="85" height="29" viewBox="0 0 85 29" fill="none" xmlns="http://www.w3.org/2000/svg">
<path d="M38.6133 23H36.5273L30.293 6.08984H32.5078L37.5352 20.4336H37.6055L42.6328 6.08984H44.8477L38.6133 23ZM46.6406 23V10.3672H48.6797V23H46.6406ZM47.6602 8.32812C47.3086 8.32812 47.0039 8.20312 46.7461 7.95312C46.4961 7.69531 46.3711 7.39062 46.3711 7.03906C46.3711 6.67969 46.4961 6.375 46.7461 6.125C47.0039 5.875 47.3086 5.75 47.6602 5.75C48.0195 5.75 48.3242 5.875 48.5742 6.125C48.8242 6.375 48.9492 6.67969 48.9492 7.03906C48.9492 7.39062 48.8242 7.69531 48.5742 7.95312C48.3242 8.20312 48.0195 8.32812 47.6602 8.32812ZM57.7734 23.1172C56.8516 23.1172 56.0391 22.9258 55.3359 22.543C54.6328 22.1523 54.0742 21.5938 53.6602 20.8672H53.6133V23H51.6797V5.35156H53.7188V12.418H53.7656C54.1641 11.7227 54.7148 11.1875 55.418 10.8125C56.1211 10.4375 56.9219 10.25 57.8203 10.25C59.4141 10.25 60.7031 10.8438 61.6875 12.0312C62.6719 13.2109 63.1641 14.7617 63.1641 16.6836C63.1641 18.6133 62.668 20.168 61.6758 21.3477C60.6914 22.5273 59.3906 23.1172 57.7734 23.1172ZM57.4102 12.0664C56.3086 12.0664 55.4141 12.4961 54.7266 13.3555C54.0469 14.207 53.707 15.3164 53.707 16.6836C53.707 18.0586 54.0469 19.1719 54.7266 20.0234C55.4141 20.875 56.3086 21.3008 57.4102 21.3008C58.5195 21.3008 59.4062 20.8828 60.0703 20.0469C60.7422 19.2109 61.0781 18.0898 61.0781 16.6836C61.0781 15.2852 60.7422 14.168 60.0703 13.332C59.4062 12.4883 58.5195 12.0664 57.4102 12.0664ZM70.3594 12.043C69.3672 12.043 68.543 12.3711 67.8867 13.0273C67.2383 13.6836 66.8789 14.5469 66.8086 15.6172H73.7578C73.7344 14.5469 73.4102 13.6836 72.7852 13.0273C72.168 12.3711 71.3594 12.043 70.3594 12.043ZM73.7109 19.3906H75.7266C75.5547 20.4766 74.9766 21.3711 73.9922 22.0742C73.0078 22.7695 71.8398 23.1172 70.4883 23.1172C68.7148 23.1172 67.3047 22.543 66.2578 21.3945C65.2188 20.2461 64.6992 18.6914 64.6992 16.7305C64.6992 14.7695 65.2188 13.1992 66.2578 12.0195C67.2969 10.8398 68.6758 10.25 70.3945 10.25C72.082 10.25 73.418 10.8086 74.4023 11.9258C75.3867 13.0352 75.8789 14.543 75.8789 16.4492V17.2461H66.8086V17.3633C66.8086 18.5664 67.1484 19.5273 67.8281 20.2461C68.5078 20.9648 69.4102 21.3242 70.5352 21.3242C71.3242 21.3242 72.0039 21.1523 72.5742 20.8086C73.1523 20.457 73.5312 19.9844 73.7109 19.3906ZM78.0234 23V10.3672H79.9453V12.418H79.9922C80.1797 11.7539 80.5508 11.2266 81.1055 10.8359C81.6602 10.4453 82.3086 10.25 83.0508 10.25C83.3711 10.25 83.6328 10.2773 83.8359 10.332V12.3477C83.6172 12.2539 83.2656 12.207 82.7812 12.207C81.9609 12.207 81.3008 12.4805 80.8008 13.0273C80.3086 13.5742 80.0625 14.293 80.0625 15.1836V23H78.0234Z" fill="#61A8DE"/>
<path d="M20 3H5C2.23858 3 0 5.23858 0 8V23C0 25.7614 2.23858 28 5 28H20C22.7614 28 25 25.7614 25 23V8C25 5.23858 22.7614 3 20 3Z" fill="#7D3DAF"/>
<path d="M16.8408 22.396C16.5398 22.3046 16.2528 22.2432 15.9864 22.1326C13.2255 20.9872 10.6845 19.5094 8.67183 17.2441C7.52725 15.9559 6.63141 14.5016 5.87413 12.9625C5.51502 12.2326 5.21238 11.4741 4.90391 10.7206C4.62264 10.0334 5.03693 9.3235 5.47318 8.80575C5.88253 8.31985 6.40928 7.94798 6.97974 7.67393C7.42499 7.46001 7.8642 7.58333 8.18939 7.96074C8.89237 8.77667 9.53809 9.63434 10.061 10.5801C10.3825 11.1619 10.2943 11.873 9.71157 12.2689C9.56994 12.3651 9.44088 12.478 9.30894 12.5867C9.19323 12.682 9.08434 12.7782 9.00502 12.9072C8.86003 13.1431 8.85311 13.4215 8.94647 13.678C9.66508 15.6529 10.8763 17.1885 12.864 18.0156C13.1821 18.1479 13.5015 18.302 13.868 18.2593C14.4816 18.1876 14.6803 17.5145 15.1103 17.1628C15.5307 16.8191 16.0678 16.8145 16.5206 17.1011C16.9734 17.3877 17.4125 17.6954 17.8488 18.0063C18.2771 18.3115 18.7036 18.6101 19.0987 18.958C19.4786 19.2926 19.6094 19.7315 19.3955 20.1856C19.0039 21.0171 18.434 21.709 17.6119 22.1505C17.3798 22.2751 17.1026 22.3154 16.8408 22.396C17.1026 22.3154 16.5398 22.3045 16.8408 22.396Z" fill="white"/>
<path d="M12.5896 6.72221C16.2009 6.82338 19.167 9.22004 19.8027 12.7904C19.911 13.3987 19.9495 14.0207 19.9977 14.6381C20.018 14.8978 19.8709 15.1446 19.5906 15.148C19.3011 15.1514 19.1709 14.9092 19.1521 14.6496C19.1149 14.1357 19.0891 13.6195 19.0183 13.1099C18.6444 10.4197 16.4993 8.19405 13.8216 7.71646C13.4186 7.64455 13.0062 7.62566 12.5981 7.58284C12.34 7.55574 12.0021 7.54011 11.9449 7.21938C11.897 6.95047 12.1239 6.73635 12.38 6.7226C12.4496 6.71874 12.5196 6.72191 12.5896 6.72221C12.5196 6.72191 16.2009 6.82338 12.5896 6.72221Z" fill="white"/>
<path d="M18.0761 13.8362C18.0702 13.8813 18.067 13.9873 18.0406 14.0872C17.9447 14.4498 17.3951 14.4952 17.2685 14.1292C17.231 14.0206 17.2253 13.8971 17.2251 13.7802C17.2239 13.0153 17.0576 12.2512 16.6719 11.5857C16.2754 10.9017 15.6696 10.3267 14.9591 9.97876C14.5295 9.7684 14.0649 9.63765 13.594 9.55972C13.3882 9.5257 13.1802 9.50503 12.9734 9.47625C12.7228 9.44143 12.589 9.28171 12.6008 9.03475C12.6119 8.80333 12.781 8.63688 13.0332 8.65112C13.862 8.69819 14.6625 8.8773 15.3993 9.26747C16.8977 10.0609 17.7536 11.3134 18.0034 12.9858C18.0147 13.0616 18.0329 13.1367 18.0386 13.2127C18.0527 13.4005 18.0616 13.5885 18.0761 13.8362C18.0616 13.5885 18.0702 13.8813 18.0761 13.8362Z" fill="white"/>
<path d="M15.8301 13.7493C15.5279 13.7548 15.3662 13.5875 15.3351 13.3105C15.3134 13.1174 15.2963 12.9216 15.2502 12.7337C15.1594 12.3636 14.9627 12.0207 14.6514 11.7939C14.5044 11.6868 14.3378 11.6087 14.1634 11.5584C13.9417 11.4944 13.7116 11.512 13.4905 11.4578C13.2503 11.399 13.1175 11.2045 13.1553 10.9792C13.1896 10.7742 13.3891 10.6142 13.6131 10.6304C15.0132 10.7315 16.0139 11.4553 16.1567 13.1036C16.1668 13.2199 16.1787 13.3429 16.1529 13.4541C16.1087 13.6446 15.9676 13.74 15.8301 13.7493C15.9676 13.74 15.5279 13.7548 15.8301 13.7493Z" fill="white"/>
</svg>
