<svg width="30" height="30" viewBox="0 0 25 25" fill="none" xmlns="http://www.w3.org/2000/svg">
<path d="M20 0H5C2.23858 0 0 2.23858 0 5V20C0 22.7614 2.23858 25 5 25H20C22.7614 25 25 22.7614 25 20V5C25 2.23858 22.7614 0 20 0Z" fill="#7D3DAF"/>
<path d="M16.8408 19.396C16.5398 19.3046 16.2528 19.2432 15.9864 19.1326C13.2255 17.9872 10.6845 16.5094 8.67183 14.2441C7.52725 12.9559 6.63141 11.5016 5.87413 9.9625C5.51502 9.2326 5.21238 8.4741 4.90391 7.7206C4.62264 7.0334 5.03693 6.3235 5.47318 5.80575C5.88253 5.31985 6.40928 4.94798 6.97974 4.67393C7.42499 4.46001 7.8642 4.58333 8.18939 4.96074C8.89237 5.77667 9.53809 6.63434 10.061 7.5801C10.3825 8.1619 10.2943 8.873 9.71157 9.2689C9.56994 9.3651 9.44088 9.478 9.30894 9.5867C9.19323 9.682 9.08434 9.7782 9.00502 9.9072C8.86003 10.1431 8.85311 10.4215 8.94647 10.678C9.66508 12.6529 10.8763 14.1885 12.864 15.0156C13.1821 15.1479 13.5015 15.302 13.868 15.2593C14.4816 15.1876 14.6803 14.5145 15.1103 14.1628C15.5307 13.8191 16.0678 13.8145 16.5206 14.1011C16.9734 14.3877 17.4125 14.6954 17.8488 15.0063C18.2771 15.3115 18.7036 15.6101 19.0987 15.958C19.4786 16.2926 19.6094 16.7315 19.3955 17.1856C19.0039 18.0171 18.434 18.709 17.6119 19.1505C17.3798 19.2751 17.1026 19.3154 16.8408 19.396C16.5398 19.3045 17.1026 19.3154 16.8408 19.396Z" fill="white"/>
<path d="M12.5896 3.72221C16.2009 3.82338 19.167 6.22004 19.8027 9.7904C19.911 10.3987 19.9495 11.0207 19.9977 11.6381C20.018 11.8978 19.8709 12.1446 19.5906 12.148C19.3011 12.1514 19.1709 11.9092 19.1521 11.6496C19.1149 11.1357 19.0891 10.6195 19.0183 10.1099C18.6444 7.4197 16.4993 5.19405 13.8216 4.71646C13.4186 4.64455 13.0062 4.62566 12.5981 4.58284C12.34 4.55574 12.0021 4.54011 11.9449 4.21938C11.897 3.95047 12.1239 3.73635 12.38 3.7226C12.4496 3.71874 12.5196 3.72191 12.5896 3.72221C16.2009 3.82338 12.5196 3.72191 12.5896 3.72221Z" fill="white"/>
<path d="M18.0761 10.8362C18.0702 10.8813 18.067 10.9873 18.0406 11.0872C17.9447 11.4498 17.3951 11.4952 17.2685 11.1292C17.231 11.0206 17.2253 10.8971 17.2251 10.7802C17.2239 10.0153 17.0576 9.2512 16.6719 8.5857C16.2754 7.9017 15.6696 7.3267 14.9591 6.97876C14.5295 6.7684 14.0649 6.63765 13.594 6.55972C13.3882 6.5257 13.1802 6.50503 12.9734 6.47625C12.7228 6.44143 12.589 6.28171 12.6008 6.03475C12.6119 5.80333 12.781 5.63688 13.0332 5.65112C13.862 5.69819 14.6625 5.8773 15.3993 6.26747C16.8977 7.0609 17.7536 8.3134 18.0034 9.9858C18.0147 10.0616 18.0329 10.1367 18.0386 10.2127C18.0527 10.4005 18.0616 10.5885 18.0761 10.8362C18.0702 10.8813 18.0616 10.5885 18.0761 10.8362Z" fill="white"/>
<path d="M15.8301 10.7493C15.5279 10.7548 15.3662 10.5875 15.3351 10.3105C15.3134 10.1174 15.2963 9.9216 15.2502 9.7337C15.1594 9.3636 14.9627 9.0207 14.6514 8.7939C14.5044 8.6868 14.3378 8.6087 14.1634 8.5584C13.9417 8.4944 13.7116 8.512 13.4905 8.4578C13.2503 8.399 13.1175 8.2045 13.1553 7.9792C13.1896 7.7742 13.3891 7.6142 13.6131 7.6304C15.0132 7.7315 16.0139 8.4553 16.1567 10.1036C16.1668 10.2199 16.1787 10.3429 16.1529 10.4541C16.1087 10.6446 15.9676 10.74 15.8301 10.7493C15.5279 10.7548 15.9676 10.74 15.8301 10.7493Z" fill="white"/>
</svg>
