<svg width="136" height="29" viewBox="0 0 136 29" fill="none" xmlns="http://www.w3.org/2000/svg">
<path d="M40.0273 9.58203L36.125 23H34.1328L29.5273 6.08984H31.7305L35.1172 19.8945H35.2109L39.0195 6.08984H41.1523L44.9609 19.8945H45.0547L48.4414 6.08984H50.6445L46.0391 23H44.0469L40.1445 9.58203H40.0273ZM52.6719 23V5.35156H54.7109V12.418H54.7578C55.5547 10.9727 56.9297 10.25 58.8828 10.25C60.2656 10.25 61.3828 10.6797 62.2344 11.5391C63.0859 12.3984 63.5117 13.5312 63.5117 14.9375V23H61.4727V15.3008C61.4727 14.293 61.1875 13.5039 60.6172 12.9336C60.0547 12.3555 59.2734 12.0664 58.2734 12.0664C57.2031 12.0664 56.3398 12.4023 55.6836 13.0742C55.0352 13.7461 54.7109 14.6328 54.7109 15.7344V23H52.6719ZM70.3438 21.3477C71.375 21.3477 72.2266 21.0508 72.8984 20.457C73.5781 19.8555 73.918 19.1016 73.918 18.1953V17.1758L70.6133 17.3867C68.6914 17.5039 67.7305 18.1797 67.7305 19.4141C67.7305 20 67.9648 20.4688 68.4336 20.8203C68.9102 21.1719 69.5469 21.3477 70.3438 21.3477ZM69.9102 23.1172C68.6289 23.1172 67.5977 22.7773 66.8164 22.0977C66.0352 21.418 65.6445 20.5195 65.6445 19.4023C65.6445 18.3164 66.0508 17.4648 66.8633 16.8477C67.6758 16.2227 68.8477 15.8633 70.3789 15.7695L73.918 15.5586V14.5039C73.918 13.7227 73.668 13.1211 73.168 12.6992C72.668 12.2773 71.9531 12.0664 71.0234 12.0664C70.2891 12.0664 69.668 12.2422 69.1602 12.5938C68.6602 12.9453 68.3477 13.418 68.2227 14.0117H66.2656C66.2969 12.9492 66.7695 12.0586 67.6836 11.3398C68.5977 10.6133 69.7188 10.25 71.0469 10.25C72.5391 10.25 73.7305 10.6211 74.6211 11.3633C75.5117 12.0977 75.957 13.0859 75.957 14.3281V23H74.0234V20.8086H73.9766C73.6172 21.5117 73.0703 22.0742 72.3359 22.4961C71.6016 22.9102 70.793 23.1172 69.9102 23.1172ZM79.332 7.51953H81.3711V10.3672H83.832V12.0547H81.3711V19.6367C81.3711 20.2148 81.4961 20.6406 81.7461 20.9141C82.0039 21.1875 82.4023 21.3242 82.9414 21.3242C83.293 21.3242 83.5859 21.3047 83.8203 21.2656V22.9883C83.5234 23.0586 83.0859 23.0938 82.5078 23.0938C81.3672 23.0938 80.5508 22.8359 80.0586 22.3203C79.5742 21.7969 79.332 20.9297 79.332 19.7188V12.0547H77.5742V10.3672H79.332V7.51953ZM85.8828 13.8945C85.8828 12.832 86.3164 11.9609 87.1836 11.2812C88.0586 10.6016 89.1836 10.2617 90.5586 10.2617C91.8398 10.2617 92.9141 10.6055 93.7812 11.293C94.6562 11.9727 95.1133 12.832 95.1523 13.8711H93.1953C93.1328 13.2773 92.8594 12.8086 92.375 12.4648C91.8906 12.1211 91.2617 11.9492 90.4883 11.9492C89.707 11.9492 89.0781 12.1172 88.6016 12.4531C88.125 12.7891 87.8867 13.2344 87.8867 13.7891C87.8867 14.6328 88.5977 15.2305 90.0195 15.582L91.9414 16.0625C93.2148 16.3828 94.1094 16.7969 94.625 17.3047C95.1484 17.8047 95.4102 18.5156 95.4102 19.4375C95.4102 20.5156 94.9414 21.3984 94.0039 22.0859C93.0742 22.7734 91.8789 23.1172 90.418 23.1172C89.0586 23.1172 87.9297 22.7812 87.0312 22.1094C86.1328 21.4297 85.6328 20.543 85.5312 19.4492H87.582C87.6836 20.0898 87.9883 20.582 88.4961 20.9258C89.0117 21.2617 89.6992 21.4297 90.5586 21.4297C91.418 21.4297 92.0977 21.2656 92.5977 20.9375C93.1055 20.6016 93.3594 20.1484 93.3594 19.5781C93.3594 19.1328 93.2109 18.7812 92.9141 18.5234C92.6172 18.2578 92.1094 18.0312 91.3906 17.8438L89.1758 17.2695C86.9805 16.6992 85.8828 15.5742 85.8828 13.8945ZM101.75 21.3477C102.781 21.3477 103.633 21.0508 104.305 20.457C104.984 19.8555 105.324 19.1016 105.324 18.1953V17.1758L102.02 17.3867C100.098 17.5039 99.1367 18.1797 99.1367 19.4141C99.1367 20 99.3711 20.4688 99.8398 20.8203C100.316 21.1719 100.953 21.3477 101.75 21.3477ZM101.316 23.1172C100.035 23.1172 99.0039 22.7773 98.2227 22.0977C97.4414 21.418 97.0508 20.5195 97.0508 19.4023C97.0508 18.3164 97.457 17.4648 98.2695 16.8477C99.082 16.2227 100.254 15.8633 101.785 15.7695L105.324 15.5586V14.5039C105.324 13.7227 105.074 13.1211 104.574 12.6992C104.074 12.2773 103.359 12.0664 102.43 12.0664C101.695 12.0664 101.074 12.2422 100.566 12.5938C100.066 12.9453 99.7539 13.418 99.6289 14.0117H97.6719C97.7031 12.9492 98.1758 12.0586 99.0898 11.3398C100.004 10.6133 101.125 10.25 102.453 10.25C103.945 10.25 105.137 10.6211 106.027 11.3633C106.918 12.0977 107.363 13.0859 107.363 14.3281V23H105.43V20.8086H105.383C105.023 21.5117 104.477 22.0742 103.742 22.4961C103.008 22.9102 102.199 23.1172 101.316 23.1172ZM116.141 10.25C117.758 10.25 119.062 10.8438 120.055 12.0312C121.055 13.2109 121.555 14.7617 121.555 16.6836C121.555 18.6055 121.059 20.1602 120.066 21.3477C119.074 22.5273 117.781 23.1172 116.188 23.1172C115.297 23.1172 114.5 22.9297 113.797 22.5547C113.102 22.1797 112.555 21.6445 112.156 20.9492H112.109V27.2188H110.07V10.3672H112.004V12.418H112.051C112.418 11.7617 112.973 11.2383 113.715 10.8477C114.457 10.4492 115.266 10.25 116.141 10.25ZM115.766 21.3008C116.883 21.3008 117.777 20.8828 118.449 20.0469C119.129 19.2031 119.469 18.082 119.469 16.6836C119.469 15.293 119.129 14.1758 118.449 13.332C117.777 12.4883 116.883 12.0664 115.766 12.0664C114.68 12.0664 113.797 12.4922 113.117 13.3438C112.438 14.1953 112.098 15.3086 112.098 16.6836C112.098 18.0586 112.434 19.1719 113.105 20.0234C113.785 20.875 114.672 21.3008 115.766 21.3008ZM129.781 10.25C131.398 10.25 132.703 10.8438 133.695 12.0312C134.695 13.2109 135.195 14.7617 135.195 16.6836C135.195 18.6055 134.699 20.1602 133.707 21.3477C132.715 22.5273 131.422 23.1172 129.828 23.1172C128.938 23.1172 128.141 22.9297 127.438 22.5547C126.742 22.1797 126.195 21.6445 125.797 20.9492H125.75V27.2188H123.711V10.3672H125.645V12.418H125.691C126.059 11.7617 126.613 11.2383 127.355 10.8477C128.098 10.4492 128.906 10.25 129.781 10.25ZM129.406 21.3008C130.523 21.3008 131.418 20.8828 132.09 20.0469C132.77 19.2031 133.109 18.082 133.109 16.6836C133.109 15.293 132.77 14.1758 132.09 13.332C131.418 12.4883 130.523 12.0664 129.406 12.0664C128.32 12.0664 127.438 12.4922 126.758 13.3438C126.078 14.1953 125.738 15.3086 125.738 16.6836C125.738 18.0586 126.074 19.1719 126.746 20.0234C127.426 20.875 128.312 21.3008 129.406 21.3008Z" fill="#1BD741"/>
<path d="M20 3H5C2.23858 3 0 5.23858 0 8V23C0 25.7614 2.23858 28 5 28H20C22.7614 28 25 25.7614 25 23V8C25 5.23858 22.7614 3 20 3Z" fill="#1BD741"/>
<path d="M7.272 23.3476C5.7131 23.7489 4.30571 22.3094 4.74198 20.76V20.76C4.89618 20.2123 4.80856 19.6306 4.57159 19.1133C4.05206 17.9793 3.78128 16.7427 3.78128 15.4791C3.78128 10.6646 7.69817 6.74768 12.5127 6.74768C17.3272 6.74768 21.244 10.6646 21.244 15.4791C21.244 20.2936 17.3272 24.2105 12.5127 24.2105C11.3048 24.2105 10.1171 23.9616 9.02189 23.4839C8.51069 23.261 7.94262 23.1749 7.40254 23.314L7.272 23.3476ZM8.17009 21.5869C8.36396 21.537 8.56977 21.5677 8.74062 21.6721V21.6721C9.87364 22.3637 11.178 22.7294 12.5127 22.7294C16.5105 22.7294 19.7629 19.4769 19.7629 15.4791C19.7629 11.4813 16.5105 8.22882 12.5127 8.22882C8.51488 8.22882 5.26242 11.4813 5.26242 15.4791C5.26242 16.8721 5.65832 18.2248 6.40723 19.391V19.391C6.52169 19.5692 6.55435 19.788 6.49694 19.9919L6.44222 20.1863C6.19364 21.0691 6.99555 21.8893 7.88379 21.6606L8.17009 21.5869Z" fill="white"/>
<path d="M10.0584 11.4155L9.49186 11.3846C9.3139 11.3749 9.13935 11.4343 9.00484 11.5512C8.73017 11.7897 8.29098 12.2508 8.15609 12.8517C7.95493 13.7477 8.2658 14.8448 9.07039 15.942C9.87498 17.0391 11.3744 18.7945 14.0258 19.5443C14.8802 19.7859 15.5523 19.623 16.0708 19.2913C16.4816 19.0286 16.7647 18.6069 16.8667 18.1302L16.9572 17.7077C16.9859 17.5734 16.9177 17.4371 16.793 17.3796L14.8782 16.497C14.7539 16.4397 14.6065 16.476 14.5229 16.5843L13.7712 17.5588C13.7144 17.6324 13.6172 17.6616 13.5294 17.6307C13.0147 17.4498 11.2903 16.7276 10.3441 14.9051C10.3031 14.826 10.3133 14.7301 10.3715 14.6627L11.0899 13.8316C11.1633 13.7467 11.1818 13.6274 11.1377 13.5243L10.3123 11.5932C10.2684 11.4904 10.1699 11.4215 10.0584 11.4155Z" fill="white"/>
</svg>
