<svg width="30" height="30" viewBox="0 0 25 25" fill="none" xmlns="http://www.w3.org/2000/svg">
<path d="M20 0H5C2.23858 0 0 2.23858 0 5V20C0 22.7614 2.23858 25 5 25H20C22.7614 25 25 22.7614 25 20V5C25 2.23858 22.7614 0 20 0Z" fill="#1BD741"/>
<path d="M7.27197 20.3476C5.71307 20.7489 4.30568 19.3094 4.74195 17.76C4.89615 17.2123 4.80853 16.6306 4.57156 16.1133C4.05203 14.9793 3.78125 13.7427 3.78125 12.4791C3.78125 7.6646 7.69814 3.74768 12.5127 3.74768C17.3272 3.74768 21.244 7.6646 21.244 12.4791C21.244 17.2936 17.3272 21.2105 12.5127 21.2105C11.3048 21.2105 10.1171 20.9616 9.02186 20.4839C8.51066 20.261 7.94259 20.1749 7.40251 20.314L7.27197 20.3476ZM8.17006 18.5869C8.36393 18.537 8.56974 18.5677 8.74059 18.6721C9.87361 19.3637 11.178 19.7294 12.5127 19.7294C16.5105 19.7294 19.7629 16.4769 19.7629 12.4791C19.7629 8.4813 16.5105 5.22882 12.5127 5.22882C8.51485 5.22882 5.26239 8.4813 5.26239 12.4791C5.26239 13.8721 5.65829 15.2248 6.4072 16.391C6.52166 16.5692 6.55432 16.788 6.49691 16.9919L6.44219 17.1863C6.19361 18.0691 6.99552 18.8893 7.88376 18.6606L8.17006 18.5869Z" fill="white"/>
<path d="M10.0584 8.41547L9.49186 8.38457C9.3139 8.37487 9.13935 8.43427 9.00484 8.55117C8.73017 8.78967 8.29098 9.25077 8.15609 9.85167C7.95493 10.7477 8.2658 11.8448 9.07039 12.942C9.87498 14.0391 11.3744 15.7945 14.0258 16.5443C14.8802 16.7859 15.5523 16.623 16.0708 16.2913C16.4816 16.0286 16.7647 15.6069 16.8667 15.1302L16.9572 14.7077C16.9859 14.5734 16.9177 14.4371 16.793 14.3796L14.8782 13.497C14.7539 13.4397 14.6065 13.476 14.5229 13.5843L13.7712 14.5588C13.7144 14.6324 13.6172 14.6616 13.5294 14.6307C13.0147 14.4498 11.2903 13.7276 10.3441 11.9051C10.3031 11.826 10.3133 11.7301 10.3715 11.6627L11.0899 10.8316C11.1633 10.7467 11.1818 10.6274 11.1377 10.5243L10.3123 8.59317C10.2684 8.49037 10.1699 8.42147 10.0584 8.41547Z" fill="white"/>
</svg>
