<?xml version="1.0" encoding="utf-8"?>
<svg version="1.1" xmlns="http://www.w3.org/2000/svg" xmlns:xlink="http://www.w3.org/1999/xlink" viewBox="0 0 50 50" fill="#B74746">
	<path d="M42.5,8.9l-8.2-8.3C33.9,0.2,33.4,0,32.8,0c-0.5,0-1,0.2-1.4,0.6l-5.8,5.8l-23,23l0,0
		c-0.4,0.4-0.6,0.9-0.6,1.4l0,8.4c0,0.5,0.2,1.1,0.6,1.4C3,40.9,3.5,41.1,4,41.1l8.3,0c0.5,0,1-0.2,1.4-0.6l28.7-28.7
		C43.3,11,43.3,9.7,42.5,8.9z M11.2,36.3l-4.4,0l0-4.5L29,9.7l3.8-3.9l4.4,4.5L11.2,36.3z"/>
	<path d="M45.8,38.5h-5.1v-5.1c0-1.2-1-2.2-2.2-2.2c-1.2,0-2.2,1-2.2,2.2v5.1h-5.1c-1.2,0-2.2,1-2.2,2.2s1,2.2,2.2,2.2
		h5.1v5.1c0,1.2,1,2.2,2.2,2.2c1.2,0,2.2-1,2.2-2.2v-5.1h5.1c1.2,0,2.2-1,2.2-2.2S47,38.5,45.8,38.5z"/>
</svg>
