<?xml version="1.0" encoding="utf-8"?>
<svg version="1.1" xmlns="http://www.w3.org/2000/svg" xmlns:xlink="http://www.w3.org/1999/xlink" x="0px" y="0px" viewBox="0 0 50 50" fill="#969FA9">
	<path d="M1.4,47.7h6.3c0.8,0,1.4-0.6,1.4-1.4V21.8c0-0.8-0.6-1.4-1.4-1.4H1.4C0.6,20.3,0,21,0,21.8v24.5
			C0,47.1,0.6,47.7,1.4,47.7z M50,22.6c0-2.5-1.8-4.6-4.3-4.6H31.3l2.2-10c0.1-0.3,0.1-0.7,0.1-1V6.9c0-0.4-0.1-0.8-0.2-1.1
			c-0.2-0.7-0.7-1.4-1.3-1.9l-1.6-1.5c-0.2-0.2-0.5-0.2-0.6,0L15.1,17.1c-0.9,0.7-1.4,1.8-1.4,3.2v22.8c0,2.5,2.1,4.6,4.6,4.6h20.5
			c1.8,0,3.4-1.1,4.1-2.7l6.8-16.2c0.2-0.5,0.2-1.1,0.2-1.6V22.6L50,22.6C50,22.9,50,22.6,50,22.6z"/>
</svg>
