<?xml version="1.0" encoding="utf-8"?>
<svg version="1.1" xmlns="http://www.w3.org/2000/svg" xmlns:xlink="http://www.w3.org/1999/xlink" x="0px" y="0px" viewBox="0 0 50 50" fill="#969FA9">
	<path d="M49.6,21.2c-1.4-2.2-3-4.3-4.7-6.1c-1.8-1.8-3.7-3.4-5.8-4.7c-2.1-1.3-4.4-2.3-6.7-3C30,6.7,27.5,6.4,25,6.4
		c-2.5,0-5,0.4-7.4,1.1c-2.3,0.7-4.6,1.7-6.7,3c-2.1,1.3-4,2.9-5.8,4.7C3.4,17,1.8,19,0.4,21.2c-0.8,1.3-0.4,2.9,0.9,3.7
		c0.4,0.3,0.9,0.4,1.4,0.4c0.9,0,1.8-0.4,2.3-1.3c4.9-7.9,12.2-12.4,20-12.4s15.2,4.5,20,12.4c0.8,1.3,2.4,1.6,3.7,0.9
		C50,24.2,50.4,22.5,49.6,21.2z"/>
	<path d="M37,30c-1.4,1.1-3.2,1.8-5.1,1.8c-4.5,0-8.1-3.6-8.1-8.1c0-1.9,0.7-3.7,1.8-5.1c0.3-0.4,0-1.1-0.5-1.1
		c-0.1,0-0.1,0-0.2,0c-7.2,0-13.1,5.9-13.1,13.1c0,7.2,5.9,13.1,13.1,13.1c7.2,0,13.1-5.9,13.1-13.1c0,0,0,0,0,0
		C38.1,30,37.4,29.7,37,30z"/>
</svg>
