<svg width="152" height="150" viewBox="0 0 152 150" fill="none" xmlns="http://www.w3.org/2000/svg">
<path d="M86.3101 47.4451L86.4823 48.2001L87.0995 47.7324L124.05 19.7368L102.896 60.9868L102.542 61.6759L103.316 61.7144L149.616 64.0195L106.896 82.0213L106.183 82.322L106.75 82.8486L140.737 114.376L96.4402 100.706L95.7003 100.478L95.7967 101.246L101.567 147.244L76.42 108.299L76 107.648L75.58 108.299L50.4334 147.244L56.2033 101.246L56.2997 100.478L55.5598 100.706L11.263 114.376L45.2497 82.8486L45.8174 82.322L45.1038 82.0213L2.38383 64.0195L48.6844 61.7144L49.4578 61.6759L49.1045 60.9868L27.9505 19.7368L64.9005 47.7324L65.5177 48.2001L65.6899 47.4451L76 2.24819L86.3101 47.4451Z" fill="white" stroke="black"/>
</svg>
