<svg width="238" height="243" viewBox="0 0 238 243" fill="none" xmlns="http://www.w3.org/2000/svg">
<path d="M75.4151 104.81L76.1701 104.637L75.7025 104.02L30.3818 44.2036L97.1593 78.4488L97.8484 78.8021L97.8869 78.0287L101.618 3.07509L130.761 72.2322L131.061 72.9458L131.588 72.3781L182.626 17.3589L160.497 89.0686L160.268 89.8085L161.037 89.7121L235.5 80.3715L172.454 121.08L171.803 121.5L172.454 121.92L235.5 162.629L161.037 153.288L160.268 153.192L160.497 153.931L182.626 225.641L131.588 170.622L131.061 170.054L130.761 170.768L101.618 239.925L97.8869 164.971L97.8484 164.198L97.1593 164.551L30.3818 198.796L75.7025 138.98L76.1701 138.363L75.4151 138.19L2.24819 121.5L75.4151 104.81Z" fill="white" stroke="black"/>
</svg>
