<svg width="20" height="20" viewBox="0 0 20 20" fill="none" xmlns="http://www.w3.org/2000/svg">
<path d="M19.6809 18.0851H0.319149C0.142894 18.0851 0 18.228 0 18.4042C0 18.5805 0.142894 18.7234 0.319149 18.7234H19.6809C19.8571 18.7234 20 18.5805 20 18.4042C20 18.228 19.8571 18.0851 19.6809 18.0851Z" fill="#363636"/>
<path d="M19.6809 19.3613H0.319149C0.142894 19.3613 0 19.5042 0 19.6805C0 19.8567 0.142894 19.9996 0.319149 19.9996H19.6809C19.8571 19.9996 20 19.8567 20 19.6805C20 19.5042 19.8571 19.3613 19.6809 19.3613Z" fill="#363636"/>
<path d="M19.6809 1.2766H18.617V0.957447C18.617 0.429489 18.1875 0 17.6596 0C17.1317 0 16.7021 0.429489 16.7021 0.957447V1.2766H13.5106V0.957447C13.5106 0.429489 13.0811 0 12.5532 0C12.0253 0 11.5957 0.429489 11.5957 0.957447V1.2766H8.40425V0.957447C8.40425 0.429489 7.97477 0 7.44681 0C6.91885 0 6.48936 0.429489 6.48936 0.957447V1.2766H3.29787V0.957447C3.29787 0.429489 2.86838 0 2.34043 0C1.81247 0 1.38298 0.429489 1.38298 0.957447V1.2766H0.319149C0.142894 1.2766 0 1.41949 0 1.59574V17.1277C0 17.3039 0.142894 17.4468 0.319149 17.4468H19.6809C19.8571 17.4468 20 17.3039 20 17.1277V1.59574C20 1.41949 19.8571 1.2766 19.6809 1.2766ZM17.3404 0.957447C17.3404 0.781447 17.4836 0.638298 17.6596 0.638298C17.8356 0.638298 17.9787 0.781447 17.9787 0.957447V2.23404C17.9787 2.41004 17.8356 2.55319 17.6596 2.55319C17.4836 2.55319 17.3404 2.41004 17.3404 2.23404V0.957447ZM12.234 0.957447C12.234 0.781447 12.3772 0.638298 12.5532 0.638298C12.7292 0.638298 12.8723 0.781447 12.8723 0.957447V2.23404C12.8723 2.41004 12.7292 2.55319 12.5532 2.55319C12.3772 2.55319 12.234 2.41004 12.234 2.23404V0.957447ZM7.12766 0.957447C7.12766 0.781447 7.27081 0.638298 7.44681 0.638298C7.62281 0.638298 7.76596 0.781447 7.76596 0.957447V2.23404C7.76596 2.41004 7.62281 2.55319 7.44681 2.55319C7.27081 2.55319 7.12766 2.41004 7.12766 2.23404V0.957447ZM2.02128 0.957447C2.02128 0.781447 2.16443 0.638298 2.34043 0.638298C2.51643 0.638298 2.65957 0.781447 2.65957 0.957447V2.23404C2.65957 2.41004 2.51643 2.55319 2.34043 2.55319C2.16443 2.55319 2.02128 2.41004 2.02128 2.23404V0.957447ZM1.38298 1.91489V2.23404C1.38298 2.762 1.81247 3.19149 2.34043 3.19149C2.86838 3.19149 3.29787 2.762 3.29787 2.23404V1.91489H6.48936V2.23404C6.48936 2.762 6.91885 3.19149 7.44681 3.19149C7.97477 3.19149 8.40425 2.762 8.40425 2.23404V1.91489H11.5957V2.23404C11.5957 2.762 12.0253 3.19149 12.5532 3.19149C13.0811 3.19149 13.5106 2.762 13.5106 2.23404V1.91489H16.7021V2.23404C16.7021 2.762 17.1317 3.19149 17.6596 3.19149C18.1875 3.19149 18.617 2.762 18.617 2.23404V1.91489H19.3617V5.20426H0.638298V1.91489H1.38298ZM0.638298 16.8085V5.84255H19.3617V16.8085H0.638298Z" fill="#363636"/>
<path d="M17.5313 9.65039H16.2547C16.0784 9.65039 15.9355 9.79328 15.9355 9.96954C15.9355 10.1458 16.0784 10.2887 16.2547 10.2887H17.5313C17.7076 10.2887 17.8504 10.1458 17.8504 9.96954C17.8504 9.79328 17.7076 9.65039 17.5313 9.65039Z" fill="#363636"/>
<path d="M14.086 9.65039H12.8094C12.6331 9.65039 12.4902 9.79328 12.4902 9.96954C12.4902 10.1458 12.6331 10.2887 12.8094 10.2887H14.086C14.2623 10.2887 14.4051 10.1458 14.4051 9.96954C14.4051 9.79328 14.2623 9.65039 14.086 9.65039Z" fill="#363636"/>
<path d="M10.6387 9.65039H9.36212C9.18586 9.65039 9.04297 9.79328 9.04297 9.96954C9.04297 10.1458 9.18586 10.2887 9.36212 10.2887H10.6387C10.815 10.2887 10.9579 10.1458 10.9579 9.96954C10.9579 9.79328 10.815 9.65039 10.6387 9.65039Z" fill="#363636"/>
<path d="M7.19145 9.65137H5.91485C5.7386 9.65137 5.5957 9.79426 5.5957 9.97052C5.5957 10.1468 5.7386 10.2897 5.91485 10.2897H7.19145C7.3677 10.2897 7.5106 10.1468 7.5106 9.97052C7.5106 9.79426 7.3677 9.65137 7.19145 9.65137Z" fill="#363636"/>
<path d="M3.74418 9.65039H2.46759C2.29133 9.65039 2.14844 9.79328 2.14844 9.96954C2.14844 10.1458 2.29133 10.2887 2.46759 10.2887H3.74418C3.92044 10.2887 4.06333 10.1458 4.06333 9.96954C4.06333 9.79328 3.92044 9.65039 3.74418 9.65039Z" fill="#363636"/>
<path d="M14.086 11.9492H12.8094C12.6331 11.9492 12.4902 12.0921 12.4902 12.2684C12.4902 12.4446 12.6331 12.5875 12.8094 12.5875H14.086C14.2623 12.5875 14.4051 12.4446 14.4051 12.2684C14.4051 12.0921 14.2623 11.9492 14.086 11.9492Z" fill="#363636"/>
<path d="M10.6387 11.9492H9.36212C9.18586 11.9492 9.04297 12.0921 9.04297 12.2684C9.04297 12.4446 9.18586 12.5875 9.36212 12.5875H10.6387C10.815 12.5875 10.9579 12.4446 10.9579 12.2684C10.9579 12.0921 10.815 11.9492 10.6387 11.9492Z" fill="#363636"/>
<path d="M7.19145 11.9492H5.91485C5.7386 11.9492 5.5957 12.0921 5.5957 12.2684C5.5957 12.4446 5.7386 12.5875 5.91485 12.5875H7.19145C7.3677 12.5875 7.5106 12.4446 7.5106 12.2684C7.5106 12.0921 7.3677 11.9492 7.19145 11.9492Z" fill="#363636"/>
<path d="M3.74418 11.9492H2.46759C2.29133 11.9492 2.14844 12.0921 2.14844 12.2684C2.14844 12.4446 2.29133 12.5875 2.46759 12.5875H3.74418C3.92044 12.5875 4.06333 12.4446 4.06333 12.2684C4.06333 12.0921 3.92044 11.9492 3.74418 11.9492Z" fill="#363636"/>
<path d="M14.086 14.2461H12.8094C12.6331 14.2461 12.4902 14.389 12.4902 14.5652C12.4902 14.7415 12.6331 14.8844 12.8094 14.8844H14.086C14.2623 14.8844 14.4051 14.7415 14.4051 14.5652C14.4051 14.389 14.2623 14.2461 14.086 14.2461Z" fill="#363636"/>
<path d="M17.5313 11.9492H16.2547C16.0784 11.9492 15.9355 12.0921 15.9355 12.2684C15.9355 12.4446 16.0784 12.5875 16.2547 12.5875H17.5313C17.7076 12.5875 17.8504 12.4446 17.8504 12.2684C17.8504 12.0921 17.7076 11.9492 17.5313 11.9492Z" fill="#363636"/>
<path d="M17.5313 14.2461H16.2547C16.0784 14.2461 15.9355 14.389 15.9355 14.5652C15.9355 14.7415 16.0784 14.8844 16.2547 14.8844H17.5313C17.7076 14.8844 17.8504 14.7415 17.8504 14.5652C17.8504 14.389 17.7076 14.2461 17.5313 14.2461Z" fill="#363636"/>
<path d="M10.6387 14.2461H9.36212C9.18586 14.2461 9.04297 14.389 9.04297 14.5652C9.04297 14.7415 9.18586 14.8844 9.36212 14.8844H10.6387C10.815 14.8844 10.9579 14.7415 10.9579 14.5652C10.9579 14.389 10.815 14.2461 10.6387 14.2461Z" fill="#363636"/>
<path d="M7.19145 14.2471H5.91485C5.7386 14.2471 5.5957 14.39 5.5957 14.5662C5.5957 14.7425 5.7386 14.8854 5.91485 14.8854H7.19145C7.3677 14.8854 7.5106 14.7425 7.5106 14.5662C7.5106 14.39 7.3677 14.2471 7.19145 14.2471Z" fill="#363636"/>
<path d="M3.74418 14.2461H2.46759C2.29133 14.2461 2.14844 14.389 2.14844 14.5652C2.14844 14.7415 2.29133 14.8844 2.46759 14.8844H3.74418C3.92044 14.8844 4.06333 14.7415 4.06333 14.5652C4.06333 14.389 3.92044 14.2461 3.74418 14.2461Z" fill="#363636"/>
<path d="M17.5313 7.35352H16.2547C16.0784 7.35352 15.9355 7.49641 15.9355 7.67266C15.9355 7.84892 16.0784 7.99181 16.2547 7.99181H17.5313C17.7076 7.99181 17.8504 7.84892 17.8504 7.67266C17.8504 7.49641 17.7076 7.35352 17.5313 7.35352Z" fill="#363636"/>
<path d="M14.086 7.35352H12.8094C12.6331 7.35352 12.4902 7.49641 12.4902 7.67266C12.4902 7.84892 12.6331 7.99181 12.8094 7.99181H14.086C14.2623 7.99181 14.4051 7.84892 14.4051 7.67266C14.4051 7.49641 14.2623 7.35352 14.086 7.35352Z" fill="#363636"/>
<path d="M10.6387 7.35352H9.36212C9.18586 7.35352 9.04297 7.49641 9.04297 7.67266C9.04297 7.84892 9.18586 7.99181 9.36212 7.99181H10.6387C10.815 7.99181 10.9579 7.84892 10.9579 7.67266C10.9579 7.49641 10.815 7.35352 10.6387 7.35352Z" fill="#363636"/>
<path d="M7.19145 7.35352H5.91485C5.7386 7.35352 5.5957 7.49641 5.5957 7.67266C5.5957 7.84892 5.7386 7.99181 5.91485 7.99181H7.19145C7.3677 7.99181 7.5106 7.84892 7.5106 7.67266C7.5106 7.49641 7.3677 7.35352 7.19145 7.35352Z" fill="#363636"/>
<path d="M3.74418 7.35352H2.46759C2.29133 7.35352 2.14844 7.49641 2.14844 7.67266C2.14844 7.84892 2.29133 7.99181 2.46759 7.99181H3.74418C3.92044 7.99181 4.06333 7.84892 4.06333 7.67266C4.06333 7.49641 3.92044 7.35352 3.74418 7.35352Z" fill="#363636"/>
</svg>
