<svg width="73" height="73" viewBox="0 0 73 73" fill="none" xmlns="http://www.w3.org/2000/svg">
<g clip-path="url(#clip0_720_11929)">
<path d="M11.071 17.1097C9.49401 17.5866 8.14893 18.6984 7.56536 20.5109C6.44034 24.0163 7.14591 27.757 8.945 31.2514C10.7452 34.7455 13.6351 38.0251 17.0553 40.7671C22.9563 45.4988 30.4328 48.6931 36.8196 48.0438L36.1709 46.056C30.656 46.3854 23.7571 43.5555 18.3162 39.2028C15.0773 36.6017 12.3662 33.499 10.7334 30.3267C9.10407 27.165 8.55965 24.001 9.4816 21.1277C9.83 20.0471 10.36 19.4907 11.1881 19.1734C11.4653 19.0676 11.7727 18.9826 12.1211 18.9254C13.5078 18.6728 15.456 18.8757 17.6032 19.2559C21.56 19.9548 26.1252 21.2927 29.9423 20.4822L29.3078 18.5379C26.273 19.0425 21.9384 17.9787 17.9559 17.2729C15.7451 16.8782 13.6319 16.6021 11.7559 16.9449C11.5229 16.988 11.297 17.0418 11.071 17.1097ZM45.0964 6.00563C44.8732 6.07848 44.6572 6.17366 44.4441 6.27734C42.7376 7.10359 41.194 8.57303 39.6417 10.1959C36.8421 13.115 33.9694 16.5308 31.2212 17.9135L31.8522 19.8471C35.4126 18.25 38.313 14.4864 41.0958 11.588C42.6054 10.0144 44.0589 8.70141 45.3287 8.08705C46.5985 7.4727 47.5338 7.41918 48.7542 8.31127C51.1925 10.088 52.6245 12.9624 53.1717 16.4772C53.7223 20.0027 53.3676 24.1059 52.2886 28.1162C50.4604 34.841 46.5589 41.1956 41.9112 44.1826L42.56 46.1705C48.1003 42.9274 52.2534 35.9379 54.2231 28.6376C55.3707 24.4049 55.773 20.051 55.1645 16.168C54.556 12.285 52.9171 8.84883 49.9402 6.68327C48.3984 5.56321 46.659 5.45924 45.0964 6.00563ZM38.1988 45.7823L39.3228 49.2266L41.2363 48.6021L40.1123 45.1579C39.8003 45.2832 39.4883 45.4086 39.1694 45.5126C38.8505 45.6167 38.5247 45.6995 38.1988 45.7823ZM38.6397 51.5667L37.7664 52.6751L41.8823 53.8255L44.5273 50.4687L43.1683 50.0889L38.6397 51.5667ZM37.5838 54.7108L38.6385 57.9424L40.5349 55.5356L37.5838 54.7108ZM45.8755 52.0048L43.9791 54.4116L46.9301 55.2364L45.8755 52.0048ZM42.6316 56.1217L39.9867 59.4785L44.1025 60.6289L46.7475 57.2721L42.6316 56.1217Z" fill="black"/>
</g>
<defs>
<clipPath id="clip0_720_11929">
<rect width="57.2521" height="57.2521" fill="white" transform="translate(0 17.7617) rotate(-18.0738)"/>
</clipPath>
</defs>
</svg>
