<svg width="48" height="56" viewBox="0 0 48 56" fill="none" xmlns="http://www.w3.org/2000/svg">
<path d="M13.1077 1.12732C11.67 0.322705 9.93612 0.125506 8.22601 0.962876C4.92115 2.58496 2.71697 5.68859 1.44889 9.40878C0.181801 13.1295 -0.17468 17.4862 0.223971 21.8516C0.911012 29.3841 3.79838 36.9844 8.6975 41.1332L9.67886 39.2867C5.61504 35.5439 2.8661 28.6124 2.2253 21.6743C1.85099 17.537 2.20422 13.4319 3.35571 10.055C4.50195 6.68793 6.40266 4.10049 9.11147 2.77073C10.1313 2.27185 10.8998 2.26746 11.7028 2.64359C11.9713 2.76983 12.2459 2.93223 12.5288 3.14336C13.6728 3.96668 14.8785 5.51037 16.0946 7.32044C18.3367 10.6547 20.5409 14.8705 23.7731 17.0568L24.7329 15.2509C22.2639 13.4156 20.0223 9.55613 17.7672 6.19851C16.5176 4.33258 15.2501 2.61927 13.7015 1.50626C13.5089 1.36841 13.3134 1.24299 13.1077 1.12732ZM44.7127 17.9249C44.5053 17.8146 44.2869 17.7252 44.0644 17.6436C42.2853 16.9881 40.1561 16.8961 37.9104 16.9043C33.8658 16.9137 29.4127 17.2151 26.5102 16.1955L25.5556 17.9916C29.1761 19.4473 33.8988 18.9245 37.9168 18.9174C40.0975 18.9126 42.0515 19.0482 43.375 19.5363C44.6985 20.0245 45.3859 20.6609 45.5903 22.1586C46.0027 25.1473 44.9265 28.1729 42.775 31.0057C40.6184 33.8484 37.4175 36.44 33.7809 38.4455C27.6698 41.7952 20.3867 43.3948 15.0109 42.1206L14.0295 43.967C20.2091 45.7065 28.124 43.8474 34.7477 40.2004C38.592 38.09 42.0065 35.3586 44.3804 32.2262C46.7544 29.0938 48.0917 25.5294 47.5856 21.8831C47.3224 19.9957 46.1903 18.6709 44.7127 17.9249ZM11.283 40.5572L9.58269 43.7564L11.36 44.701L13.0604 41.5018C12.7536 41.3641 12.4469 41.2264 12.1507 41.069C11.8545 40.9115 11.5687 40.7344 11.283 40.5572ZM7.42355 44.8882L6.01942 45.0284L8.04682 48.7905L12.2993 48.3661L11.6299 47.1238L7.42355 44.8882ZM4.42684 46.3094L2.83147 49.3111L5.88045 49.0068L4.42684 46.3094ZM12.1286 50.4028L9.07965 50.7071L10.5333 53.4045L12.1286 50.4028ZM6.91327 50.9233L2.66075 51.3478L4.68816 55.1099L8.94067 54.6855L6.91327 50.9233Z" fill="black"/>
</svg>
