<svg width="51" height="44" viewBox="0 0 51 44" fill="none" xmlns="http://www.w3.org/2000/svg">
<path d="M43.7681 15.3885C44.0348 13.6833 42.6137 11.8658 39.7665 10.2706C37.0714 8.76052 33.3694 7.58199 29.3423 6.95204C25.3153 6.32211 21.4301 6.3138 18.4025 6.92867C15.2043 7.57825 13.296 8.87495 13.0293 10.5801C12.7626 12.2852 14.1837 14.1027 17.0308 15.698C19.726 17.2081 23.428 18.3866 27.4551 19.0165C31.4821 19.6465 35.3672 19.6548 38.3948 19.0399C41.5931 18.3903 43.5014 17.0935 43.7681 15.3885ZM38.1862 18.013C35.2775 18.6036 31.524 18.5925 27.6169 17.9813C23.7098 17.3701 20.1322 16.2346 17.5429 14.7838C15.141 13.4381 13.8731 11.9648 14.0644 10.742C14.2557 9.51919 15.9129 8.5035 18.611 7.95556C21.5195 7.36492 25.2731 7.37619 29.1802 7.98737C33.0873 8.59855 36.665 9.73408 39.2543 11.1847C41.6563 12.5305 42.9241 14.0037 42.7328 15.2265C42.5416 16.4494 40.8844 17.4651 38.1862 18.013Z" fill="black"/>
<path d="M46.764 11.648C43.0216 8.21525 37.123 5.78749 29.7058 4.62723C22.2886 3.46698 15.9304 3.97734 11.3187 6.10336C6.63606 8.26189 3.74386 12.0689 2.95481 17.1132C2.1546 22.2287 3.71672 27.2357 7.35348 31.2117C11.1938 35.4102 17.0444 38.2272 24.273 39.3579C31.5016 40.4887 37.9331 39.593 42.872 36.7678C47.5492 34.0923 50.5659 29.8015 51.3661 24.686C52.1551 19.6418 50.5638 15.1334 46.764 11.648ZM4.64662 14.6399C5.08701 15.2634 5.45328 15.975 5.71974 16.732C6.74343 19.6411 6.1023 22.6067 4.30668 23.6262C3.76649 21.5817 3.65166 19.4383 3.99005 17.2751C4.13466 16.3506 4.35468 15.4716 4.64662 14.6399ZM42.3518 35.8582C37.6217 38.5641 31.426 39.4163 24.4351 38.3227C17.4441 37.2291 11.8047 34.5256 8.12676 30.5045C6.50995 28.7368 5.32985 26.7537 4.61399 24.6469C5.75323 24.0911 6.59439 22.9906 6.99976 21.5064C7.42552 19.9473 7.32203 18.1282 6.70831 16.3841C6.33306 15.3178 5.77759 14.3295 5.10032 13.5125C5.49238 12.655 5.96956 11.8562 6.53181 11.1216C7.83272 9.42183 9.59084 8.0536 11.7574 7.05481C16.181 5.0157 22.3315 4.53415 29.544 5.66239C36.7565 6.79062 42.4662 9.12731 46.0557 12.42C47.8138 14.0326 49.0702 15.8724 49.7898 17.8884C50.1008 18.7595 50.3113 19.6659 50.4227 20.6022C49.5283 21.1735 48.6976 21.9449 48.0146 22.8457C46.8977 24.319 46.2435 26.0196 46.1728 27.6342C46.1056 29.1713 46.5705 30.4762 47.4856 31.3532C46.1606 33.1406 44.4312 34.6687 42.3518 35.8582ZM48.0898 30.4751C46.6913 28.956 46.9865 25.9362 48.8496 23.4788C49.3345 22.8393 49.9006 22.2736 50.5104 21.8144C50.5344 22.6953 50.4755 23.5996 50.3309 24.524C49.9925 26.6873 49.2286 28.6932 48.0898 30.4751Z" fill="black"/>
<path d="M32.4346 25.4693C31.0395 24.1221 29.0595 23.1908 26.8594 22.8467C24.6593 22.5025 22.4894 22.7848 20.7496 23.6414C18.9482 24.5284 17.8144 25.9232 17.557 27.569C17.2995 29.2149 17.9532 30.8893 19.3977 32.284C20.7928 33.6311 22.7728 34.5624 24.9729 34.9066C27.173 35.2508 29.3429 34.9685 31.0827 34.1119C32.8841 33.2248 34.018 31.83 34.2754 30.1842C34.5328 28.5385 33.8791 26.864 32.4346 25.4693ZM25.1348 33.8714C21.0964 33.2396 18.1614 30.485 18.5923 27.7309C19.0231 24.9767 22.659 23.2501 26.6975 23.8818C30.7359 24.5135 33.671 27.2681 33.2402 30.0222C32.8094 32.7764 29.1734 34.5031 25.1348 33.8714Z" fill="black"/>
<path d="M26.4094 25.6955C23.7305 25.2765 21.3006 26.5366 20.9927 28.5046C20.6849 30.4726 22.6139 32.4147 25.2928 32.8337C27.9717 33.2528 30.4017 31.9926 30.7096 30.0246C31.0174 28.0566 29.0884 26.1146 26.4094 25.6955ZM25.4547 31.7985C23.3824 31.4743 21.8131 30.0401 22.028 28.6666C22.2428 27.293 24.1751 26.4066 26.2475 26.7308C28.3199 27.055 29.8892 28.4891 29.6744 29.8627C29.4595 31.2362 27.5272 32.1227 25.4547 31.7985Z" fill="black"/>
<path d="M12.8271 22.1904C11.557 21.9917 10.3239 23.1072 10.0784 24.6769C9.83281 26.2466 10.6663 27.6853 11.9365 27.884C13.2065 28.0827 14.4395 26.9672 14.6851 25.3975C14.9306 23.8278 14.0971 22.3891 12.8271 22.1904ZM12.0984 26.8488C11.411 26.7412 10.96 25.8208 11.1136 24.8388C11.2672 23.8569 11.9776 23.1181 12.6652 23.2256C13.3526 23.3332 13.8034 24.2536 13.6498 25.2356C13.4962 26.2175 12.7858 26.9563 12.0984 26.8488Z" fill="black"/>
<path d="M40.4129 26.5048C39.1428 26.3061 37.9099 27.4216 37.6643 28.9913C37.4188 30.5611 38.2522 31.9998 39.5223 32.1984C40.7924 32.3971 42.0254 31.2817 42.2709 29.7119C42.5165 28.1422 41.6831 26.7035 40.4129 26.5048ZM39.6842 31.1632C38.9968 31.0557 38.5459 30.1352 38.6995 29.1533C38.8531 28.1714 39.5636 27.4325 40.251 27.5401C40.9384 27.6476 41.3893 28.5681 41.2357 29.55C41.0821 30.5319 40.3716 31.2707 39.6842 31.1632Z" fill="black"/>
</svg>
