<svg width="70" height="70" viewBox="0 0 70 70" fill="none" xmlns="http://www.w3.org/2000/svg">
<path d="M37.7267 9.6426C34.8452 8.30264 31.8804 7.35546 29.104 9.52846C27.0841 11.109 26.3684 13.6875 27.2489 16.0277C20.0413 14.6083 14.2962 20.6065 16.3646 27.6378C10.6608 27.0409 7.70357 34.9773 11.1669 39.0217C9.11788 40.2407 8.20202 42.2778 8.90734 44.7498C9.95503 48.4219 13.9932 49.9672 17.3152 50.8703C25.9337 53.2133 35.8239 52.5146 43.7552 48.2717C43.9324 50.0979 44.4666 52.0852 46.4511 52.6754C48.4334 53.2651 50.097 51.5073 51.376 50.2789C52.79 48.9206 54.9503 46.8978 54.4721 44.69C54.0525 42.7539 52.0255 41.7322 50.1908 41.482C54.376 33.6794 52.8152 22.8389 49.7817 14.8577C47.9913 10.1461 42.3192 5.36976 37.7267 9.6426ZM50.2651 23.7115C51.3969 29.848 51.5509 35.6398 48.7776 41.4256C48.5373 41.9269 48.9482 42.3442 49.3682 42.3465C49.3747 42.3499 49.3749 42.3579 49.3817 42.3609C49.6553 42.4897 49.9265 42.6205 50.2062 42.7347C51.8237 43.3961 52.3621 43.2595 52.7238 45.0488C53.0086 46.4573 53.005 46.3598 52.2462 47.3718C51.777 47.9977 51.2726 48.5453 50.7158 49.0955C50.1249 49.6792 49.1791 50.8642 48.3693 51.1312C46.8743 51.6244 45.7313 50.8547 45.1586 49.5994C44.8917 49.0148 44.7363 48.4218 44.5823 47.8067C44.9458 47.4959 44.6305 46.7814 44.1285 46.9666C39.14 48.8084 34.2594 50.3593 28.8899 50.591C26.003 50.7157 23.0984 50.5223 20.2576 49.989C17.1981 49.4145 5.15288 46.366 11.949 39.6891C12.0735 39.5668 12.0918 39.4282 12.0692 39.2949C12.2308 39.1426 12.3168 38.902 12.1844 38.67C11.0368 36.661 10.5279 34.2741 11.6824 32.1282C12.836 29.9842 14.783 29.5617 16.9213 28.942C17.0362 28.9087 17.123 28.8417 17.1947 28.7632C17.4376 28.7073 17.643 28.4822 17.5804 28.1486C17.05 25.3243 17.2981 22.4031 19.125 20.0666C21.3597 17.209 24.0401 17.4696 27.2691 17.4524C27.7946 17.4497 28.0285 16.9226 27.9075 16.5113C27.9991 16.4457 28.0717 16.3574 28.0638 16.2354C27.9181 14.0358 28.4542 11.7753 30.4444 10.5321C32.7099 9.11688 34.8408 10.0747 37.0378 11.0225C37.3617 11.1623 37.662 11.076 37.8753 10.8937C38.0178 10.9279 38.1745 10.9076 38.3259 10.8062C46.73 5.18155 49.2603 18.2631 50.2651 23.7115Z" fill="black"/>
<path d="M36.1063 44.443C29.4431 43.5392 23.1677 42.6268 16.7523 40.5052C16.47 40.412 16.286 40.8819 16.5652 40.9979C22.5768 43.4934 29.4765 45.3243 36.0317 45.1534C36.4265 45.1431 36.5232 44.4996 36.1063 44.443Z" fill="black"/>
<path d="M20.8066 29.9367C20.4601 29.7741 20.1985 30.2594 20.5252 30.4604C26.7871 34.3121 33.7448 38.0024 40.6638 40.5196C41.0476 40.6591 41.2525 40.053 40.9123 39.8648C34.4322 36.2766 27.5136 33.0867 20.8066 29.9367Z" fill="black"/>
<path d="M30.5431 21.8843C34.5813 27.063 38.5807 32.0107 42.0292 37.6249C42.2147 37.927 42.6551 37.6542 42.4971 37.3446C39.5812 31.634 35.832 25.837 31.1439 21.404C30.838 21.1149 30.2662 21.5294 30.5431 21.8843Z" fill="black"/>
<path d="M38.9049 16.1927C42.5037 22.3401 44.9742 28.2744 45.5844 35.4541C45.6236 35.9168 46.3268 35.9091 46.3114 35.4368C46.0866 28.5267 44.0584 21.2061 39.7747 15.6714C39.3856 15.1687 38.5664 15.6143 38.9049 16.1927Z" fill="black"/>
</svg>
