<svg width="32" height="32" viewBox="0 0 32 32" fill="none" xmlns="http://www.w3.org/2000/svg">
<path fill-rule="evenodd" clip-rule="evenodd" d="M9.95337 1.42198C11.5174 1.34998 12.016 1.33398 16 1.33398C19.984 1.33398 20.4827 1.35132 22.0454 1.42198C23.608 1.49265 24.6747 1.74198 25.608 2.10332C26.5854 2.47265 27.472 3.04998 28.2054 3.79665C28.952 4.52865 29.528 5.41398 29.896 6.39265C30.2587 7.32598 30.5067 8.39265 30.5787 9.95265C30.6507 11.5193 30.6667 12.018 30.6667 16.0007C30.6667 19.9847 30.6494 20.4833 30.5787 22.0473C30.508 23.6073 30.2587 24.674 29.896 25.6073C29.528 26.5861 28.9511 27.4729 28.2054 28.206C27.472 28.9527 26.5854 29.5287 25.608 29.8967C24.6747 30.2593 23.608 30.5073 22.048 30.5793C20.4827 30.6513 19.984 30.6673 16 30.6673C12.016 30.6673 11.5174 30.65 9.95337 30.5793C8.39337 30.5087 7.32671 30.2593 6.39337 29.8967C5.4146 29.5286 4.5278 28.9517 3.79471 28.206C3.04855 27.4735 2.47113 26.5872 2.10271 25.6087C1.74137 24.6753 1.49337 23.6087 1.42137 22.0487C1.34937 20.482 1.33337 19.9833 1.33337 16.0007C1.33337 12.0167 1.35071 11.518 1.42137 9.95532C1.49204 8.39265 1.74137 7.32598 2.10271 6.39265C2.47167 5.41409 3.04953 4.52774 3.79604 3.79532C4.52809 3.04932 5.414 2.47191 6.39204 2.10332C7.32537 1.74198 8.39204 1.49398 9.95204 1.42198H9.95337ZM21.9267 4.06198C20.38 3.99132 19.916 3.97665 16 3.97665C12.084 3.97665 11.62 3.99132 10.0734 4.06198C8.64271 4.12732 7.86671 4.36598 7.34937 4.56732C6.66537 4.83398 6.17604 5.14998 5.66271 5.66332C5.1761 6.13672 4.80161 6.71303 4.56671 7.34998C4.36537 7.86732 4.12671 8.64332 4.06137 10.074C3.99071 11.6207 3.97604 12.0847 3.97604 16.0007C3.97604 19.9167 3.99071 20.3807 4.06137 21.9273C4.12671 23.358 4.36537 24.134 4.56671 24.6513C4.80137 25.2873 5.17604 25.8647 5.66271 26.338C6.13604 26.8247 6.71337 27.1993 7.34937 27.434C7.86671 27.6353 8.64271 27.874 10.0734 27.9393C11.62 28.01 12.0827 28.0247 16 28.0247C19.9174 28.0247 20.38 28.01 21.9267 27.9393C23.3574 27.874 24.1334 27.6353 24.6507 27.434C25.3347 27.1673 25.824 26.8513 26.3374 26.338C26.824 25.8647 27.1987 25.2873 27.4334 24.6513C27.6347 24.134 27.8734 23.358 27.9387 21.9273C28.0094 20.3807 28.024 19.9167 28.024 16.0007C28.024 12.0847 28.0094 11.6207 27.9387 10.074C27.8734 8.64332 27.6347 7.86732 27.4334 7.34998C27.1667 6.66598 26.8507 6.17665 26.3374 5.66332C25.8639 5.17675 25.2876 4.80227 24.6507 4.56732C24.1334 4.36598 23.3574 4.12732 21.9267 4.06198ZM14.1267 20.522C15.1729 20.9575 16.3379 21.0163 17.4226 20.6883C18.5073 20.3603 19.4446 19.6659 20.0742 18.7236C20.7038 17.7814 20.9868 16.6498 20.8748 15.5221C20.7628 14.3944 20.2627 13.3406 19.46 12.5407C18.9484 12.0293 18.3297 11.6377 17.6485 11.3942C16.9673 11.1506 16.2406 11.0611 15.5207 11.1321C14.8008 11.2031 14.1056 11.4329 13.4851 11.8048C12.8646 12.1768 12.3344 12.6816 11.9324 13.2831C11.5305 13.8846 11.267 14.5677 11.1607 15.2833C11.0545 15.9988 11.1082 16.729 11.3181 17.4213C11.5279 18.1136 11.8887 18.7508 12.3743 19.2869C12.86 19.8231 13.4585 20.2449 14.1267 20.522ZM10.6694 10.67C11.3694 9.96995 12.2005 9.41465 13.1151 9.0358C14.0297 8.65694 15.01 8.46195 16 8.46195C16.99 8.46195 17.9703 8.65694 18.885 9.0358C19.7996 9.41465 20.6307 9.96995 21.3307 10.67C22.0307 11.37 22.586 12.2011 22.9649 13.1157C23.3437 14.0304 23.5387 15.0107 23.5387 16.0007C23.5387 16.9906 23.3437 17.971 22.9649 18.8856C22.586 19.8002 22.0307 20.6313 21.3307 21.3313C19.9169 22.7451 17.9994 23.5394 16 23.5394C14.0007 23.5394 12.0832 22.7451 10.6694 21.3313C9.25559 19.9175 8.46134 18 8.46134 16.0007C8.46134 14.0013 9.25559 12.0838 10.6694 10.67ZM25.2107 9.58465C25.3842 9.42101 25.5231 9.22423 25.6191 9.00595C25.7152 8.78767 25.7665 8.55234 25.7699 8.31389C25.7734 8.07544 25.729 7.83871 25.6394 7.61773C25.5497 7.39675 25.4166 7.196 25.248 7.02737C25.0794 6.85874 24.8786 6.72566 24.6576 6.63601C24.4366 6.54636 24.1999 6.50195 23.9615 6.50543C23.723 6.5089 23.4877 6.56019 23.2694 6.65625C23.0511 6.7523 22.8543 6.89118 22.6907 7.06465C22.3725 7.40202 22.1982 7.85015 22.205 8.31389C22.2117 8.77764 22.399 9.22049 22.7269 9.54844C23.0549 9.87639 23.4977 10.0636 23.9615 10.0704C24.4252 10.0771 24.8733 9.9029 25.2107 9.58465Z" fill="#060606"/>
</svg>
