<svg width="17" height="19" viewBox="0 0 17 19" fill="none" xmlns="http://www.w3.org/2000/svg">
<path d="M16.2256 4.49087C15.0342 4.49084 13.8917 4.01768 13.0493 3.17548C12.2069 2.33328 11.7337 1.19103 11.7337 0H8.52441V12.5637C8.52381 13.1365 8.3429 13.6945 8.00731 14.1588C7.67173 14.6231 7.19849 14.97 6.65468 15.1504C6.11086 15.3307 5.52406 15.3354 4.97744 15.1637C4.43082 14.9921 3.95211 14.6528 3.60915 14.1939C3.2662 13.735 3.0764 13.1799 3.06666 12.6072C3.05692 12.0345 3.22773 11.4732 3.55489 11.0029C3.88204 10.5327 4.34894 10.1773 4.88941 9.98717C5.42987 9.79702 6.0165 9.78175 6.56613 9.94353V6.82465C5.39806 6.66719 4.20975 6.86973 3.15985 7.40522C2.10996 7.94072 1.24847 8.78368 0.690405 9.82155C0.132342 10.8594 -0.0957259 12.0428 0.0366552 13.2137C0.169036 14.3845 0.655566 15.4872 1.43128 16.3743C2.20699 17.2615 3.23496 17.8909 4.37792 18.1786C5.52088 18.4663 6.72444 18.3986 7.82788 17.9844C8.93131 17.5703 9.88211 16.8294 10.5533 15.8608C11.2245 14.8922 11.5841 13.742 11.5842 12.5637L11.6778 6.21313C12.9964 7.18086 14.5901 7.70156 16.2259 7.69912L16.2256 4.49087Z" fill="black"/>
</svg>
