<svg width="17" height="17" viewBox="0 0 17 17" fill="none" xmlns="http://www.w3.org/2000/svg">
<g clip-path="url(#clip0_790_5484)">
<path d="M8.07358 0.00138452C6.71003 0.0198012 3.77612 0.243635 2.13491 1.74743C0.916574 2.95868 0.490866 4.74438 0.441283 6.9558C0.398783 9.15872 0.3492 13.2954 4.33712 14.4223V16.1365C4.33712 16.1365 4.3102 16.8236 4.76353 16.9653C5.32312 17.1423 5.64187 16.6118 6.17312 16.0451L7.16478 14.926C9.89187 15.1526 11.9815 14.6292 12.2223 14.5513C12.7748 14.3742 15.8922 13.9768 16.4022 9.83943C16.9263 5.56747 16.1472 2.8758 14.7447 1.65747L14.7376 1.65605C14.3126 1.26647 12.6126 0.0268845 8.80882 0.0127178C8.80882 0.0127178 8.52833 -0.00499048 8.07358 0.00138452ZM8.12103 1.20343C8.50708 1.2013 8.74437 1.21759 8.74437 1.21759C11.9602 1.22468 13.498 2.19509 13.8592 2.52093C15.0422 3.53313 15.6499 5.96059 15.2051 9.52776C14.7801 12.9844 12.2513 13.204 11.7838 13.3528C11.5855 13.4165 9.74382 13.8698 7.42616 13.7211C7.42616 13.7211 5.69853 15.8043 5.1602 16.3426C5.0752 16.4347 4.97603 16.4631 4.91228 16.4489C4.8202 16.4276 4.79187 16.3143 4.79895 16.1585L4.81312 13.3117C1.43366 12.3767 1.63199 8.84776 1.66741 7.00609C1.70991 5.16443 2.05699 3.65426 3.08407 2.63426C4.47028 1.38051 6.9622 1.21051 8.12032 1.20343H8.12103ZM8.37603 3.04509C8.34816 3.045 8.32054 3.05041 8.29477 3.06101C8.26899 3.07161 8.24556 3.0872 8.22582 3.10687C8.20607 3.12655 8.19041 3.14993 8.17972 3.17567C8.16903 3.20141 8.16353 3.22901 8.16353 3.25688C8.16353 3.31324 8.18592 3.36729 8.22577 3.40714C8.26562 3.447 8.31967 3.46938 8.37603 3.46938C8.90264 3.45934 9.42602 3.55369 9.91597 3.747C10.4059 3.9403 10.8527 4.22873 11.2306 4.59563C12.0027 5.34647 12.3788 6.3523 12.393 7.6698C12.393 7.69771 12.3985 7.72534 12.4092 7.75112C12.4198 7.7769 12.4355 7.80033 12.4552 7.82006C12.475 7.83979 12.4984 7.85545 12.5242 7.86613C12.55 7.8768 12.5776 7.8823 12.6055 7.8823V7.87593C12.6618 7.87593 12.7159 7.85354 12.7558 7.81369C12.7956 7.77383 12.818 7.71978 12.818 7.66343C12.8443 7.04384 12.7441 6.42538 12.5237 5.84573C12.3033 5.26607 11.9672 4.73735 11.5359 4.29176C10.693 3.47009 9.62908 3.04509 8.37533 3.04509H8.37603ZM5.57528 3.53384C5.42465 3.51238 5.27117 3.54232 5.13966 3.61884H5.13116C4.84074 3.78884 4.57299 4.00134 4.31799 4.28468C4.12674 4.51134 4.01978 4.7373 3.99145 4.95688C3.97478 5.08567 3.98688 5.21655 4.02687 5.34009L4.04103 5.34718C4.25936 5.98903 4.54425 6.60628 4.89103 7.18884C5.34055 8.00472 5.89283 8.75958 6.53437 9.43497L6.55562 9.4633L6.58395 9.48455L6.6052 9.5058L6.62645 9.52705C7.30448 10.1702 8.06136 10.7248 8.87895 11.1775C9.81395 11.6875 10.382 11.9283 10.722 12.0275V12.0346C10.8212 12.0629 10.9119 12.0771 11.004 12.0771C11.2942 12.0559 11.569 11.9382 11.7845 11.7427C12.0608 11.4948 12.2804 11.22 12.4433 10.9296V10.9225C12.6062 10.6179 12.5495 10.3268 12.3158 10.1284C11.8447 9.71632 11.3347 9.35099 10.7929 9.03759C10.4316 8.83926 10.0633 8.95968 9.91453 9.15801L9.59578 9.56105C9.43287 9.75938 9.13537 9.73105 9.13537 9.73105L9.12687 9.73813C6.91687 9.17147 6.32895 6.93384 6.32895 6.93384C6.32895 6.93384 6.30062 6.62926 6.50603 6.47343L6.9027 6.15468C7.09395 5.99884 7.22853 5.63051 7.02312 5.26926C6.71014 4.7272 6.34478 4.21712 5.93228 3.74634C5.84256 3.63506 5.71588 3.55966 5.57528 3.53384ZM8.74366 4.16426C8.6873 4.16445 8.63332 4.18702 8.59361 4.227C8.55389 4.26698 8.53168 4.32111 8.53187 4.37747C8.53205 4.43383 8.55462 4.4878 8.59461 4.52752C8.63459 4.56724 8.68872 4.58945 8.74508 4.58926C9.45394 4.60156 10.129 4.89451 10.6222 5.40384C10.8447 5.64929 11.0157 5.93684 11.1252 6.24951C11.2347 6.56218 11.2804 6.89362 11.2597 7.22426C11.2598 7.2805 11.2823 7.33436 11.3221 7.37406C11.362 7.41376 11.4159 7.43605 11.4722 7.43605L11.4792 7.44455C11.5072 7.44455 11.5349 7.43903 11.5607 7.42831C11.5866 7.41758 11.61 7.40187 11.6298 7.38206C11.6495 7.36225 11.6651 7.33874 11.6758 7.31288C11.6864 7.28702 11.6918 7.25931 11.6917 7.23134C11.713 6.38843 11.4509 5.68009 10.9338 5.11343C10.4167 4.54676 9.69424 4.22801 8.77341 4.16426C8.7635 4.16356 8.75356 4.16356 8.74366 4.16426ZM9.09074 5.31105C9.06232 5.31021 9.03402 5.31498 9.00745 5.32508C8.98087 5.33519 8.95655 5.35042 8.93586 5.36992C8.91517 5.38943 8.89853 5.41281 8.88688 5.43875C8.87523 5.46468 8.86881 5.49265 8.86797 5.52107C8.86713 5.54949 8.8719 5.57779 8.882 5.60437C8.89211 5.63094 8.90734 5.65527 8.92684 5.67595C8.94635 5.69664 8.96973 5.71328 8.99567 5.72493C9.0216 5.73658 9.04957 5.74301 9.07799 5.74384C9.77924 5.77926 10.1192 6.13343 10.1617 6.86301C10.1636 6.91813 10.1868 6.97038 10.2264 7.00871C10.2661 7.04704 10.3191 7.06846 10.3742 7.06843H10.3813C10.4099 7.06754 10.4379 7.06091 10.4638 7.04893C10.4898 7.03696 10.513 7.01988 10.5322 6.99873C10.5514 6.97757 10.5661 6.95277 10.5754 6.9258C10.5848 6.89883 10.5887 6.87025 10.5867 6.84176C10.5372 5.89259 10.0201 5.36063 9.09924 5.31105C9.09641 5.311 9.09357 5.311 9.09074 5.31105Z" fill="black"/>
</g>
<defs>
<clipPath id="clip0_790_5484">
<rect width="17" height="17" fill="white"/>
</clipPath>
</defs>
</svg>
