<svg width="17" height="17" viewBox="0 0 17 17" fill="none" xmlns="http://www.w3.org/2000/svg">
<path d="M0.00341137 17L1.15261 12.7772C0.395378 11.4791 -0.00245704 10.0028 1.14174e-05 8.49999C1.14174e-05 3.80545 3.80546 0 8.50001 0C13.1946 0 17 3.80545 17 8.49999C17 13.1945 13.1946 17 8.50001 17C6.99787 17.0024 5.52217 16.6049 4.22451 15.8482L0.00341137 17ZM5.43236 4.5118C5.32259 4.51861 5.21533 4.54752 5.11701 4.5968C5.0248 4.64901 4.94063 4.71429 4.86711 4.7906C4.76511 4.88665 4.70731 4.96995 4.64526 5.0507C4.33111 5.45954 4.16213 5.9614 4.16501 6.477C4.16671 6.8935 4.27551 7.29894 4.44551 7.67804C4.79316 8.44474 5.36521 9.25649 6.12086 10.0087C6.30276 10.1898 6.48041 10.3717 6.67166 10.5408C7.60954 11.3666 8.72717 11.9621 9.93565 12.2799L10.4193 12.3539C10.5766 12.3624 10.7338 12.3505 10.8919 12.3428C11.1395 12.3301 11.3812 12.263 11.6 12.1465C11.7113 12.0892 11.8199 12.0268 11.9255 11.9595C11.9255 11.9595 11.9621 11.9357 12.0318 11.883C12.1465 11.798 12.2171 11.7376 12.3123 11.6382C12.3828 11.5651 12.444 11.4792 12.4908 11.3815C12.5571 11.2429 12.6234 10.9786 12.6506 10.7584C12.671 10.5901 12.665 10.4983 12.6625 10.4414C12.6591 10.3504 12.5834 10.2561 12.501 10.2161L12.0063 9.99429C12.0063 9.99429 11.2668 9.67214 10.8154 9.46644C10.7678 9.4457 10.7168 9.43389 10.665 9.43159C10.6068 9.42562 10.548 9.43216 10.4926 9.45078C10.4372 9.4694 10.3864 9.49967 10.3437 9.53954V9.53784C10.3394 9.53784 10.2825 9.58629 9.6679 10.3309C9.63263 10.3783 9.58405 10.4141 9.52834 10.4338C9.47263 10.4535 9.41232 10.4561 9.3551 10.4414C9.29972 10.4266 9.24547 10.4078 9.19275 10.3853C9.08735 10.3411 9.05081 10.3241 8.97855 10.2926L8.97431 10.2909C8.48803 10.0786 8.0378 9.79186 7.63981 9.44094C7.53271 9.34744 7.43326 9.24544 7.33126 9.14684C6.99685 8.8266 6.70541 8.4643 6.46426 8.06905L6.41411 7.98829C6.37809 7.93403 6.34896 7.8755 6.32741 7.81404C6.29511 7.68909 6.37926 7.5888 6.37926 7.5888C6.37926 7.5888 6.58581 7.36269 6.68186 7.24029C6.76183 7.13857 6.83645 7.03274 6.90541 6.92325C7.00571 6.76175 7.03716 6.596 6.98446 6.46765C6.74646 5.88625 6.49996 5.3074 6.24666 4.7328C6.19651 4.6189 6.04776 4.5373 5.91261 4.52115C5.86671 4.51605 5.82081 4.51095 5.77491 4.50755C5.66076 4.50188 5.54637 4.50301 5.43236 4.51095V4.5118Z" fill="black"/>
</svg>
