<svg width="23" height="15" viewBox="0 0 23 15" fill="none" xmlns="http://www.w3.org/2000/svg">
<path fill-rule="evenodd" clip-rule="evenodd" d="M2.48905 14.5568C2.09679 14.4408 1.73888 14.2343 1.44552 13.9549C1.15216 13.6754 0.931965 13.3312 0.80351 12.9512C0.0694835 10.9874 -0.148006 2.78693 1.26567 1.16807C1.73617 0.641449 2.40045 0.317218 3.11433 0.265759C6.9068 -0.13232 18.624 -0.0792426 19.9698 0.398453C20.3483 0.518323 20.6941 0.720256 20.9813 0.989122C21.2685 1.25799 21.4896 1.58681 21.6281 1.95096C22.4301 3.98117 22.4573 11.3589 21.5194 13.3095C21.2706 13.8173 20.854 14.2285 20.3368 14.4772C18.9231 15.1672 4.3649 15.1539 2.48905 14.5568ZM8.51079 10.7087L15.3073 7.25869L8.51079 3.78213V10.7087Z" fill="#EA3223"/>
</svg>
