<svg width="35" height="35" viewBox="0 0 35 35" fill="none" xmlns="http://www.w3.org/2000/svg">
<rect width="34.5789" height="34.5789" rx="5" fill="url(#paint0_radial)"/>
<path d="M10.8628 8.64359H23.7138C24.0071 8.63642 24.2989 8.68891 24.5713 8.79788C24.8438 8.90685 25.0912 9.07003 25.2987 9.27752C25.5062 9.48501 25.6694 9.73249 25.7784 10.0049C25.8873 10.2774 25.9398 10.5691 25.9327 10.8625V23.7142C25.9398 24.0075 25.8873 24.2993 25.7784 24.5717C25.6694 24.8442 25.5062 25.0916 25.2987 25.2991C25.0912 25.5066 24.8438 25.6698 24.5713 25.7788C24.2989 25.8877 24.0071 25.9402 23.7138 25.9331H10.8628C10.5695 25.9402 10.2778 25.8877 10.0053 25.7788C9.73285 25.6698 9.48538 25.5066 9.27789 25.2991C9.0704 25.0916 8.90722 24.8442 8.79825 24.5717C8.68928 24.2993 8.63679 24.0075 8.64396 23.7142V10.8625C8.63679 10.5691 8.68928 10.2774 8.79825 10.0049C8.90722 9.73249 9.0704 9.48501 9.27789 9.27752C9.48538 9.07003 9.73285 8.90685 10.0053 8.79788C10.2778 8.68891 10.5695 8.63642 10.8628 8.64359ZM21.2386 10.5646C21.0324 10.5652 20.8348 10.6474 20.6891 10.7933C20.5433 10.9392 20.4613 11.1369 20.4609 11.3431V13.2057C20.4613 13.4119 20.5433 13.6096 20.6891 13.7555C20.8348 13.9014 21.0324 13.9836 21.2386 13.9842H23.193C23.3993 13.9836 23.5969 13.9014 23.7428 13.7556C23.8887 13.6097 23.9709 13.412 23.9715 13.2057V11.3431C23.9709 11.1368 23.8887 10.9391 23.7428 10.7933C23.5969 10.6474 23.3993 10.5652 23.193 10.5646H21.2386ZM23.9791 15.9552H22.4576C22.6049 16.4357 22.6798 16.9355 22.6797 17.438C22.6572 18.8411 22.0785 20.1777 21.0707 21.1542C20.063 22.1306 18.7088 22.667 17.3057 22.6453C15.9024 22.6674 14.5477 22.1311 13.5398 21.1544C12.5318 20.1777 11.9531 18.8406 11.931 17.4373C11.9308 16.9347 12.0057 16.4349 12.1531 15.9545H10.5649V23.2578C10.5653 23.44 10.6379 23.6147 10.7668 23.7436C10.8956 23.8724 11.0703 23.945 11.2525 23.9454H23.2923C23.4745 23.945 23.6492 23.8724 23.778 23.7436C23.9069 23.6147 23.9794 23.44 23.9798 23.2578V15.9552H23.9791ZM17.308 13.8865C16.4015 13.8725 15.5266 14.219 14.8756 14.8499C14.2245 15.4808 13.8506 16.3443 13.836 17.2508C13.8506 18.1573 14.2245 19.0208 14.8756 19.6517C15.5266 20.2826 16.4015 20.6291 17.308 20.6151C18.2146 20.6293 19.0897 20.2829 19.741 19.652C20.3922 19.0211 20.7662 18.1574 20.7808 17.2508C20.7736 16.8016 20.6779 16.3583 20.4993 15.9461C20.3207 15.5339 20.0627 15.161 19.7399 14.8485C19.4171 14.5361 19.0359 14.2903 18.6182 14.1252C18.2004 13.9602 17.7541 13.879 17.305 13.8865H17.308Z" fill="white"/>
<defs>
<radialGradient id="paint0_radial" cx="0" cy="0" r="1" gradientUnits="userSpaceOnUse" gradientTransform="translate(7.08848 30.2192) scale(38.1345)">
<stop stop-color="#FBCE0E"/>
<stop offset="0.1829" stop-color="#FCB720"/>
<stop offset="0.2514" stop-color="#FE9838"/>
<stop offset="0.3054" stop-color="#FF7950"/>
<stop offset="0.4922" stop-color="#FF1C74"/>
<stop offset="1" stop-color="#6C1CD1"/>
</radialGradient>
</defs>
</svg>
