<svg width="67" height="20" viewBox="0 0 67 20" fill="none" xmlns="http://www.w3.org/2000/svg">
<path fill-rule="evenodd" clip-rule="evenodd" d="M18.0544 3.80517e-07V0.008734C18.0461 0.008734 15.4373 3.33161e-07 14.7417 2.62882C14.104 5.0393 12.3068 11.6943 12.2571 11.8777H11.7602C11.7602 11.8777 9.92163 5.07424 9.27565 2.62009C8.57998 -0.00873332 5.96292 3.80517e-07 5.96292 3.80517e-07H0V20H5.96292V8.12227H6.21137H6.45983L9.9382 20H14.0791L17.5575 8.131H18.0544V20H24.0173V3.80517e-07H18.0544Z" fill="#4DB45E"/>
<path fill-rule="evenodd" clip-rule="evenodd" d="M39.8356 0C39.8356 0 38.0882 0.165939 37.2683 2.09607L33.0445 11.8777H32.5476V0H26.5847V20H32.2164C32.2164 20 34.0466 19.8253 34.8665 17.9039L39.0075 8.12227H39.5044V20H45.4673V0H39.8356Z" fill="#4DB45E"/>
<path fill-rule="evenodd" clip-rule="evenodd" d="M48.1174 9.08301V20H54.0803V13.6245H60.5402C63.356 13.6245 65.7412 11.7293 66.6273 9.08301H48.1174Z" fill="#4DB45E"/>
<path fill-rule="evenodd" clip-rule="evenodd" d="M60.5402 0H47.281C47.9436 3.80786 50.6517 6.86463 54.1549 7.86026C54.95 8.08734 55.7864 8.20961 56.6477 8.20961H66.8675C66.9586 7.75546 67 7.29258 67 6.81223C67 3.04804 64.1097 0 60.5402 0Z" fill="url(#paint0_linear)"/>
<defs>
<linearGradient id="paint0_linear" x1="47.2826" y1="4.1048" x2="67" y2="4.1048" gradientUnits="userSpaceOnUse">
<stop offset="0.3" stop-color="#00B4E6"/>
<stop offset="1" stop-color="#088CCB"/>
</linearGradient>
</defs>
</svg>
