<svg width="45" height="27" viewBox="0 0 45 27" fill="none" xmlns="http://www.w3.org/2000/svg">
<path d="M45 13.5C45 20.9286 39 27 31.5 27C24.0714 27 18 20.9286 18 13.5C18 6.07143 24 0 31.4286 0C39 0 45 6.07143 45 13.5Z" fill="#FFB600"/>
<path d="M31.5 0C38.9285 0 45 6.07143 45 13.5C45 20.9286 39 27 31.5 27C24.0714 27 18 20.9286 18 13.5" fill="#F7981D"/>
<path d="M31.5 0C38.9286 0 45 6.07143 45 13.5C45 20.9286 39 27 31.5 27" fill="#FF8500"/>
<path d="M13.3571 0C6 0.0714286 0 6.07143 0 13.5C0 20.9286 6 27 13.5 27C17 27 20.1429 25.6429 22.5714 23.5C23.0714 23.0714 23.5 22.5714 23.9286 22.0714H21.1429C20.7857 21.6429 20.4286 21.1429 20.1429 20.7143H24.9286C25.2143 20.2857 25.5 19.7857 25.7143 19.2857H19.3571C19.1429 18.8571 18.9286 18.3571 18.7857 17.8571H26.2143C26.6429 16.5 26.9286 15.0714 26.9286 13.5714C26.9286 12.5714 26.7857 11.6429 26.6429 10.7143H18.3571C18.4286 10.2143 18.5714 9.78571 18.7143 9.28571H26.1429C26 8.78571 25.7857 8.28571 25.5714 7.85714H19.2857C19.5 7.35714 19.7857 6.92857 20.0714 6.42857H24.8571C24.5714 5.92857 24.2143 5.42857 23.7857 5H21.1429C21.5714 4.5 22 4.07143 22.5 3.64286C20.1429 1.42857 16.9286 0.142857 13.4286 0.142857C13.4286 -1.38368e-07 13.4286 0 13.3571 0Z" fill="#FF5050"/>
<path d="M0 13.5C0 20.9285 6 27 13.5 27C17 27 20.1429 25.6428 22.5714 23.5C23.0714 23.0714 23.5 22.5714 23.9286 22.0714H21.1429C20.7857 21.6428 20.4286 21.1428 20.1429 20.7142H24.9286C25.2143 20.2857 25.5 19.7857 25.7143 19.2857H19.3571C19.1429 18.8571 18.9286 18.3571 18.7857 17.8571H26.2143C26.6429 16.5 26.9286 15.0714 26.9286 13.5714C26.9286 12.5714 26.7857 11.6428 26.6429 10.7143H18.3571C18.4286 10.2143 18.5714 9.78568 18.7143 9.28568H26.1429C26 8.78568 25.7857 8.28568 25.5714 7.85711H19.2857C19.5 7.35711 19.7857 6.92854 20.0714 6.42854H24.8571C24.5714 5.92854 24.2143 5.42854 23.7857 4.99997H21.1429C21.5714 4.49997 22 4.07139 22.5 3.64282C20.1429 1.42854 16.9286 0.142822 13.4286 0.142822H13.3571" fill="#E52836"/>
<path d="M13.4998 27C16.9998 27 20.1426 25.6428 22.5712 23.5C23.0712 23.0714 23.4998 22.5714 23.9284 22.0714H21.1426C20.7855 21.6428 20.4284 21.1428 20.1426 20.7142H24.9284C25.2141 20.2857 25.4998 19.7857 25.7141 19.2857H19.3569C19.1426 18.8571 18.9284 18.3571 18.7855 17.8571H26.2141C26.6426 16.5 26.9284 15.0714 26.9284 13.5714C26.9284 12.5714 26.7855 11.6428 26.6426 10.7143H18.3569C18.4284 10.2143 18.5712 9.78568 18.7141 9.28568H26.1426C25.9998 8.78568 25.7855 8.28568 25.5712 7.85711H19.2855C19.4998 7.35711 19.7855 6.92854 20.0712 6.42854H24.8569C24.5712 5.92854 24.2141 5.42854 23.7855 4.99997H21.1426C21.5712 4.49997 21.9998 4.07139 22.4998 3.64282C20.1426 1.42854 16.9284 0.142822 13.4284 0.142822H13.3569" fill="#CB2026"/>
<path d="M18.2858 16.9287L18.5001 15.7144C18.4286 15.7144 18.2858 15.7858 18.1429 15.7858C17.6429 15.7858 17.5715 15.5001 17.6429 15.3572L18.0715 12.8572H18.8572L19.0715 11.5001H18.3572L18.5001 10.6429H17.0715C17.0715 10.6429 16.2144 15.3572 16.2144 15.9287C16.2144 16.7858 16.7144 17.1429 17.3572 17.1429C17.7858 17.1429 18.1429 17.0001 18.2858 16.9287Z" fill="white"/>
<path d="M18.7856 14.6429C18.7856 16.6429 20.1428 17.1429 21.2856 17.1429C22.3571 17.1429 22.7856 16.9286 22.7856 16.9286L23.0714 15.5715C23.0714 15.5715 22.2856 15.9286 21.5714 15.9286C19.9999 15.9286 20.2856 14.7857 20.2856 14.7857H23.2142C23.2142 14.7857 23.4285 13.8572 23.4285 13.5C23.4285 12.5715 22.9285 11.4286 21.3571 11.4286C19.8571 11.2857 18.7856 12.8572 18.7856 14.6429ZM21.2856 12.5715C22.0714 12.5715 21.9285 13.5 21.9285 13.5715H20.3571C20.3571 13.5 20.4999 12.5715 21.2856 12.5715Z" fill="white"/>
<path d="M30.357 16.9286L30.6428 15.3571C30.6428 15.3571 29.9285 15.7143 29.4285 15.7143C28.4285 15.7143 27.9999 14.9286 27.9999 14.0714C27.9999 12.3571 28.857 11.4286 29.857 11.4286C30.5713 11.4286 31.1428 11.8571 31.1428 11.8571L31.357 10.3571C31.357 10.3571 30.4999 10 29.7142 10C28.0713 10 26.4285 11.4286 26.4285 14.1428C26.4285 15.9286 27.2856 17.1428 28.9999 17.1428C29.5713 17.1428 30.357 16.9286 30.357 16.9286Z" fill="white"/>
<path d="M10.4284 11.2856C9.42839 11.2856 8.71411 11.5714 8.71411 11.5714L8.49982 12.7856C8.49982 12.7856 9.14268 12.4999 10.0713 12.4999C10.5712 12.4999 10.9998 12.5714 10.9998 12.9999C10.9998 13.2856 10.9284 13.3571 10.9284 13.3571C10.9284 13.3571 10.4998 13.3571 10.2855 13.3571C9.07125 13.3571 7.71411 13.8571 7.71411 15.4999C7.71411 16.7856 8.57125 17.0713 9.07125 17.0713C10.0712 17.0713 10.4998 16.4285 10.5712 16.4285L10.4998 16.9999H11.7855L12.357 13.0714C12.357 11.3571 10.9284 11.2856 10.4284 11.2856ZM10.7141 14.4999C10.7141 14.7142 10.5712 15.8571 9.71411 15.8571C9.28554 15.8571 9.14268 15.4999 9.14268 15.2856C9.14268 14.9285 9.35697 14.4285 10.4284 14.4285C10.6427 14.4999 10.7141 14.4999 10.7141 14.4999Z" fill="white"/>
<path d="M13.7141 17.0715C14.0713 17.0715 15.857 17.1429 15.857 15.2144C15.857 13.4286 14.1427 13.7858 14.1427 13.0715C14.1427 12.7144 14.4284 12.5715 14.9284 12.5715C15.1427 12.5715 15.9284 12.6429 15.9284 12.6429L16.1427 11.3572C16.1427 11.3572 15.6427 11.2144 14.7856 11.2144C13.7141 11.2144 12.6427 11.6429 12.6427 13.0715C12.6427 14.7144 14.4284 14.5715 14.4284 15.2144C14.4284 15.6429 13.9284 15.7143 13.5713 15.7143C12.9284 15.7143 12.2856 15.5001 12.2856 15.5001L12.0713 16.7858C12.1427 16.9286 12.4999 17.0715 13.7141 17.0715Z" fill="white"/>
<path d="M42.2142 10.1428L41.9285 12.0714C41.9285 12.0714 41.3571 11.3571 40.5714 11.3571C39.2857 11.3571 38.1428 12.9285 38.1428 14.7857C38.1428 15.9285 38.7143 17.1428 39.9285 17.1428C40.7857 17.1428 41.2857 16.5714 41.2857 16.5714L41.2142 17.0714H42.6428L43.7142 10.2143L42.2142 10.1428ZM41.5714 13.9285C41.5714 14.7143 41.2142 15.7143 40.4285 15.7143C39.9285 15.7143 39.6428 15.2857 39.6428 14.5714C39.6428 13.4285 40.1428 12.7143 40.7857 12.7143C41.2857 12.7143 41.5714 13.0714 41.5714 13.9285Z" fill="white"/>
<path d="M2.64279 17L3.49993 11.8571L3.64279 17H4.64279L6.49993 11.8571L5.71422 17H7.21422L8.35707 10.1428H5.99993L4.57136 14.3571L4.49993 10.1428H2.4285L1.28564 17H2.64279Z" fill="white"/>
<path d="M24.7855 17C25.2141 14.6429 25.2855 12.7143 26.2855 13.0714C26.4284 12.1429 26.6427 11.7857 26.7855 11.4286C26.7855 11.4286 26.7141 11.4286 26.4998 11.4286C25.857 11.4286 25.357 12.2857 25.357 12.2857L25.4998 11.5H24.1427L23.2141 17.0714H24.7855V17Z" fill="white"/>
<path d="M33.6428 11.2856C32.6428 11.2856 31.9285 11.5714 31.9285 11.5714L31.7142 12.7856C31.7142 12.7856 32.357 12.4999 33.2856 12.4999C33.7856 12.4999 34.2142 12.5714 34.2142 12.9999C34.2142 13.2856 34.1428 13.3571 34.1428 13.3571C34.1428 13.3571 33.7142 13.3571 33.4999 13.3571C32.2856 13.3571 30.9285 13.8571 30.9285 15.4999C30.9285 16.7856 31.7856 17.0713 32.2856 17.0713C33.2856 17.0713 33.7142 16.4285 33.7856 16.4285L33.7142 16.9999H34.9999L35.5713 13.0714C35.6428 11.3571 34.1428 11.2856 33.6428 11.2856ZM33.9999 14.4999C33.9999 14.7142 33.857 15.8571 32.9999 15.8571C32.5713 15.8571 32.4285 15.4999 32.4285 15.2856C32.4285 14.9285 32.6428 14.4285 33.7142 14.4285C33.9285 14.4999 33.9285 14.4999 33.9999 14.4999Z" fill="white"/>
<path d="M36.7855 17C37.2141 14.6429 37.2855 12.7143 38.2855 13.0714C38.4284 12.1429 38.6427 11.7857 38.7855 11.4286C38.7855 11.4286 38.7141 11.4286 38.4998 11.4286C37.857 11.4286 37.357 12.2857 37.357 12.2857L37.4998 11.5H36.1427L35.2141 17.0714H36.7855V17Z" fill="white"/>
<path d="M16.0713 15.9287C16.0713 16.7858 16.5713 17.1429 17.2141 17.1429C17.7141 17.1429 18.1427 17.0001 18.2856 16.9287L18.4999 15.7144C18.4284 15.7144 18.2856 15.7858 18.1427 15.7858C17.6427 15.7858 17.5713 15.5001 17.6427 15.3572L18.0713 12.8572H18.857L19.0713 11.5001H18.357L18.4999 10.6429" fill="#DCE5E5"/>
<path d="M19.5 14.6429C19.5 16.6429 20.1429 17.1429 21.2857 17.1429C22.3571 17.1429 22.7857 16.9286 22.7857 16.9286L23.0714 15.5715C23.0714 15.5715 22.2857 15.9286 21.5714 15.9286C20 15.9286 20.2857 14.7857 20.2857 14.7857H23.2143C23.2143 14.7857 23.4286 13.8572 23.4286 13.5C23.4286 12.5715 22.9286 11.4286 21.3571 11.4286C19.8571 11.2857 19.5 12.8572 19.5 14.6429ZM21.2857 12.5715C22.0714 12.5715 22.2143 13.5 22.2143 13.5715H20.3571C20.3571 13.5 20.5 12.5715 21.2857 12.5715Z" fill="#DCE5E5"/>
<path d="M30.3571 16.9286L30.6428 15.3571C30.6428 15.3571 29.9285 15.7143 29.4285 15.7143C28.4285 15.7143 28 14.9286 28 14.0714C28 12.3571 28.8571 11.4286 29.8571 11.4286C30.5714 11.4286 31.1428 11.8571 31.1428 11.8571L31.3571 10.3571C31.3571 10.3571 30.5 10 29.7142 10C28.0714 10 27.1428 11.4286 27.1428 14.1428C27.1428 15.9286 27.2857 17.1428 29 17.1428C29.5714 17.1428 30.3571 16.9286 30.3571 16.9286Z" fill="#DCE5E5"/>
<path d="M8.49982 12.8572C8.49982 12.8572 9.14268 12.5714 10.0713 12.5714C10.5712 12.5714 10.9998 12.6429 10.9998 13.0714C10.9998 13.3572 10.9284 13.4286 10.9284 13.4286C10.9284 13.4286 10.4998 13.4286 10.2855 13.4286C9.07125 13.4286 7.71411 13.9286 7.71411 15.5714C7.71411 16.8571 8.57125 17.1429 9.07125 17.1429C10.0712 17.1429 10.4998 16.5 10.5712 16.5L10.4998 17.0714H11.7855L12.357 13.1429C12.357 11.5 10.9284 11.4286 10.357 11.4286L8.49982 12.8572ZM11.4284 14.5C11.4284 14.7143 10.5712 15.8571 9.71411 15.8571C9.28554 15.8571 9.14268 15.5 9.14268 15.2857C9.14268 14.9286 9.35697 14.4286 10.4284 14.4286C10.6427 14.5 11.4284 14.5 11.4284 14.5Z" fill="#DCE5E5"/>
<path d="M12.1426 16.9286C12.1426 16.9286 12.5711 17.0715 13.7854 17.0715C14.1426 17.0715 15.9283 17.1429 15.9283 15.2144C15.9283 13.4286 14.214 13.7858 14.214 13.0715C14.214 12.7144 14.4997 12.5715 14.9997 12.5715C15.214 12.5715 15.9997 12.6429 15.9997 12.6429L16.214 11.3572C16.214 11.3572 15.714 11.2144 14.8569 11.2144C13.7854 11.2144 13.4283 11.6429 13.4283 13.0715C13.4283 14.7144 14.4997 14.5715 14.4997 15.2144C14.4997 15.6429 13.9997 15.7143 13.6426 15.7143" fill="#DCE5E5"/>
<path d="M41.9284 12.0714C41.9284 12.0714 41.357 11.3571 40.5713 11.3571C39.2856 11.3571 38.857 12.9285 38.857 14.7857C38.857 15.9285 38.7141 17.1428 39.9284 17.1428C40.7856 17.1428 41.2856 16.5714 41.2856 16.5714L41.2141 17.0714H42.6427L43.7141 10.2142L41.9284 12.0714ZM41.857 13.9285C41.857 14.7142 41.2141 15.7142 40.4284 15.7142C39.9284 15.7142 39.6427 15.2857 39.6427 14.5714C39.6427 13.4285 40.1427 12.7142 40.7856 12.7142C41.2856 12.7142 41.857 13.0714 41.857 13.9285Z" fill="#DCE5E5"/>
<path d="M2.64279 17L3.49993 11.8571L3.64279 17H4.64279L6.49993 11.8571L5.71422 17H7.21422L8.35707 10.1428H6.57136L4.57136 14.3571L4.49993 10.1428H3.71422L1.28564 17H2.64279Z" fill="#DCE5E5"/>
<path d="M23.2856 17H24.7856C25.2142 14.6429 25.2856 12.7143 26.2856 13.0714C26.4285 12.1429 26.6428 11.7857 26.7856 11.4286C26.7856 11.4286 26.7142 11.4286 26.4999 11.4286C25.8571 11.4286 25.3571 12.2857 25.3571 12.2857L25.4999 11.5" fill="#DCE5E5"/>
<path d="M31.7142 12.8572C31.7142 12.8572 32.357 12.5714 33.2856 12.5714C33.7856 12.5714 34.2142 12.6429 34.2142 13.0714C34.2142 13.3572 34.1428 13.4286 34.1428 13.4286C34.1428 13.4286 33.7142 13.4286 33.4999 13.4286C32.2856 13.4286 30.9285 13.9286 30.9285 15.5714C30.9285 16.8571 31.7856 17.1429 32.2856 17.1429C33.2856 17.1429 33.7142 16.5 33.7856 16.5L33.7142 17.0714H34.9999L35.5713 13.1429C35.5713 11.5 34.1428 11.4286 33.5713 11.4286L31.7142 12.8572ZM34.6428 14.5C34.6428 14.7143 33.7856 15.8571 32.9285 15.8571C32.4999 15.8571 32.357 15.5 32.357 15.2857C32.357 14.9286 32.5713 14.4286 33.6428 14.4286C33.9285 14.5 34.6428 14.5 34.6428 14.5Z" fill="#DCE5E5"/>
<path d="M35.2856 17H36.7856C37.2142 14.6429 37.2856 12.7143 38.2856 13.0714C38.4285 12.1429 38.6428 11.7857 38.7856 11.4286C38.7856 11.4286 38.7142 11.4286 38.4999 11.4286C37.8571 11.4286 37.3571 12.2857 37.3571 12.2857L37.4999 11.5" fill="#DCE5E5"/>
</svg>
