<svg width="35" height="36" viewBox="0 0 35 36" fill="none" xmlns="http://www.w3.org/2000/svg">
<rect y="0.427734" width="34.5789" height="34.5789" rx="5" fill="#004170"/>
<path d="M26.6322 22.8356C26.6133 22.7906 26.5923 22.7468 26.5691 22.7042C26.0576 21.8348 25.43 21.0515 24.7066 20.3796L24.6875 20.3583L24.678 20.348L24.6685 20.3377H24.6589C24.2431 19.9098 23.9799 19.6222 23.8693 19.475C23.7742 19.3613 23.7108 19.221 23.6867 19.0701C23.6625 18.9192 23.6785 18.764 23.7328 18.6226C23.9805 18.1311 24.2757 17.6692 24.6134 17.2446C24.88 16.8752 25.0914 16.5771 25.2474 16.3502C26.3726 14.7372 26.8602 13.7064 26.71 13.2579L26.652 13.1526C26.5701 13.0628 26.4645 13.0023 26.3497 12.9793C26.1454 12.9245 25.9328 12.9156 25.7252 12.9532L22.9168 12.9738C22.8525 12.9566 22.785 12.9585 22.7216 12.9793L22.5947 13.011L22.5455 13.0371L22.5066 13.0687C22.4653 13.0985 22.4291 13.1357 22.3995 13.1788C22.3587 13.2347 22.3258 13.2969 22.3019 13.3632C22.0104 14.1795 21.6616 14.9707 21.2583 15.7297C21.0177 16.1645 20.7975 16.5415 20.5979 16.8607C20.447 17.1101 20.2774 17.3457 20.0908 17.5651C19.9754 17.6953 19.8516 17.8164 19.7202 17.9276C19.6097 18.0189 19.5253 18.0574 19.4671 18.0432L19.3012 18.0012C19.2087 17.9368 19.1329 17.848 19.0811 17.7432C19.0203 17.6153 18.9822 17.4762 18.9688 17.3332C18.9492 17.1681 18.9377 17.0261 18.9343 16.9074C18.9309 16.7887 18.9326 16.6204 18.9394 16.4025C18.9463 16.1851 18.9495 16.0378 18.949 15.9608C18.949 15.6943 18.9539 15.4041 18.9637 15.0902C18.9734 14.7762 18.9815 14.529 18.9879 14.3486C18.9947 14.166 18.9979 13.9731 18.9974 13.77C19.0004 13.6109 18.9888 13.4518 18.9629 13.2951C18.9403 13.1793 18.9061 13.0666 18.8609 12.9587C18.8192 12.855 18.7497 12.767 18.6613 12.7062C18.56 12.6409 18.4498 12.5931 18.3348 12.5646C17.9014 12.4707 17.4603 12.4248 17.0183 12.4277C16.2336 12.3564 15.4435 12.442 14.6876 12.6801C14.5487 12.761 14.4244 12.8683 14.3207 12.9967C14.2038 13.1508 14.1874 13.235 14.2716 13.2492C14.4307 13.261 14.5861 13.3071 14.7285 13.3847C14.871 13.4623 14.9975 13.5699 15.1008 13.7011L15.1595 13.8278C15.2237 13.9821 15.2695 14.1446 15.296 14.3114C15.3441 14.5644 15.3736 14.8211 15.384 15.0791C15.4167 15.5166 15.4167 15.9562 15.384 16.3938C15.3513 16.7584 15.3204 17.0422 15.2916 17.2454C15.2712 17.4165 15.2269 17.5833 15.1602 17.7401C15.1256 17.8197 15.0864 17.8969 15.0428 17.9712C15.0302 17.992 15.0137 18.0098 14.9944 18.0234C14.9103 18.0584 14.821 18.0764 14.7309 18.0764C14.6044 18.0666 14.4837 18.0149 14.3853 17.9284C14.2362 17.811 14.1004 17.675 13.981 17.5232C13.8053 17.2974 13.647 17.0565 13.5076 16.8029C13.332 16.4943 13.15 16.1297 12.9617 15.7091L12.8054 15.4036C12.7075 15.2073 12.5742 14.9216 12.4054 14.5464C12.2367 14.1713 12.0894 13.8085 11.9637 13.4582C11.9198 13.3226 11.838 13.2051 11.7296 13.1218L11.6804 13.0901C11.6322 13.053 11.5797 13.0229 11.5241 13.0007C11.4519 12.9689 11.3765 12.9461 11.2996 12.9326L8.62768 12.9532C8.5271 12.9397 8.425 12.9507 8.32887 12.9854C8.23275 13.02 8.14503 13.0774 8.07217 13.1534L8.03328 13.2168C8.01031 13.2693 8.00021 13.3274 8.00393 13.3853C8.00796 13.483 8.02783 13.5792 8.06263 13.6695C8.45401 14.6583 8.87816 15.612 9.33509 16.5307C9.79202 17.4493 10.1902 18.188 10.5298 18.7468C10.8678 19.3077 11.2125 19.8372 11.5637 20.3353C11.915 20.8334 12.1474 21.1524 12.2609 21.2922C12.3749 21.4326 12.4644 21.5381 12.5295 21.6088L12.7731 21.8613C12.9876 22.0815 13.2175 22.2837 13.4607 22.466C13.7844 22.7156 14.1197 22.9473 14.4653 23.1601C14.8693 23.4028 15.3004 23.5889 15.748 23.7141C16.2107 23.855 16.6915 23.9138 17.1717 23.8883H18.2893C18.4811 23.8823 18.6641 23.8 18.803 23.6572L18.8418 23.6041C18.8753 23.5436 18.9 23.478 18.9152 23.4094C18.9389 23.3153 18.9505 23.2181 18.9497 23.1205C18.9408 22.847 18.962 22.5734 19.0128 22.3053C19.0451 22.1158 19.1009 21.9318 19.1787 21.7584C19.2345 21.6447 19.3052 21.5402 19.3886 21.4481C19.4375 21.3897 19.4932 21.3384 19.5544 21.2954C19.5795 21.2814 19.6055 21.2692 19.6322 21.259C19.7294 21.2364 19.8303 21.2395 19.9262 21.2678C20.0221 21.2962 20.1103 21.3491 20.1833 21.422C20.4049 21.5974 20.6049 21.8024 20.7784 22.0322C20.9638 22.2744 21.1864 22.5462 21.4462 22.8475C21.6521 23.0962 21.8807 23.3219 22.1287 23.521L22.3239 23.6469C22.484 23.7449 22.6542 23.8224 22.8309 23.878C23.0059 23.9451 23.1938 23.9631 23.3769 23.9302L25.8719 23.8883C26.0711 23.8999 26.2696 23.8546 26.4473 23.7569C26.5601 23.6982 26.6474 23.5947 26.6909 23.468C26.7172 23.3506 26.7189 23.2284 26.696 23.1102C26.6839 23.0165 26.6625 22.9244 26.6322 22.8356Z" fill="white"/>
</svg>
