<svg width="64" height="21" viewBox="0 0 64 21" fill="none" xmlns="http://www.w3.org/2000/svg">
<path d="M26.1606 0.122559L22.9486 20.1105H28.0826L31.2926 0.122559H26.1606ZM41.6465 8.26452C39.8524 7.37855 38.7526 6.7806 38.7526 5.87445C38.7745 5.05055 39.6826 4.20648 41.7105 4.20648C43.3785 4.16458 44.6045 4.55657 45.5345 4.94658L46.0004 5.15453L46.6984 0.972553C45.6844 0.580569 44.0765 0.148661 42.0905 0.148661C37.0205 0.148661 33.4506 2.78463 33.4284 6.55466C33.3865 9.33672 35.9843 10.8805 37.9285 11.8066C39.9145 12.7567 40.5905 13.3726 40.5905 14.2167C40.5686 15.5126 38.9846 16.1106 37.5066 16.1106C35.4587 16.1106 34.3587 15.8026 32.6888 15.0805L32.0127 14.7725L31.2948 19.1186C32.5008 19.6547 34.7187 20.1265 37.0208 20.1506C42.4087 20.1506 45.9147 17.5546 45.9588 13.5367C45.9763 11.3326 44.6064 9.64447 41.6465 8.26452ZM59.8603 0.184416H55.8882C54.6642 0.184416 53.7342 0.536478 53.2042 1.7925L45.5782 20.1105H50.9662L52.4501 16.1446H58.4781L59.2481 20.1265H64.0002L59.8603 0.184416ZM53.9443 12.1423C54.0483 12.1523 56.0124 5.66825 56.0124 5.66825L57.5764 12.1423C57.5764 12.1423 54.9584 12.1423 53.9443 12.1423ZM18.6587 0.122559L13.6287 13.7025L13.0807 11.0244C12.1507 7.93439 9.23482 4.57653 5.98071 2.90857L10.5867 20.0905H16.0188L24.0908 0.124751H18.6587V0.122559Z" fill="#2394BC"/>
<path d="M11.3884 2.69926C10.9965 1.17519 9.74636 0.147302 8.04857 0.125366H0.0825265L0.000488281 0.495196C6.21455 2.02716 11.4303 6.74107 13.1224 11.1751L11.3884 2.69926Z" fill="#EFC75E"/>
</svg>
