<svg width="25" height="22" viewBox="0 0 25 22" fill="none" xmlns="http://www.w3.org/2000/svg">
<path d="M19.0324 16.0054C17.3797 16.0054 16.0352 17.3499 16.0352 19.0026C16.0352 20.6552 17.3797 21.9998 19.0324 21.9998C20.685 21.9998 22.0296 20.6552 22.0296 19.0026C22.0296 17.3499 20.685 16.0054 19.0324 16.0054ZM19.0324 20.2015C18.3712 20.2015 17.8335 19.6638 17.8335 19.0026C17.8335 18.3414 18.3712 17.8037 19.0324 17.8037C19.6935 17.8037 20.2312 18.3414 20.2312 19.0026C20.2312 19.6638 19.6935 20.2015 19.0324 20.2015Z" fill="white"/>
<path d="M23.8465 4.42116C23.6763 4.20327 23.4152 4.07618 23.1386 4.07618H5.55027L4.74102 0.690239C4.64421 0.285636 4.28242 4.10636e-09 3.86641 4.10636e-09H0.899161C0.402538 -4.69446e-05 0 0.402491 0 0.899114C0 1.39574 0.402538 1.79827 0.899161 1.79827H3.15669L6.07896 14.0257C6.17577 14.4307 6.53756 14.716 6.95357 14.716H20.9506C21.3639 14.716 21.7242 14.4342 21.8234 14.0332L24.0114 5.1914C24.0776 4.9229 24.0167 4.63904 23.8465 4.42116ZM20.2471 12.9177H7.66329L5.98004 5.8745H21.9897L20.2471 12.9177Z" fill="white"/>
<path d="M8.15345 16.0059C6.50077 16.0059 5.15625 17.3504 5.15625 19.0031C5.15625 20.6557 6.50081 22.0003 8.15345 22.0003C9.80609 22.0003 11.1507 20.6557 11.1507 19.0031C11.1507 17.3504 9.80609 16.0059 8.15345 16.0059ZM8.15345 20.2019C7.49227 20.2019 6.95457 19.6642 6.95457 19.0031C6.95457 18.3419 7.49227 17.8042 8.15345 17.8042C8.81463 17.8042 9.35233 18.3419 9.35233 19.0031C9.35233 19.6642 8.81463 20.2019 8.15345 20.2019Z" fill="white"/>
</svg>
