<svg width="22" height="22" viewBox="0 0 22 22" fill="none" xmlns="http://www.w3.org/2000/svg">
<path d="M11 20.7446L11.9145 19.7506L11.9321 19.7314L11.9509 19.7134C14.8241 16.9507 17.1355 14.6976 18.737 12.5797C20.3273 10.4766 21.15 8.59202 21.15 6.57609C21.15 3.27089 18.8252 0.85 15.95 0.85C14.3617 0.85 12.732 1.66966 11.6707 3.033L11 3.89461L10.3293 3.033C9.26797 1.66966 7.63835 0.85 6.05 0.85C3.17478 0.85 0.85 3.27089 0.85 6.57609C0.85 8.59202 1.67268 10.4766 3.26299 12.5797C4.86446 14.6976 7.17595 16.9507 10.0491 19.7134L10.0679 19.7314L10.0855 19.7506L11 20.7446Z" stroke="#323232" stroke-width="1.7"/>
</svg>
