<svg width="35" height="31" viewBox="0 0 35 31" fill="none" xmlns="http://www.w3.org/2000/svg">
<path d="M17.5 23.7715C20.5581 23.7715 23.0371 21.2924 23.0371 18.2344C23.0371 15.1763 20.5581 12.6973 17.5 12.6973C14.4419 12.6973 11.9629 15.1763 11.9629 18.2344C11.9629 21.2924 14.4419 23.7715 17.5 23.7715Z" fill="#757575"/>
<path d="M25.5867 4.2207L25.2328 2.45136C25.0419 1.4961 24.1961 0.802734 23.2219 0.802734H11.7782C10.804 0.802734 9.95822 1.4961 9.76723 2.45136L9.41333 4.2207H25.5867Z" fill="#757575"/>
<path d="M31.9238 6.27148C29.516 6.27148 4.20301 6.27148 3.07617 6.27148C1.37997 6.27148 0 7.65146 0 9.34766V27.1211C0 28.8173 1.37997 30.1973 3.07617 30.1973H31.9238C33.62 30.1973 35 28.8173 35 27.1211V9.34766C35 7.65146 33.62 6.27148 31.9238 6.27148ZM8.75 12.6973H5.46875C4.90246 12.6973 4.44336 12.2382 4.44336 11.6719C4.44336 11.1056 4.90246 10.6465 5.46875 10.6465H8.75C9.31629 10.6465 9.77539 11.1056 9.77539 11.6719C9.77539 12.2382 9.31629 12.6973 8.75 12.6973ZM17.5 25.8223C13.316 25.8223 9.91211 22.4184 9.91211 18.2344C9.91211 14.0504 13.316 10.6465 17.5 10.6465C21.684 10.6465 25.0879 14.0504 25.0879 18.2344C25.0879 22.4184 21.684 25.8223 17.5 25.8223Z" fill="#757575"/>
</svg>
