<svg width="7" height="10" viewBox="0 0 7 10" fill="none" xmlns="http://www.w3.org/2000/svg">
<path d="M0.543028 0.907692L0.180204 1.21036C0.0668948 1.30562 0.00447167 1.43235 0.00447167 1.56779C0.00447167 1.70316 0.0668948 1.83005 0.180204 1.9253L4.29065 5.37793L0.175643 8.83455C0.0623338 8.92965 0 9.05654 0 9.19191C0 9.32728 0.0623338 9.45423 0.175643 9.54941L0.536231 9.85216C0.77072 10.0493 1.15268 10.0493 1.38717 9.85216L6.3042 5.73664C6.41742 5.64154 6.49719 5.51481 6.49719 5.37823V5.37666C6.49719 5.24121 6.41733 5.11448 6.3042 5.01937L1.4005 0.907692C1.28728 0.812436 1.13184 0.760151 0.970689 0.76C0.809444 0.76 0.656158 0.812436 0.543028 0.907692Z" fill="#212121"/>
</svg>
