<svg width="21" height="20" viewBox="0 0 21 20" fill="none" xmlns="http://www.w3.org/2000/svg">
<path d="M10.5 18.7766L11.3587 17.8877L11.3767 17.869L11.3959 17.8514C14.1398 15.3387 16.3421 13.2939 17.8668 11.3736C19.381 9.46647 20.15 7.77481 20.15 5.97826C20.15 3.05018 17.9831 0.85 15.225 0.85C13.7052 0.85 12.1582 1.59701 11.1581 2.82055L10.5 3.6257L9.84188 2.82055C8.84178 1.59701 7.29477 0.85 5.775 0.85C3.01692 0.85 0.85 3.05018 0.85 5.97826C0.85 7.77481 1.61896 9.46647 3.13319 11.3736C4.65786 13.2939 6.86022 15.3387 9.60405 17.8514L9.62325 17.869L9.64134 17.8877L10.5 18.7766Z" stroke="#323232" stroke-width="1.7"/>
</svg>
