<svg width="44" height="24" viewBox="0 0 44 24" fill="none" xmlns="http://www.w3.org/2000/svg">
<path fill-rule="evenodd" clip-rule="evenodd" d="M38.3108 4.27601C39.5778 4.10101 40.8438 3.91001 42.1088 3.70401C42.6288 3.61901 43.1148 4.00401 43.1938 4.56401C43.1978 4.59801 43.2018 4.63101 43.2038 4.66401L43.9988 21.007C44.0248 21.549 43.6548 22.019 43.1548 22.08C37.4543 22.786 31.7323 23.305 25.9978 23.636C20.5078 23.946 15.0878 24.058 9.73379 23.972C9.23379 23.964 8.82379 23.539 8.79679 23L8.66479 20.29C6.39179 20.317 4.12979 20.313 1.87879 20.28C1.6178 20.2769 1.36774 20.1748 1.17914 19.9943C0.990539 19.8139 0.877473 19.5686 0.862794 19.308L0.000794107 2.95901C-0.00638247 2.81546 0.0166214 2.672 0.0683208 2.5379C0.12002 2.40379 0.199266 2.28202 0.300943 2.18043C0.40262 2.07885 0.524468 1.99972 0.658622 1.94814C0.792776 1.89657 0.936254 1.8737 1.07979 1.88101C7.05878 2.15559 13.0476 2.1369 19.0248 1.82501C25.0148 1.51301 30.9908 0.910008 36.9518 0.0120077C37.0937 -0.00967352 37.2386 -0.00147554 37.3772 0.0360766C37.5157 0.0736287 37.6449 0.139707 37.7565 0.23008C37.868 0.320453 37.9595 0.433127 38.025 0.560888C38.0905 0.688648 38.1286 0.828677 38.1368 0.972008L38.3108 4.27601Z" fill="#F73D34"/>
</svg>
