<svg width="11" height="161" viewBox="0 0 11 161" fill="none" xmlns="http://www.w3.org/2000/svg">
<path d="M1.455 11V8.96H0.15V7.985H1.455V6.65H0.15V5.51H1.455V0.289999H4.275C5.585 0.289999 6.555 0.554999 7.185 1.085C7.825 1.615 8.145 2.385 8.145 3.395C8.145 4.415 7.8 5.215 7.11 5.795C6.42 6.365 5.405 6.65 4.065 6.65H2.805V7.985H5.28V8.96H2.805V11H1.455ZM3.87 5.51C4.78 5.51 5.485 5.36 5.985 5.06C6.495 4.76 6.75 4.22 6.75 3.44C6.75 2.76 6.54 2.255 6.12 1.925C5.7 1.595 5.045 1.43 4.155 1.43H2.805V5.51H3.87ZM9.62 30.74C9.62 31.22 9.52 31.6933 9.32 32.16C9.12 32.6133 8.86 33.06 8.54 33.5C8.23333 33.9267 7.88 34.3467 7.48 34.76C7.08 35.16 6.68 35.5533 6.28 35.94C6.06667 36.14 5.82667 36.38 5.56 36.66C5.29333 36.94 5.04 37.22 4.8 37.5C4.56 37.78 4.35333 38.0533 4.18 38.32C4.00667 38.5733 3.91333 38.7867 3.9 38.96H10.06V41H1.24C1.22667 40.8933 1.22 40.7667 1.22 40.62C1.22 40.46 1.22 40.34 1.22 40.26C1.22 39.62 1.32 39.0333 1.52 38.5C1.73333 37.9533 2.00667 37.4467 2.34 36.98C2.67333 36.5133 3.04667 36.0733 3.46 35.66C3.87333 35.2467 4.28667 34.84 4.7 34.44C5.02 34.1333 5.32667 33.8333 5.62 33.54C5.91333 33.2467 6.16667 32.96 6.38 32.68C6.60667 32.3867 6.78667 32.0933 6.92 31.8C7.05333 31.4933 7.12 31.18 7.12 30.86C7.12 30.1667 6.92 29.6733 6.52 29.38C6.12 29.0867 5.63333 28.94 5.06 28.94C4.68667 28.94 4.34 28.9933 4.02 29.1C3.7 29.2067 3.41333 29.3333 3.16 29.48C2.92 29.6267 2.70667 29.78 2.52 29.94C2.33333 30.0867 2.19333 30.2067 2.1 30.3L0.9 28.6C1.46 28.0667 2.11333 27.64 2.86 27.32C3.62 26.9867 4.43333 26.82 5.3 26.82C6.78 26.82 7.86667 27.1733 8.56 27.88C9.26667 28.5733 9.62 29.5267 9.62 30.74ZM4.72 71.3C4.36 71.3 3.98667 71.2733 3.6 71.22C3.22667 71.18 2.86667 71.12 2.52 71.04C2.18667 70.9733 1.88 70.9 1.6 70.82C1.32 70.7267 1.10667 70.64 0.96 70.56L1.44 68.5C1.72 68.6333 2.12667 68.7867 2.66 68.96C3.19333 69.12 3.85333 69.2 4.64 69.2C5.69333 69.2 6.45333 69 6.92 68.6C7.38667 68.1867 7.62 67.64 7.62 66.96C7.62 66.52 7.52667 66.1533 7.34 65.86C7.16667 65.5667 6.92 65.3333 6.6 65.16C6.29333 64.9733 5.93333 64.8467 5.52 64.78C5.12 64.7 4.69333 64.66 4.24 64.66H3.42V62.7H4.42C4.72667 62.7 5.03333 62.6733 5.34 62.62C5.66 62.5533 5.94667 62.4467 6.2 62.3C6.45333 62.14 6.66 61.9333 6.82 61.68C6.98 61.4267 7.06 61.1 7.06 60.7C7.06 60.38 7 60.1067 6.88 59.88C6.76 59.6533 6.6 59.4667 6.4 59.32C6.21333 59.1733 5.99333 59.0667 5.74 59C5.48667 58.9333 5.22 58.9 4.94 58.9C4.34 58.9 3.80667 58.9933 3.34 59.18C2.87333 59.3533 2.46 59.5533 2.1 59.78L1.22 57.98C1.40667 57.86 1.63333 57.7333 1.9 57.6C2.16667 57.4667 2.46 57.34 2.78 57.22C3.11333 57.1 3.46667 57.0067 3.84 56.94C4.21333 56.86 4.60667 56.82 5.02 56.82C5.79333 56.82 6.46 56.9133 7.02 57.1C7.58 57.2867 8.04 57.5533 8.4 57.9C8.77333 58.2333 9.04667 58.6333 9.22 59.1C9.40667 59.5533 9.5 60.0533 9.5 60.6C9.5 61.24 9.32 61.8133 8.96 62.32C8.61333 62.8267 8.16 63.2133 7.6 63.48C8.32 63.7333 8.91333 64.1533 9.38 64.74C9.86 65.3267 10.1 66.08 10.1 67C10.1 67.6133 9.99333 68.1867 9.78 68.72C9.56667 69.24 9.24 69.6933 8.8 70.08C8.36 70.4533 7.8 70.7533 7.12 70.98C6.45333 71.1933 5.65333 71.3 4.72 71.3ZM5.74 93.82C6.12667 93.82 6.50667 93.7867 6.88 93.72C7.25333 93.64 7.57333 93.5267 7.84 93.38C7.85333 93.2333 7.86 93.1067 7.86 93C7.86 92.8933 7.86 92.8 7.86 92.72C7.86 92.1867 7.82 91.6867 7.74 91.22C7.67333 90.74 7.54667 90.3267 7.36 89.98C7.18667 89.62 6.94 89.34 6.62 89.14C6.31333 88.9267 5.92667 88.82 5.46 88.82C5.07333 88.82 4.74 88.9 4.46 89.06C4.19333 89.22 3.97333 89.4267 3.8 89.68C3.62667 89.9333 3.5 90.2067 3.42 90.5C3.34 90.7933 3.3 91.08 3.3 91.36C3.3 92.1733 3.49333 92.7867 3.88 93.2C4.28 93.6133 4.9 93.82 5.74 93.82ZM7.64 95.28C7.32 95.4267 6.96667 95.54 6.58 95.62C6.19333 95.7 5.82 95.74 5.46 95.74C4.63333 95.74 3.92667 95.6333 3.34 95.42C2.76667 95.1933 2.29333 94.8867 1.92 94.5C1.56 94.1 1.29333 93.64 1.12 93.12C0.946667 92.6 0.86 92.04 0.86 91.44C0.86 90.92 0.946667 90.3933 1.12 89.86C1.29333 89.3133 1.56667 88.8133 1.94 88.36C2.31333 87.9067 2.78667 87.54 3.36 87.26C3.93333 86.9667 4.61333 86.82 5.4 86.82C7.02667 86.82 8.25333 87.3467 9.08 88.4C9.92 89.44 10.34 90.9133 10.34 92.82C10.34 95.5133 9.64667 97.5533 8.26 98.94C6.87333 100.327 4.74667 101.027 1.88 101.04L1.78 99.02C2.58 99.02 3.3 98.9533 3.94 98.82C4.59333 98.6867 5.16 98.4733 5.64 98.18C6.13333 97.8867 6.54667 97.5067 6.88 97.04C7.21333 96.56 7.46667 95.9733 7.64 95.28ZM5.74 123.82C6.12667 123.82 6.50667 123.787 6.88 123.72C7.25333 123.64 7.57333 123.527 7.84 123.38C7.85333 123.233 7.86 123.107 7.86 123C7.86 122.893 7.86 122.8 7.86 122.72C7.86 122.187 7.82 121.687 7.74 121.22C7.67333 120.74 7.54667 120.327 7.36 119.98C7.18667 119.62 6.94 119.34 6.62 119.14C6.31333 118.927 5.92667 118.82 5.46 118.82C5.07333 118.82 4.74 118.9 4.46 119.06C4.19333 119.22 3.97333 119.427 3.8 119.68C3.62667 119.933 3.5 120.207 3.42 120.5C3.34 120.793 3.3 121.08 3.3 121.36C3.3 122.173 3.49333 122.787 3.88 123.2C4.28 123.613 4.9 123.82 5.74 123.82ZM7.64 125.28C7.32 125.427 6.96667 125.54 6.58 125.62C6.19333 125.7 5.82 125.74 5.46 125.74C4.63333 125.74 3.92667 125.633 3.34 125.42C2.76667 125.193 2.29333 124.887 1.92 124.5C1.56 124.1 1.29333 123.64 1.12 123.12C0.946667 122.6 0.86 122.04 0.86 121.44C0.86 120.92 0.946667 120.393 1.12 119.86C1.29333 119.313 1.56667 118.813 1.94 118.36C2.31333 117.907 2.78667 117.54 3.36 117.26C3.93333 116.967 4.61333 116.82 5.4 116.82C7.02667 116.82 8.25333 117.347 9.08 118.4C9.92 119.44 10.34 120.913 10.34 122.82C10.34 125.513 9.64667 127.553 8.26 128.94C6.87333 130.327 4.74667 131.027 1.88 131.04L1.78 129.02C2.58 129.02 3.3 128.953 3.94 128.82C4.59333 128.687 5.16 128.473 5.64 128.18C6.13333 127.887 6.54667 127.507 6.88 127.04C7.21333 126.56 7.46667 125.973 7.64 125.28ZM1.455 161V158.96H0.15V157.985H1.455V156.65H0.15V155.51H1.455V150.29H4.275C5.585 150.29 6.555 150.555 7.185 151.085C7.825 151.615 8.145 152.385 8.145 153.395C8.145 154.415 7.8 155.215 7.11 155.795C6.42 156.365 5.405 156.65 4.065 156.65H2.805V157.985H5.28V158.96H2.805V161H1.455ZM3.87 155.51C4.78 155.51 5.485 155.36 5.985 155.06C6.495 154.76 6.75 154.22 6.75 153.44C6.75 152.76 6.54 152.255 6.12 151.925C5.7 151.595 5.045 151.43 4.155 151.43H2.805V155.51H3.87Z" fill="#212121"/>
</svg>
