<svg width="12" height="10" viewBox="0 0 12 10" fill="none" xmlns="http://www.w3.org/2000/svg"><path d="M11.3255 4.05902L11.3442 4.06311H3.31434L5.83864 1.53326C5.96225 1.40975 6.03005 1.24243 6.03005 1.06682C6.03005 0.891211 5.96225 0.725065 5.83864 0.60126L5.44586 0.208284C5.32234 0.0847721 5.15776 0.0164795 4.98225 0.0164795C4.80664 0.0164795 4.64195 0.0842844 4.51844 0.207797L0.19132 4.53453C0.0673197 4.65853 -0.000485191 4.8237 2.61379e-06 4.99941C-0.000485191 5.17609 0.0673197 5.34136 0.19132 5.46516L4.51844 9.79228C4.64195 9.9157 4.80654 9.9836 4.98225 9.9836C5.15776 9.9836 5.32234 9.9156 5.44586 9.79228L5.83864 9.39931C5.96225 9.27599 6.03005 9.11131 6.03005 8.9357C6.03005 8.76019 5.96225 8.60419 5.83864 8.48077L3.28586 5.93677H11.3344C11.6961 5.93677 12 5.62506 12 5.2636V4.7078C12 4.34633 11.6871 4.05902 11.3255 4.05902Z" fill="#373E44"/></svg>
