<svg width="12" height="10" viewBox="0 0 12 10" fill="none" xmlns="http://www.w3.org/2000/svg">
<path d="M0.674534 5.94098L0.655803 5.93689L8.68566 5.93689L6.16136 8.46674C6.03775 8.59025 5.96995 8.75757 5.96995 8.93318C5.96995 9.10879 6.03775 9.27494 6.16136 9.39874L6.55414 9.79172C6.67766 9.91523 6.84224 9.98352 7.01775 9.98352C7.19336 9.98352 7.35805 9.91572 7.48156 9.7922L11.8087 5.46547C11.9327 5.34147 12.0005 5.1763 12 5.00059C12.0005 4.82391 11.9327 4.65864 11.8087 4.53484L7.48156 0.207716C7.35805 0.0843019 7.19346 0.0163994 7.01775 0.0163994C6.84224 0.0163994 6.67766 0.0843992 6.55414 0.207716L6.16136 0.600692C6.03775 0.72401 5.96995 0.888692 5.96995 1.0643C5.96995 1.23981 6.03775 1.39581 6.16136 1.51923L8.71414 4.06323L0.665558 4.06323C0.3039 4.06323 -2.86102e-06 4.37494 -2.86102e-06 4.7364V5.2922C-2.86102e-06 5.65367 0.312876 5.94098 0.674534 5.94098Z" fill="#373E44"/>
</svg>
