<svg width="20" height="23" viewBox="0 0 20 23" fill="none" xmlns="http://www.w3.org/2000/svg">
<path d="M9.84852 11.0792C11.4349 11.0792 12.8084 10.5333 13.931 9.45624C15.0533 8.37934 15.6224 7.06169 15.6224 5.53943C15.6224 4.0177 15.0534 2.69988 13.9309 1.62263C12.8083 0.545906 11.4347 0 9.84852 0C8.26193 0 6.88859 0.545906 5.76618 1.6228C4.64377 2.6997 4.07461 4.01753 4.07461 5.53943C4.07461 7.06169 4.64377 8.37952 5.76618 9.45641C6.88895 10.5331 8.26247 11.0792 9.84852 11.0792ZM6.75965 2.57582C7.62089 1.7495 8.63119 1.34783 9.84852 1.34783C11.0657 1.34783 12.0761 1.7495 12.9376 2.57582C13.7988 3.40231 14.2176 4.37181 14.2176 5.53943C14.2176 6.7074 13.7988 7.67673 12.9376 8.50323C12.0761 9.32972 11.0657 9.73138 9.84852 9.73138C8.63155 9.73138 7.62125 9.32954 6.75965 8.50323C5.89823 7.67691 5.4794 6.7074 5.4794 5.53943C5.4794 4.37181 5.89823 3.40231 6.75965 2.57582Z" fill="#323232"/>
<path d="M19.9515 17.6859C19.9192 17.2377 19.8537 16.7488 19.7573 16.2326C19.66 15.7125 19.5347 15.2208 19.3848 14.7714C19.2297 14.3069 19.0191 13.8482 18.7585 13.4086C18.4884 12.9524 18.1709 12.5551 17.8146 12.2282C17.4421 11.8862 16.9859 11.6112 16.4585 11.4107C15.9328 11.2112 15.3503 11.1101 14.7272 11.1101C14.4825 11.1101 14.2458 11.2064 13.7888 11.4919C13.5075 11.6679 13.1785 11.8715 12.8112 12.0966C12.4972 12.2886 12.0718 12.4684 11.5464 12.6313C11.0337 12.7904 10.5132 12.8712 9.99927 12.8712C9.48571 12.8712 8.9652 12.7904 8.45218 12.6313C7.92728 12.4686 7.50169 12.2888 7.18821 12.0968C6.82444 11.8738 6.49524 11.6702 6.20974 11.4917C5.75306 11.2062 5.5164 11.1099 5.27169 11.1099C4.64839 11.1099 4.06606 11.2112 3.54061 11.4109C3.01352 11.6111 2.5572 11.886 2.18428 12.2284C1.82801 12.5555 1.51051 12.9526 1.24056 13.4086C0.980302 13.8482 0.769611 14.3067 0.614518 14.7716C0.464729 15.221 0.339448 15.7125 0.242149 16.2326C0.145582 16.7481 0.0802897 17.2372 0.0479178 17.6864C0.0160945 18.1256 0 18.5827 0 19.0446C0 20.2452 0.397791 21.2172 1.18222 21.934C1.95695 22.6413 2.98188 23 4.22865 23H15.7713C17.0178 23 18.0427 22.6413 18.8176 21.934C19.6022 21.2177 20 20.2454 20 19.0444C19.9998 18.581 19.9835 18.1239 19.9515 17.6859ZM17.849 20.9575C17.3371 21.4249 16.6575 21.6522 15.7712 21.6522H4.22865C3.34217 21.6522 2.66255 21.4249 2.15081 20.9576C1.64877 20.4991 1.4048 19.8732 1.4048 19.0446C1.4048 18.6136 1.41961 18.1881 1.44924 17.7796C1.47814 17.3788 1.53721 16.9385 1.62481 16.4707C1.71132 16.0087 1.82142 15.5751 1.95237 15.1825C2.07802 14.8061 2.24939 14.4334 2.46191 14.0744C2.66474 13.7322 2.89811 13.4387 3.15562 13.2021C3.39649 12.9808 3.70009 12.7997 4.05783 12.6639C4.38868 12.5383 4.7605 12.4695 5.16415 12.4591C5.21334 12.4842 5.30095 12.5321 5.44287 12.6209C5.73166 12.8015 6.06452 13.0075 6.4325 13.233C6.8473 13.4867 7.38171 13.7159 8.02019 13.9137C8.67293 14.1162 9.33866 14.219 9.99945 14.219C10.6602 14.219 11.3262 14.1162 11.9785 13.9138C12.6176 13.7157 13.1518 13.4867 13.5671 13.2326C13.9437 13.0017 14.2672 12.8017 14.556 12.6209C14.698 12.5323 14.7856 12.4842 14.8348 12.4591C15.2386 12.4695 15.6104 12.5383 15.9414 12.6639C16.299 12.7997 16.6026 12.981 16.8435 13.2021C17.101 13.4385 17.3343 13.7321 17.5372 14.0746C17.7499 14.4334 17.9214 14.8063 18.0469 15.1824C18.178 15.5754 18.2883 16.0089 18.3746 16.4705C18.4621 16.9392 18.5213 17.3797 18.5502 17.7798C18.58 18.1867 18.595 18.6124 18.5952 19.0446C18.595 19.8734 18.351 20.4991 17.849 20.9575Z" fill="#323232"/>
</svg>
