<svg width="24" height="24" viewBox="0 0 24 24" fill="none" xmlns="http://www.w3.org/2000/svg">
<path d="M11.5031 5.80024C11.2113 6.09306 11.1972 6.58281 11.4717 6.89412C11.7462 7.20544 12.2052 7.22043 12.497 6.92762L11.5031 5.80024ZM18.12 15.8178L18.5957 16.4019L18.6149 16.3841L18.6329 16.365L18.12 15.8178ZM9.58654 18.2305L9.03881 17.7232L8.08772 18.8919L8.63545 19.3992L9.58654 18.2305ZM12.6911 4.60809L11.5031 5.80024L12.497 6.92762L13.685 5.73547L12.6911 4.60809ZM13.7433 20.8992L18.5957 16.4019L17.6443 15.2336L12.7919 19.7308L13.7433 20.8992ZM18.6329 16.365L21.0422 13.7946L20.0164 12.7002L17.6071 15.2705L18.6329 16.365ZM11.2065 19.731L9.58654 18.2305L8.63545 19.3992L10.2554 20.8997L11.2065 19.731ZM19.7922 5.61525C21.7749 7.46257 21.8778 10.7144 20.0164 12.7002L21.0422 13.7946C23.4974 11.1753 23.3616 6.88615 20.7465 4.44953L19.7922 5.61525ZM12.7919 19.7308C12.3373 20.1521 11.6613 20.1522 11.2065 19.731L10.2554 20.8997C11.2559 21.8264 12.7431 21.8262 13.7433 20.8992L12.7919 19.7308ZM20.7465 4.44953C18.4227 2.28439 14.9384 2.35298 12.6911 4.60809L13.685 5.73547C15.3888 4.02576 18.0304 3.97377 19.7922 5.61525L20.7465 4.44953Z" fill="black"/>
<path d="M12.4962 5.80001C12.788 6.09285 12.802 6.5826 12.5276 6.8939C12.2531 7.2052 11.794 7.22017 11.5022 6.92733L12.4962 5.80001ZM5.87982 15.8175L5.40407 16.4016L5.38488 16.3838L5.36691 16.3647L5.87982 15.8175ZM14.4132 18.2301L14.961 17.7229L15.912 18.8917L15.3642 19.399L14.4132 18.2301ZM3.47037 13.247L3.98328 12.6998L3.47037 13.247ZM13.2679 20.3154L13.7433 20.8998L13.2679 20.3154ZM11.3086 4.60816L12.4962 5.80001L11.5022 6.92733L10.3146 5.73548L11.3086 4.60816ZM10.2556 20.8988L5.40407 16.4016L6.35557 15.2333L11.2071 19.7305L10.2556 20.8988ZM5.36691 16.3647L2.95747 13.7942L3.98328 12.6998L6.39272 15.2703L5.36691 16.3647ZM12.7924 19.731L14.4132 18.2301L15.3642 19.399L13.7433 20.8998L12.7924 19.731ZM4.20748 5.61507C2.22488 7.46233 2.12197 10.7141 3.98328 12.6998L2.95747 13.7942C0.50238 11.175 0.638114 6.8859 3.2532 4.44934L4.20748 5.61507ZM11.2071 19.7305C11.6616 20.1519 12.3376 20.1521 12.7924 19.731L13.7433 20.8998C12.7428 21.8263 11.2556 21.8259 10.2556 20.8988L11.2071 19.7305ZM3.2532 4.44934C5.57702 2.28417 9.06138 2.35286 11.3086 4.60816L10.3146 5.73548C8.6109 4.02564 5.96926 3.97356 4.20748 5.61507L3.2532 4.44934Z" fill="black"/>
</svg>
