<svg width="30" height="28" viewBox="0 0 30 28" fill="none" xmlns="http://www.w3.org/2000/svg">
<path d="M27.5466 2.6821C25.9949 1.01422 23.8206 0.0652162 21.5425 0.0616981C19.2626 0.0643366 17.086 1.01283 15.5319 2.68103L15.0022 3.24072L14.4725 2.68103C11.3888 -0.637959 6.19822 -0.828563 2.87929 2.25522C2.73222 2.39192 2.59018 2.5339 2.45348 2.68103C-0.817826 6.20953 -0.817826 11.6627 2.45348 15.1912L14.2238 27.6038C14.631 28.0337 15.3097 28.0521 15.7395 27.6448C15.7536 27.6315 15.7673 27.6178 15.7806 27.6038L27.5467 15.1912C30.8178 11.663 30.8178 6.21022 27.5466 2.6821ZM25.9952 13.7148H25.9942L15.0022 25.3082L4.00922 13.7148C1.51013 11.0187 1.51013 6.85246 4.00922 4.15636C6.27869 1.6966 10.1126 1.54237 12.5723 3.81184C12.6918 3.92203 12.8067 4.03693 12.9169 4.15636L14.2238 5.53519C14.6545 5.96314 15.3499 5.96314 15.7806 5.53519L17.0876 4.15743C19.3571 1.69767 23.191 1.54344 25.6507 3.81291C25.7701 3.9231 25.885 4.038 25.9952 4.15743C28.5161 6.8578 28.5345 11.0316 25.9952 13.7148Z" fill="#4A535C"/>
</svg>
