<svg width="26" height="23" xmlns="http://www.w3.org/2000/svg">

 <g>
  <title>background</title>
  <rect fill="none" id="canvas_background" height="602" width="802" y="-1" x="-1"/>
 </g>
 <g>
  <title>Layer 1</title>
  <path id="svg_1" stroke-linejoin="round" stroke-linecap="round" stroke-width="2.66667" stroke="#FDF1E1" d="m7.52785,2.25c-2.99108,0 -5.41666,2.40067 -5.41666,5.3625c0,2.3909 0.94791,8.0654 10.27865,13.8017c0.1672,0.1017 0.359,0.1555 0.5547,0.1555c0.1956,0 0.3875,-0.0538 0.5546,-0.1555c9.3308,-5.7363 10.2787,-11.4108 10.2787,-13.8017c0,-2.96183 -2.4256,-5.3625 -5.4167,-5.3625c-2.991,0 -5.4166,3.25 -5.4166,3.25c0,0 -2.4256,-3.25 -5.41669,-3.25z"/>
  <path d="m5.30556,9.60833c-0.11111,0 -0.1709,0.02126 -0.22222,0c-0.07259,-0.03007 -0.12144,-0.03848 -0.22222,-0.11111c-0.06374,-0.04594 -0.08985,-0.05978 -0.11111,-0.11111c-0.03007,-0.07259 -0.11111,-0.11111 -0.16667,-0.22222c-0.05556,-0.11111 -0.14114,-0.22519 -0.16667,-0.33333c-0.02854,-0.1209 -0.19408,-0.32659 -0.22222,-0.5c-0.0178,-0.10968 0,-0.22222 0,-0.33333c0,-0.11111 -0.06378,-0.23491 0,-0.38889c0.03007,-0.07259 0.11111,-0.11111 0.22222,-0.11111c0.05556,0 0.17935,-0.06378 0.33333,0c0.14517,0.06013 0.28927,0.21181 0.38889,0.33333c0.12699,0.15491 0.22222,0.27778 0.27778,0.38889c0.05556,0.11111 0.05556,0.22222 0.05556,0.33333c0,0.11111 0,0.22222 -0.11111,0.27778c-0.11111,0.05556 -0.16667,0.05556 -0.27778,0.05556c-0.16667,0 -0.40065,0.01588 -0.55556,-0.11111c-0.12152,-0.09962 -0.28835,-0.32675 -0.38889,-0.5c-0.1247,-0.21489 -0.22222,-0.38889 -0.22222,-0.55556c0,-0.05556 -0.0356,-0.22509 0,-0.44444c0.02814,-0.17341 0.11557,-0.29869 0.33333,-0.38889c0.15398,-0.06378 0.33333,-0.05556 0.38889,-0.05556c0.11111,0 0.16667,0 0.33333,0c0.11111,0 0.21765,0.07705 0.27778,0.22222c0.04252,0.10265 0,0.22222 0,0.33333c0,0.16667 -0.0289,0.29576 -0.11111,0.38889c-0.13256,0.15017 -0.26799,0.19368 -0.38889,0.22222c-0.10814,0.02553 -0.22222,0 -0.38889,0c-0.11111,0 -0.28811,0.01708 -0.38889,-0.05556c-0.06374,-0.04594 -0.13853,-0.21548 -0.16667,-0.38889c-0.0178,-0.10968 -0.05285,-0.3494 0.05556,-0.61111c0.07665,-0.18506 0.13251,-0.40956 0.27778,-0.61111c0.09188,-0.12747 0.26141,-0.24145 0.38889,-0.33333c0.10078,-0.07264 0.22658,-0.21055 0.38889,-0.27778c0.11477,-0.04754 0.22371,-0.09835 0.27778,-0.11111c0.1209,-0.02854 0.23068,-0.06859 0.33333,-0.11111c0.07259,-0.03007 0.00818,-0.04594 -0.05556,0c-0.10078,0.07264 -0.15992,0.13853 -0.33333,0.16667c-0.05484,0.0089 -0.11111,0 -0.16667,0c-0.05556,0 -0.05556,-0.05556 -0.05556,-0.11111c0,-0.11111 0,-0.16667 0,-0.27778c0,-0.11111 0,-0.16667 0,-0.27778c0,-0.16667 0.05098,-0.18816 0.11111,-0.33333c0.02126,-0.05133 0.0819,-0.11941 0.11111,-0.16667c0.06531,-0.10567 0.15848,-0.12073 0.22222,-0.16667c0.10078,-0.07264 0.16964,-0.03003 0.27778,-0.05556c0.1209,-0.02854 0.15992,-0.08297 0.33333,-0.11111c0.10968,-0.0178 0.15992,-0.02741 0.33333,-0.05556c0.10968,-0.0178 0.2171,-0.02757 0.44444,-0.05556c0.05514,-0.00679 0.22222,0 0.38889,0c0.16667,0 0.27778,0 0.38889,0c0.16667,0 0.27778,0 0.44444,0c0.22222,0 0.3791,0.08257 0.5,0.11111c0.05407,0.01276 0.15992,0.02741 0.33333,0.05556c0.16451,0.0267 0.22222,0 0.33333,0c0.11111,0 0.22222,0 0.33333,0c0.16667,0 0.27778,0 0.38889,0c0.05556,0 0.11111,0 0.22222,0c0.05556,0 0.16667,0 0.27778,0c0.05556,0 0.11957,-0.04252 0.22222,0c0.07259,0.03007 0.1366,0.09408 0.16667,0.16667c0.02126,0.05133 0.05556,0.11111 0.11111,0.22222c0.05556,0.11111 0.09403,0.23256 0.16667,0.33333c0.09188,0.12747 0.12168,0.21564 0.22222,0.38889c0.06235,0.10744 0.19368,0.21243 0.22222,0.33333c0.03829,0.16221 0.04666,0.27849 0.05556,0.33333c0.02814,0.17341 0.08297,0.21548 0.11111,0.38889c0.0178,0.10968 0,0.16667 0,0.22222c0,0.11111 -0.01627,0.18294 -0.05556,0.22222c-0.07857,0.07857 -0.16964,0.02553 -0.27778,0c-0.1209,-0.02854 -0.24512,-0.05381 -0.44444,-0.16667c-0.13674,-0.07742 -0.27778,-0.22222 -0.5,-0.38889c-0.22222,-0.16667 -0.38889,-0.22222 -0.61111,-0.33333c-0.11111,-0.05556 -0.20586,-0.13034 -0.33333,-0.22222c-0.10078,-0.07264 -0.22461,-0.09501 -0.27778,-0.11111c-0.19171,-0.05805 -0.27778,-0.16667 -0.33333,-0.16667c-0.11111,0 -0.22222,0 -0.38889,0c-0.16667,0 -0.4488,-0.01167 -0.61111,0.05556c-0.22954,0.09508 -0.61111,0.22222 -0.94444,0.38889c-0.33333,0.16667 -0.67142,0.32415 -1,0.5c-0.3949,0.21135 -0.72222,0.44444 -1.05556,0.66667c-0.33333,0.22222 -0.67152,0.433 -0.94444,0.55556c-0.22665,0.10178 -0.44444,0.22222 -0.55556,0.33333c-0.11111,0.11111 -0.23256,0.14959 -0.33333,0.22222c-0.06374,0.04594 -0.12819,0.10078 -0.05556,0c0.13782,-0.19121 0.32138,-0.34596 0.55556,-0.55556c0.26506,-0.23724 0.60509,-0.45532 1,-0.66667c0.43811,-0.23447 0.95232,-0.48675 1.33333,-0.72222c0.34079,-0.21062 0.66003,-0.45844 1,-0.61111c0.27292,-0.12256 0.66896,-0.32485 0.88889,-0.38889c0.33735,-0.09824 0.65935,-0.1827 0.88889,-0.27778c0.16231,-0.06723 0.33333,-0.05556 0.44444,-0.05556c0.05556,0 0.16667,0 0.27778,0c0.11111,0 0.23068,-0.04252 0.33333,0c0.07259,0.03007 0.09408,0.1366 0.16667,0.16667c0.05133,0.02126 0.05556,0.05556 0.05556,0.11111c0,0.11111 0.04252,0.23068 0,0.33333c-0.03007,0.07259 -0.11111,0.11111 -0.16667,0.11111c-0.05556,0 -0.11111,0 -0.16667,0c-0.16667,0 -0.27778,-0.05556 -0.33333,-0.05556c-0.16667,0 -0.39059,-0.00487 -0.55556,0.05556c-0.28092,0.1029 -0.50208,0.18828 -0.77778,0.22222c-0.22734,0.02799 -0.56656,0.20183 -0.88889,0.38889c-0.3465,0.20108 -0.65232,0.51818 -1,0.77778c-0.321,0.23969 -0.67071,0.54899 -0.94444,0.72222c-0.33853,0.21423 -0.61111,0.38889 -0.83333,0.55556c-0.22222,0.16667 -0.3566,0.24549 -0.44444,0.33333c-0.08784,0.08784 -0.09408,0.1366 -0.16667,0.16667c-0.05133,0.02126 -0.11111,-0.05556 -0.11111,-0.11111c0,-0.11111 0.03829,-0.28224 0,-0.44444c-0.02854,-0.1209 -0.11111,-0.27778 -0.11111,-0.33333c0,-0.11111 -0.05133,-0.31207 0,-0.33333c0.07259,-0.03007 0.15309,0.1675 0.16667,0.27778c0.02799,0.22735 0.14161,0.43411 0.22222,0.72222c0.09106,0.32543 0.13753,0.60344 0.22222,0.94444c0.08146,0.32797 0.16667,0.72222 0.22222,1.05556c0.05556,0.33333 0.06199,0.55355 0.11111,0.72222c0.06404,0.21993 0.07282,0.39335 0.11111,0.55556c0.02854,0.1209 0.03776,0.1681 0.05556,0.27778c0.02814,0.17341 0.11111,0.22222 0.11111,0.27778c0,0.05556 -0.02126,0.11534 0,0.16667c0.03007,0.07259 0.05556,-0.05556 0.05556,-0.22222c0,-0.22222 0,-0.44444 0,-0.66667c0,-0.16667 -0.01168,-0.33769 0.05556,-0.5c0.04754,-0.11477 0.05978,-0.18793 0.11111,-0.16667c0.07259,0.03007 0.08527,0.07282 0.16667,0.16667c0.11511,0.13272 0.11111,0.27778 0.16667,0.38889c0.05556,0.11111 0.09403,0.23256 0.16667,0.33333c0.09188,0.12747 0.17724,0.21564 0.27778,0.38889c0.06235,0.10744 0.16209,0.18816 0.22222,0.33333c0.06378,0.15398 0.10653,0.24372 0.16667,0.38889c0.04252,0.10265 0.07431,0.295 0.16667,0.44444c0.08261,0.13367 0.177,0.20514 0.27778,0.27778c0.12747,0.09188 0.22222,0.16667 0.33333,0.27778c0.05556,0.05556 0.07883,0.18994 0.16667,0.27778c0.08784,0.08784 0.13034,0.20586 0.22222,0.33333c0.07264,0.10078 0.13034,0.20586 0.22222,0.33333c0.07264,0.10078 0.22222,0.22222 0.33333,0.27778c0.11111,0.05556 0.18994,0.13438 0.27778,0.22222c0.08784,0.08784 0.11111,0.16667 0.16667,0.22222c0.11111,0.11111 0.21764,0.1326 0.27778,0.27778c0.02126,0.05133 0.0527,0.18326 0.11111,0.27778c0.06531,0.10567 0.16667,0.16667 0.33333,0.33333c0.05556,0.05556 0.14541,0.17089 0.16667,0.22222c0.06013,0.14517 0.177,0.20514 0.27778,0.27778c0.06374,0.04594 0.12833,0.12986 0.27778,0.22222c0.06683,0.04131 0.11111,0.11111 0.16667,0.16667c0.05556,0.05556 0.16667,0.11111 0.22222,0.16667c0.05556,0.05556 0.17089,0.08985 0.22222,0.11111c0.07259,0.03007 0.10293,0.12073 0.16667,0.16667c0.10078,0.07264 0.16667,0.11111 0.27778,0.22222c0.05556,0.05556 0.10293,0.12073 0.16667,0.16667c0.10078,0.07264 0.16815,0.09835 0.22222,0.11111c0.1209,0.02854 0.22371,0.09835 0.27778,0.11111c0.1209,0.02854 0.1709,0.14541 0.22222,0.16667c0.14517,0.06013 0.17843,0.09523 0.33333,0.22222c0.06076,0.04981 0.13438,0.13438 0.22222,0.22222c0.08784,0.08784 0.17628,0.15848 0.22222,0.22222c0.07264,0.10078 0.17628,0.21404 0.22222,0.27778c0.07264,0.10078 0.09403,0.12144 0.16667,0.22222c0.04594,0.06374 0.11111,0.05556 0.16667,0.05556c0.11111,0 0.17512,0.04252 0.27778,0c0.07259,-0.03007 0.11111,-0.11111 0.16667,-0.16667c0.11111,-0.11111 0.24372,-0.21764 0.38889,-0.27778c0.05133,-0.02126 0.18389,-0.07431 0.33333,-0.16667c0.06683,-0.04131 0.11111,-0.11111 0.22222,-0.22222c0.11111,-0.11111 0.20514,-0.177 0.27778,-0.27778c0.04594,-0.06374 0.14964,-0.08105 0.22222,-0.11111c0.05133,-0.02126 0.09408,-0.02549 0.16667,-0.05556c0.05133,-0.02126 0.1277,0.00286 0.22222,-0.05556c0.10567,-0.06531 0.16667,-0.16667 0.27778,-0.16667c0.11111,0 0.16667,0 0.22222,0c0.05556,0 -0.01033,0.03848 -0.11111,0.11111c-0.06374,0.04594 -0.17941,0.18511 -0.38889,0.27778c-0.18318,0.08104 -0.44185,0.28177 -0.61111,0.38889c-0.27373,0.17323 -0.43365,0.24713 -0.66667,0.33333c-0.21483,0.07947 -0.44444,0.05556 -0.55556,0.05556c-0.22222,0 -0.38889,0 -0.61111,0c-0.11111,0 -0.28214,0.01167 -0.44444,-0.05556c-0.11477,-0.04754 -0.17033,-0.15987 -0.27778,-0.22222c-0.17325,-0.10054 -0.24533,-0.20895 -0.33333,-0.38889c-0.07719,-0.15782 -0.05556,-0.27778 -0.05556,-0.44444c0,-0.22222 -0.1063,-0.41003 0,-0.66667c0.06013,-0.14517 0.19839,-0.25997 0.44444,-0.38889c0.15562,-0.08154 0.43512,-0.08894 0.77778,-0.16667c0.43681,-0.09908 0.89439,-0.12648 1.44444,-0.22222c0.45134,-0.07856 0.83333,-0.11111 1.22222,-0.11111c0.27778,0 0.5,0 0.72222,0c0.11111,0 0.23849,-0.03928 0.27778,0c0.03929,0.03929 -0.09475,0.1859 -0.22222,0.27778c-0.10078,0.07264 -0.31681,0.19674 -0.5,0.27778c-0.20948,0.09267 -0.54656,0.19253 -0.83333,0.27778c-0.27154,0.08072 -0.44444,0.05556 -0.66667,0.05556c-0.16667,0 -0.33333,0 -0.44444,0c-0.16667,0 -0.22766,-0.0458 -0.33333,-0.11111c-0.04726,-0.02921 -0.05556,-0.05556 -0.05556,-0.11111c0,-0.11111 0.06099,-0.21247 0.16667,-0.27778c0.23629,-0.14604 0.50161,-0.21332 0.83333,-0.27778c0.50279,-0.09769 0.94444,-0.16667 1.33333,-0.16667c0.33333,0 0.5767,-0.1063 0.83333,0c0.07259,0.03007 0.15363,0.11957 0.11111,0.22222c-0.0902,0.21776 -0.44959,0.31576 -0.66667,0.38889c-0.40096,0.13507 -0.81613,0.33405 -1.27778,0.44444c-0.48928,0.117 -1.10922,0.19442 -1.72222,0.22222c-0.49949,0.02266 -1.11111,0 -1.61111,0c-0.44444,0 -0.83333,0 -1.11111,0c-0.22222,0 -0.38889,0 -0.5,0c-0.05556,0 0.04881,-0.02741 0.22222,-0.05556c0.16451,-0.0267 0.38477,-0.0832 0.66667,-0.11111c0.22114,-0.0219 0.5,0 0.83333,0c0.27778,0 0.66667,0 0.94444,0c0.38889,0 0.83426,0.0078 1.33333,-0.05556c0.38971,-0.04947 0.77872,-0.10574 1.11111,-0.16667c0.27864,-0.05107 0.55113,-0.12044 0.77778,-0.22222c0.27292,-0.12256 0.60669,-0.23155 0.83333,-0.33333c0.27292,-0.12256 0.44444,-0.16667 0.55556,-0.22222c0.11111,-0.05556 0.22658,-0.09944 0.38889,-0.16667c0.11477,-0.04754 0.22222,-0.05556 0.33333,-0.05556c0.05556,0 0.1126,-0.04279 0.16667,-0.05556c0.1209,-0.02854 0.23256,-0.09403 0.33333,-0.16667c0.06374,-0.04594 0.05556,-0.11111 0.05556,-0.16667c0,-0.05556 0.00818,-0.12073 -0.05556,-0.16667c-0.10078,-0.07264 -0.27903,-0.09075 -0.44444,-0.11111c-0.22735,-0.02799 -0.38889,-0.05556 -0.72222,-0.05556c-0.33333,0 -0.66667,0 -1.05556,0c-0.38889,0 -0.83333,0 -1.22222,0c-0.44444,0 -0.83271,0.05944 -1.16667,0.11111c-0.38822,0.06007 -0.77845,0.10659 -1.16667,0.16667c-0.33396,0.05168 -0.61111,0.11111 -0.88889,0.16667c-0.27778,0.05556 -0.5547,0.1156 -0.83333,0.16667c-0.33239,0.06092 -0.55556,0.11111 -0.72222,0.11111c-0.16667,0 -0.38889,0 -0.61111,0c-0.16667,0 -0.33333,0 -0.55556,0c-0.16667,0 -0.27778,0 -0.44444,0c-0.22222,0 -0.38889,-0.05556 -0.55556,-0.05556c-0.05556,0 -0.21094,-0.06981 -0.27778,-0.11111c-0.14944,-0.09236 -0.22222,-0.05556 -0.27778,-0.11111c-0.05556,-0.05556 -0.11111,-0.11111 -0.11111,-0.16667c0,-0.05556 0,-0.11111 0,-0.16667c0,-0.05556 -0.04252,-0.11957 0,-0.22222c0.06013,-0.14517 0.23107,-0.14504 0.38889,-0.22222c0.17994,-0.08801 0.5,-0.16667 0.72222,-0.16667c0.38889,0 0.83333,0 1.33333,0c0.5,0 1.16667,0 1.83333,0c0.61111,0 1.27778,0 1.83333,0c0.55556,0 1,0 1.44444,0c0.44444,0 0.83333,0 1.11111,0c0.27778,0 0.61111,0 0.83333,0c0.22222,0 0.44528,0.01358 0.55556,0c0.22734,-0.02799 0.33333,-0.11111 0.44444,-0.11111c0.16667,0 0.38889,-0.05556 0.5,-0.05556c0.11111,0 0.27926,-0.04279 0.33333,-0.05556c0.1209,-0.02854 0.21548,-0.08297 0.38889,-0.11111c0.05484,-0.0089 0.10132,-0.02701 0.22222,-0.05556c0.05407,-0.01276 0.1126,0.01276 0.16667,0c0.1209,-0.02854 0.15848,-0.06517 0.22222,-0.11111c0.10078,-0.07264 0.16667,-0.11111 0.22222,-0.16667c0.05556,-0.05556 0.02921,-0.11941 0,-0.16667c-0.06531,-0.10567 -0.22279,-0.04181 -0.38889,-0.05556c-0.33678,-0.02787 -0.60344,-0.13753 -0.94444,-0.22222c-0.32797,-0.08146 -0.66585,-0.11719 -1.05556,-0.16667c-0.49907,-0.06336 -0.94444,-0.05556 -1.27778,-0.05556c-0.44444,0 -0.83333,0 -1.22222,0c-0.33333,0 -0.72222,0 -1.11111,0c-0.27778,0 -0.67136,-0.02637 -1.05556,0.05556c-0.39556,0.08435 -0.71926,0.19438 -1.11111,0.22222c-0.22166,0.01575 -0.50067,-0.00452 -0.88889,0.05556c-0.33396,0.05168 -0.55556,0.05556 -0.83333,0.05556c-0.22222,0 -0.44444,0 -0.61111,0c-0.22222,0 -0.39014,0.02036 -0.55556,0c-0.22735,-0.02799 -0.33333,-0.11111 -0.38889,-0.11111c-0.11111,0 -0.27778,0 -0.38889,-0.05556c-0.11111,-0.05556 -0.22222,-0.11111 -0.33333,-0.16667c-0.11111,-0.05556 -0.27926,-0.04279 -0.33333,-0.05556c-0.1209,-0.02854 -0.16815,-0.04279 -0.22222,-0.05556c-0.1209,-0.02854 -0.16667,-0.05556 -0.16667,-0.11111c0,-0.05556 0,-0.11111 0,-0.16667c0,-0.05556 -0.01703,-0.1366 0.05556,-0.16667c0.05133,-0.02126 0.16964,-0.08558 0.27778,-0.11111c0.24181,-0.05708 0.44913,-0.14029 0.83333,-0.22222c0.39556,-0.08435 0.83333,-0.16667 1.22222,-0.16667c0.55556,0 1.16667,0 1.77778,0c0.55556,0 1.22222,0 1.83333,0c0.55556,0 1.16667,0 1.66667,0c0.55556,0 1,0 1.33333,0c0.38889,0 0.66667,0 0.94444,0c0.22222,0 0.44444,0 0.66667,0c0.16667,0 0.2785,0.0089 0.33333,0c0.17341,-0.02814 0.3163,-0.08104 0.38889,-0.11111c0.05133,-0.02126 0.22366,-0.03776 0.33333,-0.05556c0.17341,-0.02814 0.2785,-0.04666 0.33333,-0.05556c0.17341,-0.02814 0.27778,-0.05556 0.38889,-0.05556c0.16667,0 0.33333,0 0.38889,0c0.11111,0 0.16667,0 0.22222,0c0.11111,0 0.22519,0.02553 0.33333,0c0.1209,-0.02854 0.16667,-0.11111 0.22222,-0.11111c0.05556,0 0.15039,-0.01627 0.11111,-0.05556c-0.03928,-0.03928 -0.16667,0.05556 -0.27778,0.16667c-0.11111,0.11111 -0.28144,0.27098 -0.38889,0.33333c-0.17325,0.10054 -0.28954,0.20634 -0.44444,0.33333c-0.18228,0.14943 -0.295,0.24097 -0.44444,0.33333c-0.13367,0.08261 -0.20586,0.13034 -0.33333,0.22222c-0.10078,0.07264 -0.22222,0.05556 -0.33333,0.05556c-0.05556,0 -0.11111,0 -0.16667,0c-0.05556,0 -0.11111,-0.05556 -0.11111,-0.16667c0,-0.05556 0,-0.16667 0,-0.27778c0,-0.16667 -0.03229,-0.30105 0.05556,-0.38889c0.08784,-0.08784 0.22001,-0.22689 0.33333,-0.27778c0.27292,-0.12256 0.5,-0.16667 0.66667,-0.16667c0.22222,0 0.45428,-0.03638 0.72222,0.05556c0.235,0.08063 0.3439,0.16008 0.44444,0.33333c0.06235,0.10744 0.11111,0.22222 0.11111,0.27778c0,0.11111 0,0.22222 -0.05556,0.27778c-0.05556,0.05556 -0.22222,0.11111 -0.27778,0.11111c-0.11111,0 -0.22222,0 -0.33333,-0.05556c-0.11111,-0.05556 -0.13029,-0.23205 -0.22222,-0.5c-0.08063,-0.235 -0.16667,-0.55556 -0.16667,-0.77778c0,-0.27778 0,-0.61111 0.05556,-0.83333c0.05556,-0.22222 0.22845,-0.38435 0.38889,-0.61111c0.11569,-0.16352 0.20514,-0.28811 0.27778,-0.38889c0.09188,-0.12747 0.13438,-0.18994 0.22222,-0.27778c0.08784,-0.08784 0.18994,-0.07882 0.27778,-0.16667c0.08784,-0.08784 0.09403,-0.12145 0.16667,-0.22222c0.04594,-0.06374 0.05556,-0.11111 0.11111,-0.16667c0.05556,-0.05556 0.12073,-0.10293 0.16667,-0.16667c0.07264,-0.10078 0.12073,-0.21404 0.16667,-0.27778c0.07264,-0.10078 0.08558,-0.22519 0.11111,-0.33333c0.02854,-0.1209 0.14114,-0.22519 0.16667,-0.33333c0.02854,-0.1209 0.09331,-0.22366 0.11111,-0.33333c0.02814,-0.17341 0.11913,-0.27412 0.16667,-0.38889c0.06723,-0.16231 0.09332,-0.33477 0.11111,-0.44444c0.02814,-0.17341 0.04666,-0.27849 0.05556,-0.33333c0.02814,-0.17341 0.05556,-0.33333 0.05556,-0.38889c0,-0.11111 0,-0.22222 0,-0.33333c0,-0.11111 0,-0.22222 -0.05556,-0.33333c-0.05556,-0.11111 -0.03847,-0.23256 -0.11111,-0.33333c-0.04594,-0.06374 -0.0881,-0.0881 -0.16667,-0.16667c-0.07857,-0.07857 -0.11111,-0.16667 -0.16667,-0.27778c-0.05556,-0.11111 -0.08985,-0.1709 -0.11111,-0.22222c-0.06013,-0.14517 -0.1503,-0.13034 -0.27778,-0.22222c-0.10078,-0.07264 -0.18816,-0.16209 -0.33333,-0.22222c-0.10265,-0.04252 -0.28662,-0.08948 -0.44444,-0.16667c-0.17994,-0.08801 -0.33769,-0.15499 -0.5,-0.22222c-0.11477,-0.04754 -0.21243,-0.13813 -0.33333,-0.16667c-0.10814,-0.02553 -0.26075,-0.08104 -0.33333,-0.11111c-0.10265,-0.04252 -0.18389,-0.01875 -0.33333,-0.11111c-0.06684,-0.04131 -0.1238,0.00822 -0.27778,-0.05556c-0.07259,-0.03007 -0.11957,-0.06859 -0.22222,-0.11111c-0.07259,-0.03007 -0.11111,-0.05556 -0.22222,-0.05556c-0.16667,0 -0.27778,0 -0.33333,0c-0.11111,0 -0.22222,0 -0.38889,0c-0.11111,0 -0.26451,0.07866 -0.44444,0.16667c-0.15782,0.07719 -0.32602,0.12714 -0.55556,0.22222c-0.16231,0.06723 -0.38629,0.11511 -0.55556,0.22222c-0.27373,0.17323 -0.46511,0.24362 -0.66667,0.38889c-0.19121,0.13782 -0.38889,0.27778 -0.55556,0.44444c-0.22222,0.22222 -0.38889,0.33333 -0.55556,0.5c-0.11111,0.11111 -0.23371,0.21181 -0.33333,0.33333c-0.12699,0.15491 -0.21564,0.23279 -0.38889,0.33333c-0.10744,0.06235 -0.20586,0.1859 -0.33333,0.27778c-0.10078,0.07264 -0.21404,0.17628 -0.27778,0.22222c-0.10078,0.07264 -0.17843,0.09523 -0.33333,0.22222c-0.06076,0.04981 -0.12144,0.14959 -0.22222,0.22222c-0.06374,0.04594 -0.22508,0.09452 -0.16667,0c0.06531,-0.10567 0.27778,-0.22222 0.44444,-0.33333c0.33333,-0.22222 0.69481,-0.38965 1.16667,-0.66667c0.4791,-0.28127 0.93206,-0.63268 1.5,-0.94444c0.43559,-0.23911 0.93713,-0.40492 1.16667,-0.5c0.16231,-0.06723 0.32911,-0.07682 0.27778,-0.05556c-0.14517,0.06013 -0.28041,0.21877 -0.5,0.38889c-0.28121,0.21786 -0.59757,0.46445 -1,0.72222c-0.37716,0.24159 -0.79459,0.40993 -1.27778,0.66667c-0.46283,0.24592 -0.93909,0.45949 -1.38889,0.61111c-0.54963,0.18527 -0.99721,0.2912 -1.5,0.38889c-0.33173,0.06445 -0.66667,0.11111 -0.88889,0.11111c-0.22222,0 -0.5,0 -0.55556,-0.05556c-0.11111,-0.11111 -0.19368,-0.15687 -0.22222,-0.27778c-0.01276,-0.05407 -0.03681,-0.18389 0.05556,-0.33333c0.04131,-0.06683 0.21243,-0.19368 0.33333,-0.22222c0.05407,-0.01276 0.22222,0 0.22222,0.16667c0,0.22222 -0.02004,0.62306 -0.16667,1c-0.1351,0.34733 -0.34038,0.70471 -0.61111,1c-0.2404,0.26221 -0.53405,0.48714 -0.83333,0.61111c-0.21163,0.08766 -0.44032,0.13875 -0.72222,0.16667c-0.16586,0.01642 -0.35131,-0.0289 -0.44444,-0.11111c-0.15017,-0.13256 -0.22866,-0.27577 -0.27778,-0.44444c-0.06404,-0.21993 -0.10895,-0.39319 -0.05556,-0.72222c0.02814,-0.17341 0.23403,-0.42618 0.5,-0.61111c0.29206,-0.20308 0.59153,-0.44292 0.83333,-0.5c0.10814,-0.02553 0.25721,-0.0764 0.44444,0.05556c0.16373,0.11539 0.22222,0.38889 0.22222,0.61111c0,0.44444 0.05652,0.96996 -0.16667,1.38889c-0.22471,0.42178 -0.45349,0.75608 -0.66667,1c-0.23409,0.26785 -0.60423,0.40795 -0.88889,0.5c-0.21795,0.07048 -0.5,0.11111 -0.61111,0.11111c-0.22222,0 -0.32654,-0.00367 -0.38889,-0.11111c-0.10054,-0.17325 -0.24979,-0.38377 -0.27778,-0.61111c-0.04073,-0.33084 0.01782,-0.60703 0.11111,-1.05556c0.06881,-0.33085 0.28358,-0.75081 0.55556,-1.16667c0.2375,-0.36314 0.6005,-0.57341 0.77778,-0.66667c0.26478,-0.13928 0.33417,-0.12469 0.44444,-0.11111c0.22735,0.02799 0.28427,0.27598 0.38889,0.66667c0.1185,0.44253 0.16667,1.05556 0.16667,1.5c0,0.44444 -0.04581,0.94785 -0.16667,1.27778c-0.1029,0.28092 -0.25215,0.47814 -0.38889,0.55556c-0.19933,0.11286 -0.38889,0.11111 -0.44444,0.11111c-0.16667,0 -0.28811,-0.03848 -0.38889,-0.11111c-0.19121,-0.13782 -0.35827,-0.43468 -0.5,-0.83333c-0.13549,-0.38108 -0.16667,-0.83333 -0.16667,-1.22222c0,-0.44444 0.04331,-1.00634 0.27778,-1.44444c0.21135,-0.39491 0.42942,-0.73494 0.66667,-1c0.1048,-0.11709 0.22222,-0.16667 0.27778,-0.16667c0.11111,0 0.29211,0.05024 0.38889,0.33333c0.13083,0.38271 0.19634,0.88423 0.27778,1.5c0.08772,0.6632 0.14404,1.33923 0.05556,2c-0.08408,0.62783 -0.37375,1.10851 -0.72222,1.5c-0.23652,0.26571 -0.58174,0.46993 -0.94444,0.55556c-0.21628,0.05106 -0.3362,0.0356 -0.55556,0c-0.17341,-0.02814 -0.30942,-0.17406 -0.38889,-0.38889c-0.0862,-0.23302 -0.19437,-0.5526 -0.22222,-0.94444c-0.02363,-0.33249 -0.01462,-0.83844 0.16667,-1.33333c0.20581,-0.56184 0.61111,-1.05556 1,-1.44444c0.44444,-0.44444 0.82448,-0.74088 1.27778,-0.94444c0.27292,-0.12256 0.50081,-0.12753 0.66667,-0.11111c0.2819,0.02791 0.42462,0.21237 0.5,0.55556c0.10792,0.49136 0.0874,1.05872 0,1.77778c-0.08155,0.67092 -0.32686,1.30031 -0.55556,1.83333c-0.17661,0.41162 -0.44444,0.72222 -0.66667,0.94444c-0.22222,0.22222 -0.44444,0.33333 -0.55556,0.38889c-0.11111,0.05556 -0.24146,0.07192 -0.33333,-0.05556c-0.07264,-0.10078 -0.19437,-0.38593 -0.22222,-0.77778c-0.02757,-0.38791 0,-0.88889 0,-1.5c0,-0.66667 0.06396,-1.23861 0.27778,-1.77778c0.22898,-0.57738 0.43324,-1.04949 0.77778,-1.44444c0.28524,-0.32697 0.60797,-0.50821 0.88889,-0.61111c0.16496,-0.06043 0.29469,-0.1406 0.5,-0.05556c0.14517,0.06013 0.28688,0.3875 0.33333,0.72222c0.06916,0.4983 0.08526,1.00053 0.05556,1.83333c-0.0278,0.77926 -0.17494,1.55261 -0.38889,2.16667c-0.17341,0.4977 -0.37369,0.9052 -0.61111,1.11111c-0.20985,0.182 -0.38214,0.24964 -0.55556,0.27778c-0.16452,0.0267 -0.31553,-0.08728 -0.44444,-0.33333c-0.16307,-0.31123 -0.24995,-0.77518 -0.27778,-1.22222c-0.02762,-0.44358 -0.03021,-1.05624 0,-1.72222c0.02781,-0.613 0.11738,-1.13607 0.38889,-1.61111c0.23715,-0.41492 0.6051,-0.7331 1,-0.94444c0.32858,-0.17585 0.66322,-0.30546 1,-0.33333c0.22147,-0.01833 0.36183,0.033 0.44444,0.16667c0.09236,0.14944 0.13884,0.55296 0.16667,1c0.03107,0.49903 0.02735,1.28041 -0.05556,2c-0.08364,0.72592 -0.3806,1.44914 -0.66667,1.94444c-0.32403,0.56103 -0.65232,1.01818 -1,1.27778c-0.321,0.23969 -0.65992,0.36075 -0.83333,0.38889c-0.10968,0.0178 -0.31474,0.02743 -0.38889,-0.11111c-0.13367,-0.24976 -0.11111,-0.61111 -0.11111,-1c0,-0.44444 0.02927,-1.06092 0.16667,-1.66667c0.14012,-0.61774 0.43795,-1.32684 0.88889,-1.83333c0.44484,-0.49965 0.91,-0.84259 1.38889,-1.05556c0.36955,-0.16435 0.77778,-0.16667 1,-0.16667c0.33333,0 0.5427,0.03405 0.66667,0.33333c0.17532,0.42325 0.16667,1 0.16667,1.55556c0,0.83333 -0.09277,1.56288 -0.38889,2.27778c-0.20939,0.50551 -0.53763,1.01894 -0.88889,1.33333c-0.26506,0.23724 -0.5023,0.3804 -0.72222,0.44444c-0.16868,0.04912 -0.29351,0.0796 -0.38889,0c-0.21326,-0.17799 -0.36108,-0.55348 -0.38889,-1.11111c-0.02214,-0.44389 -0.0113,-1.11629 0.22222,-1.61111c0.26509,-0.56172 0.5877,-1.08047 1,-1.44444c0.47487,-0.41921 0.90074,-0.76684 1.44444,-0.94444c0.42576,-0.13908 0.68078,-0.15936 1.05556,-0.05556c0.31219,0.08647 0.49016,0.48083 0.61111,0.83333c0.18387,0.53589 0.24296,1.06769 0.11111,1.77778c-0.14126,0.7608 -0.52524,1.24735 -0.94444,1.72222c-0.31198,0.3534 -0.66265,0.56843 -1,0.66667c-0.21993,0.06404 -0.3494,0.10841 -0.61111,0c-0.18506,-0.07666 -0.36372,-0.38026 -0.44444,-0.72222c-0.09026,-0.38233 -0.17112,-0.73325 -0.05556,-1.33333c0.11315,-0.58756 0.51504,-1.09657 0.94444,-1.55556c0.40346,-0.43126 0.86888,-0.81718 1.27778,-1c0.32076,-0.14342 0.61236,-0.18703 0.77778,-0.16667c0.22735,0.02799 0.33333,0.27778 0.33333,0.5c0,0.27778 -0.00759,0.83087 -0.16667,1.33333c-0.17506,0.55297 -0.39408,1.10727 -0.72222,1.55556c-0.28228,0.38563 -0.60592,0.67466 -0.94444,0.88889c-0.27373,0.17323 -0.49325,0.24964 -0.66667,0.27778c-0.16451,0.0267 -0.40492,-0.04824 -0.5,-0.27778c-0.13446,-0.32462 -0.24995,-0.71963 -0.27778,-1.16667c-0.03452,-0.55448 0.04877,-1.19587 0.33333,-1.72222c0.32251,-0.59655 0.73034,-1.16426 1.22222,-1.55556c0.41016,-0.32629 0.81484,-0.49687 1.22222,-0.61111c0.37825,-0.10607 0.68363,-0.09102 0.94444,0.05556c0.24216,0.13609 0.36357,0.43705 0.44444,0.83333c0.08957,0.43886 0.09041,1.06723 -0.11111,1.61111c-0.19011,0.51307 -0.56703,1.0932 -1,1.55556c-0.45727,0.4883 -0.94444,0.72222 -1.33333,0.94444c-0.38889,0.22222 -0.71548,0.36075 -0.88889,0.38889c-0.16451,0.0267 -0.34135,0.00366 -0.38889,-0.11111c-0.06723,-0.16231 -0.17565,-0.50471 -0.11111,-0.94444c0.08423,-0.57387 0.35006,-1.18951 0.72222,-1.77778c0.40399,-0.63858 0.93016,-1.18301 1.5,-1.66667c0.54242,-0.46039 1.10452,-0.79408 1.5,-0.94444c0.32843,-0.12487 0.54195,-0.24105 0.72222,-0.11111c0.14252,0.10272 0.13882,0.38593 0.16667,0.77778c0.04726,0.66499 -0.15214,1.33868 -0.44444,2.11111c-0.31766,0.83943 -0.65153,1.4974 -1,1.88889c-0.23652,0.26571 -0.4194,0.49751 -0.61111,0.55556c-0.15952,0.0483 -0.27778,-0.16667 -0.27778,-0.5c0,-0.27778 -0.05116,-0.90044 0.11111,-1.5c0.16988,-0.62768 0.55361,-1.27883 0.94444,-2c0.33168,-0.61201 0.74774,-1.30321 1.22222,-1.83333c0.31439,-0.35126 0.44988,-0.5458 0.55556,-0.61111c0.09452,-0.05841 0.11111,0.05556 0,0.27778c-0.22222,0.44444 -0.495,0.89243 -0.88889,1.44444c-0.4389,0.6151 -0.94444,1.38889 -1.61111,2.05556c-0.55556,0.55556 -1.05376,1.1215 -1.55556,1.5c-0.45664,0.34444 -0.8827,0.56634 -1.16667,0.72222c-0.1089,0.05978 -0.23052,0.14032 -0.27778,0.11111c-0.10567,-0.06531 -0.067,-0.28264 0.05556,-0.55556c0.20356,-0.4533 0.57892,-0.9143 1.11111,-1.55556c0.57757,-0.69593 1.3155,-1.40844 2.16667,-2.16667c1.08889,-0.96998 2.22303,-1.7766 3.27778,-2.5c0.88957,-0.61012 1.66667,-1.11111 2.11111,-1.33333c0.33333,-0.16667 0.58985,-0.3291 0.61111,-0.27778c0.03007,0.07259 -0.24709,0.19523 -0.61111,0.55556c-0.41972,0.41546 -0.91481,0.91958 -1.5,1.55556c-0.6406,0.6962 -1.24829,1.52602 -1.88889,2.22222c-0.42559,0.46253 -0.77778,0.66667 -0.94444,0.83333c-0.05556,0.05556 -0.13628,0.04931 -0.05556,-0.22222c0.08525,-0.28677 0.27859,-0.80967 0.55556,-1.22222c0.32917,-0.49032 0.77778,-0.94444 1.27778,-1.38889c0.5,-0.44444 0.93347,-0.69072 1.27778,-0.83333c0.32462,-0.13446 0.42035,-0.20856 0.55556,-0.11111c0.14252,0.10272 0.11577,0.39186 0.05556,1c-0.05583,0.5638 -0.34232,1.35536 -0.83333,2.33333c-0.45761,0.91144 -1.13731,1.74838 -1.83333,2.5c-0.53383,0.57647 -1.1052,1.01093 -1.61111,1.27778c-0.32963,0.17387 -0.54881,0.30519 -0.72222,0.33333c-0.05484,0.0089 -0.13813,0.00979 -0.16667,-0.11111c-0.02553,-0.10814 0.03023,-0.46132 0.33333,-0.88889c0.41145,-0.58041 1.069,-1.207 1.88889,-1.94444c0.84752,-0.7623 1.75465,-1.58796 2.83333,-2.33333c0.92546,-0.6395 1.71593,-0.96086 2.27778,-1.16667c0.32993,-0.12085 0.44992,-0.1664 0.44444,-0.11111c-0.02791,0.2819 -0.31197,0.68159 -0.66667,1.16667c-0.41994,0.5743 -0.90914,1.09353 -1.38889,1.66667c-0.40658,0.48573 -0.83333,0.88889 -1.22222,1.22222c-0.38889,0.33333 -0.52149,0.55098 -0.66667,0.61111c-0.05133,0.02126 -0.05259,-0.10935 0.11111,-0.38889c0.22635,-0.3865 0.52292,-0.91401 1,-1.5c0.52144,-0.64047 1.02607,-1.3038 1.66667,-2c0.53199,-0.57816 1.01293,-0.92963 1.33333,-1.22222c0.17405,-0.15894 0.29405,-0.26151 0.33333,-0.22222c0.03928,0.03928 -0.12144,0.82829 -0.38889,1.38889c-0.28904,0.60586 -0.73,1.47229 -1.16667,2.16667c-0.40226,0.63967 -0.82213,1.10505 -1.16667,1.5c-0.28524,0.32697 -0.56589,0.48292 -0.66667,0.55556c-0.06374,0.04594 -0.11111,0.11111 -0.11111,0.05556c0,-0.27778 0.24358,-0.6466 0.55556,-1c0.41921,-0.47487 0.79473,-0.88247 1.27778,-1.22222c0.46785,-0.32906 0.89375,-0.433 1.16667,-0.55556c0.11332,-0.05089 0.19368,-0.06535 0.22222,0.05556c0.02553,0.10814 -0.00081,0.47633 -0.27778,0.88889c-0.32917,0.49032 -0.72493,0.88658 -1.05556,1.27778c-0.28009,0.3314 -0.54149,0.63174 -0.77778,0.77778c-0.10567,0.06531 -0.15516,0.18657 -0.27778,0.16667c-0.07755,-0.01258 -0.09758,-0.11512 -0.05556,-0.33333c0.05658,-0.29378 0.38439,-0.66992 0.66667,-1.05556c0.32814,-0.44829 0.86032,-0.98273 1.44444,-1.38889c0.53193,-0.36987 1.01057,-0.63297 1.44444,-0.83333c0.20796,-0.09603 0.42143,-0.18968 0.5,-0.11111c0.19642,0.19642 -0.20194,0.62643 -0.5,1c-0.41723,0.52292 -0.78159,0.94141 -1.22222,1.5c-0.39231,0.49732 -0.69943,0.96891 -1.05556,1.27778c-0.20985,0.182 -0.43469,0.33877 -0.5,0.44444c-0.02921,0.04726 -0.09808,0.10265 -0.05556,0c0.0902,-0.21776 0.33333,-0.38889 0.61111,-0.72222c0.27778,-0.33333 0.53809,-0.73455 0.77778,-1.05556c0.2596,-0.34768 0.51271,-0.59609 0.77778,-0.83333c0.17563,-0.1572 0.22766,-0.32358 0.33333,-0.38889c0.04726,-0.02921 0.05556,0.16667 -0.05556,0.44444c-0.11111,0.27778 -0.26757,0.72618 -0.44444,1.16667c-0.15765,0.39263 -0.39538,0.88709 -0.5,1.27778c-0.05925,0.22127 -0.13812,0.3791 -0.16667,0.5c-0.01276,0.05407 0.04843,-0.06053 0.16667,-0.22222c0.20997,-0.28715 0.4877,-0.62398 0.77778,-0.88889c0.3204,-0.2926 0.4587,-0.52327 0.72222,-0.61111c0.0527,-0.01757 0.19336,-0.0534 0.16667,0.11111c-0.02814,0.17341 -0.20798,0.39884 -0.44444,0.72222c-0.20997,0.28715 -0.41028,0.57622 -0.55556,0.77778c-0.09188,0.12747 -0.15687,0.24924 -0.27778,0.27778c-0.05407,0.01276 -0.12738,-0.01627 -0.16667,-0.05556c-0.03928,-0.03928 -0.09408,-0.08104 -0.16667,-0.11111c-0.10265,-0.04252 -0.22222,0 -0.33333,0c-0.22222,0 -0.55556,-0.05556 -0.83333,-0.05556c-0.38889,0 -0.83333,0 -1.33333,0c-0.66667,0 -1.33333,0 -2,0c-0.61111,0 -1.11111,0 -1.5,0c-0.33333,0 -0.51269,0.06378 -0.66667,0c-0.07259,-0.03007 -0.09808,-0.11957 -0.05556,-0.22222c0.06013,-0.14517 0.18836,-0.25066 0.33333,-0.38889c0.23445,-0.22355 0.61843,-0.43166 1.11111,-0.72222c0.45145,-0.26624 0.85508,-0.46099 1.27778,-0.72222c0.23629,-0.14604 0.38214,-0.24964 0.55556,-0.27778c0.05484,-0.0089 0.06723,0.11547 0,0.27778c-0.04754,0.11477 -0.154,0.28442 -0.33333,0.61111c-0.15588,0.28397 -0.32489,0.55998 -0.44444,0.77778c-0.15588,0.28397 -0.24372,0.43987 -0.38889,0.5c-0.05133,0.02126 -0.12001,0.05484 -0.11111,0c0.02814,-0.17341 0.14069,-0.28883 0.22222,-0.44444c0.12892,-0.24605 0.24556,-0.48799 0.38889,-0.66667c0.07773,-0.0969 0.16667,-0.16667 0.22222,-0.22222c0.05556,-0.05556 0.11111,-0.11111 0.16667,-0.22222c0.05556,-0.11111 0.12168,-0.2712 0.22222,-0.44444c0.1247,-0.21489 0.22457,-0.55422 0.44444,-0.94444c0.28078,-0.49832 0.69155,-1.02475 1.05556,-1.44444c0.41182,-0.47483 0.86019,-0.91574 1.27778,-1.33333c0.41759,-0.41759 0.78482,-0.86762 1.11111,-1.27778c0.19565,-0.24594 0.46048,-0.54824 0.55556,-0.77778c0.06723,-0.16231 0.19368,-0.26799 0.22222,-0.38889c0.01276,-0.05407 0.03928,-0.12738 0,-0.16667c-0.03928,-0.03928 -0.11111,0 -0.27778,0c-0.16667,0 -0.39335,-0.03829 -0.55556,0c-0.24181,0.05708 -0.66213,0.28401 -0.88889,0.44444c-0.32704,0.23139 -0.66667,0.38889 -0.94444,0.61111c-0.27778,0.22222 -0.53729,0.4007 -0.72222,0.66667c-0.20308,0.29207 -0.38889,0.61111 -0.55556,0.94444c-0.16667,0.33333 -0.26063,0.55954 -0.33333,0.83333c-0.04509,0.1698 -0.05556,0.22222 -0.05556,0.27778c0,0.05556 -0.05556,0.16667 0,0.16667c0.05556,0 0.11111,-0.22222 0.27778,-0.5c0.16667,-0.27778 0.4319,-0.62415 0.77778,-0.94444c0.37581,-0.34801 0.76301,-0.73767 1.11111,-1.05556c0.3204,-0.2926 0.62833,-0.46319 0.77778,-0.55556c0.06683,-0.04131 0.11111,-0.05556 0.11111,0.16667c0,0.16667 -0.14575,0.40256 -0.33333,0.66667c-0.25126,0.35375 -0.52039,0.59212 -0.77778,0.88889c-0.182,0.20985 -0.31625,0.34367 -0.38889,0.44444c-0.09188,0.12747 -0.16667,0.11111 -0.22222,0.11111c-0.05556,0 -0.09267,-0.12385 0,-0.33333c0.08104,-0.18319 0.2619,-0.34509 0.38889,-0.5c0.19924,-0.24304 0.39622,-0.26418 0.61111,-0.38889c0.17325,-0.10054 0.27778,-0.11111 0.38889,-0.11111c0.11111,0 0.09331,0.05699 0.11111,0.16667c0.02814,0.17341 0.13813,0.26799 0.16667,0.38889c0.02553,0.10814 0.05556,0.22222 0.11111,0.27778c0.05556,0.05556 0.13447,0.22699 0.16667,0.33333c0.05805,0.19171 0.23446,0.37749 0.38889,0.55556c0.182,0.20985 0.25443,0.45316 0.38889,0.77778c0.14262,0.34431 0.31778,0.72701 0.44444,1.11111c0.14865,0.45079 0.22222,1 0.22222,1.38889c0,0.44444 0.01145,0.89375 -0.11111,1.16667c-0.15267,0.33997 -0.24359,0.68608 -0.44444,1c-0.19172,0.29964 -0.39836,0.54659 -0.55556,0.72222c-0.23724,0.26506 -0.46076,0.48481 -0.66667,0.72222c-0.182,0.20985 -0.45532,0.42494 -0.66667,0.55556c-0.23629,0.14604 -0.44444,0.33333 -0.55556,0.44444c-0.11111,0.11111 -0.177,0.20514 -0.27778,0.27778c-0.12748,0.09188 -0.14964,0.19216 -0.22222,0.22222c-0.05133,0.02126 -0.10132,0.08257 -0.22222,0.11111c-0.05407,0.01276 -0.09408,0.08105 -0.16667,0.11111c-0.05133,0.02126 -0.17102,0.04388 -0.33333,0.11111c-0.11477,0.04754 -0.23256,0.14959 -0.33333,0.22222c-0.12747,0.09188 -0.22766,0.21247 -0.33333,0.27778c-0.23629,0.14603 -0.39622,0.31974 -0.61111,0.44444c-0.17325,0.10054 -0.33333,0.22222 -0.55556,0.38889c-0.22222,0.16667 -0.45682,0.318 -0.66667,0.5c-0.23742,0.20591 -0.43305,0.34557 -0.61111,0.5c-0.20985,0.182 -0.43038,0.24285 -0.66667,0.38889c-0.21135,0.13062 -0.44674,0.21374 -0.66667,0.27778c-0.16868,0.04912 -0.39186,0.14114 -0.5,0.16667c-0.1209,0.02854 -0.16667,0.05556 -0.22222,0.05556c-0.11111,0 -0.22222,0 -0.27778,0c-0.05556,0 -0.11111,0 -0.16667,0c-0.05556,0 -0.12738,0.03928 -0.16667,0c-0.03928,-0.03928 -0.09403,-0.12144 -0.16667,-0.22222c-0.09188,-0.12747 -0.21463,-0.28593 -0.33333,-0.38889c-0.20985,-0.182 -0.40152,-0.26583 -0.61111,-0.5c-0.23724,-0.26506 -0.48498,-0.45716 -0.72222,-0.72222c-0.26199,-0.29272 -0.51579,-0.59618 -0.77778,-0.88889c-0.23724,-0.26506 -0.44444,-0.61111 -0.66667,-0.94444c-0.22222,-0.33333 -0.35403,-0.73909 -0.55556,-1.11111c-0.19082,-0.35225 -0.46559,-0.6535 -0.66667,-1c-0.18706,-0.32233 -0.33333,-0.66667 -0.55556,-0.94444c-0.22222,-0.27778 -0.37025,-0.581 -0.5,-0.77778c-0.16469,-0.24976 -0.29787,-0.46141 -0.44444,-0.72222c-0.13609,-0.24216 -0.33733,-0.44185 -0.44444,-0.61111c-0.17323,-0.27373 -0.23389,-0.43615 -0.38889,-0.66667c-0.18076,-0.26882 -0.24008,-0.48939 -0.33333,-0.66667c-0.13928,-0.26478 -0.20507,-0.44843 -0.27778,-0.72222c-0.04509,-0.1698 -0.19408,-0.32659 -0.22222,-0.5c-0.0267,-0.16451 -0.00644,-0.27577 -0.05556,-0.44444c-0.06404,-0.21993 -0.11111,-0.38889 -0.11111,-0.5c0,-0.16667 -0.08257,-0.32354 -0.11111,-0.44444c-0.02553,-0.10814 0,-0.22222 0,-0.38889c0,-0.11111 0,-0.22222 0,-0.33333c0,-0.16667 0.02336,-0.28255 0.05556,-0.38889c0.05805,-0.19171 0.14959,-0.28811 0.22222,-0.38889c0.09188,-0.12747 0.22222,-0.27778 0.33333,-0.38889c0.11111,-0.11111 0.13614,-0.24725 0.27778,-0.38889c0.14164,-0.14164 0.28811,-0.20514 0.38889,-0.27778c0.12747,-0.09188 0.33333,-0.11111 0.5,-0.16667c0.16667,-0.05556 0.33333,-0.11111 0.5,-0.11111c0.16667,0 0.33333,0 0.44444,-0.05556c0.11111,-0.05556 0.15687,-0.08257 0.27778,-0.11111c0.05407,-0.01276 0.1366,0.01703 0.16667,-0.05556c0.02126,-0.05133 -0.03852,-0.08104 -0.11111,-0.11111c-0.05133,-0.02126 -0.16667,0 -0.27778,0c-0.11111,0 -0.27778,0 -0.44444,0c-0.22222,0 -0.30579,-0.05358 -0.55556,0.11111c-0.06559,0.04325 -0.15907,0.11927 -0.27778,0.22222c-0.20985,0.182 -0.39836,0.43548 -0.55556,0.61111c-0.23724,0.26506 -0.45244,0.55036 -0.66667,0.88889c-0.17323,0.27373 -0.32189,0.50486 -0.44444,0.77778c-0.15267,0.33997 -0.28599,0.55241 -0.38889,0.83333c-0.06043,0.16496 -0.11111,0.44444 -0.16667,0.61111c-0.05556,0.16667 -0.02404,0.28078 -0.05556,0.44444c-0.05658,0.29378 -0.16667,0.44444 -0.16667,0.55556c0,0.22222 -0.05556,0.38889 -0.05556,0.55556c0,0.16667 0,0.38889 0,0.55556c0,0.22222 0,0.38889 0,0.55556c0,0.16667 -0.02553,0.44742 0,0.55556c0.02854,0.1209 0.04388,0.17102 0.11111,0.33333c0.04754,0.11477 0.08948,0.28663 0.16667,0.44444c0.08801,0.17994 0.12897,0.32272 0.22222,0.5c0.13928,0.26478 0.20863,0.45178 0.33333,0.66667c0.10054,0.17325 0.19169,0.3028 0.33333,0.44444c0.14164,0.14164 0.31745,0.23398 0.44444,0.38889c0.14943,0.18228 0.31374,0.22446 0.5,0.38889c0.15017,0.13256 0.26737,0.28927 0.38889,0.38889c0.15491,0.12699 0.38071,0.28739 0.44444,0.33333c0.10078,0.07264 0.18294,0.12738 0.22222,0.16667c0.03928,0.03928 0.05556,-0.11111 0.05556,-0.27778c0,-0.16667 0.06382,-0.45188 0,-0.72222c-0.05708,-0.24181 -0.22222,-0.55556 -0.33333,-0.88889c-0.11111,-0.33333 -0.2414,-0.56539 -0.33333,-0.83333c-0.08063,-0.235 -0.24627,-0.54458 -0.38889,-0.88889c-0.13446,-0.32462 -0.19706,-0.5618 -0.27778,-0.83333c-0.08525,-0.28677 -0.16667,-0.61111 -0.16667,-0.83333c0,-0.33333 -0.05556,-0.66667 -0.05556,-0.94444c0,-0.22222 0,-0.44444 0,-0.66667c0,-0.16667 0.04411,-0.4493 0.16667,-0.72222c0.10178,-0.22665 0.21374,-0.5023 0.27778,-0.72222c0.04912,-0.16868 0.21395,-0.36029 0.33333,-0.61111c0.09844,-0.20683 0.16667,-0.33333 0.27778,-0.44444c0.11111,-0.11111 0.31772,-0.29501 0.5,-0.44444c0.15491,-0.12699 0.354,-0.24362 0.55556,-0.38889c0.12747,-0.09188 0.21181,-0.23371 0.33333,-0.33333c0.15491,-0.12699 0.31697,-0.24145 0.44444,-0.33333c0.10078,-0.07264 0.27778,-0.11111 0.38889,-0.16667c0.11111,-0.05556 0.27832,-0.10016 0.38889,-0.11111c0.2819,-0.02791 0.5,-0.11111 0.66667,-0.11111c0.33333,0 0.61209,-0.02757 1,0c0.39185,0.02785 0.72621,0.14951 1,0.22222c0.33959,0.09018 0.71596,0.18759 1.05556,0.27778c0.27379,0.07271 0.60013,0.19072 0.94444,0.33333c0.32462,0.13446 0.57252,0.24232 0.83333,0.38889c0.24216,0.13609 0.43313,0.28674 0.61111,0.5c0.15919,0.19075 0.27778,0.44444 0.38889,0.66667c0.11111,0.22222 0.32053,0.41061 0.44444,0.61111c0.09236,0.14944 0.16667,0.27778 0.27778,0.38889c0.05556,0.05556 0.20519,0.08104 0.27778,0.11111c0.05133,0.02126 0.16667,0 0.27778,0c0.16667,0 0.27778,-0.11111 0.38889,-0.22222c0.22222,-0.22222 0.45523,-0.3827 0.61111,-0.66667c0.17934,-0.32669 0.3952,-0.66224 0.66667,-1.05556c0.22757,-0.32971 0.34733,-0.60447 0.5,-0.94444c0.12256,-0.27292 0.29841,-0.48593 0.44444,-0.72222c0.06531,-0.10567 0.15687,-0.19368 0.27778,-0.22222c0.05407,-0.01276 0.11111,0 0.22222,0c0.11111,0 0.14959,0.12144 0.22222,0.22222c0.09188,0.12747 0.19943,0.29072 0.33333,0.5c0.19172,0.29964 0.32189,0.4493 0.44444,0.72222c0.10178,0.22665 0.2527,0.48722 0.33333,0.72222c0.09194,0.26795 0.13875,0.49588 0.16667,0.77778c0.03285,0.33171 0.08442,0.72638 0.16667,1.16667c0.08412,0.45033 0.11111,0.77778 0.11111,1.16667c0,0.27778 0,0.55556 0,0.72222c0,0.16667 0,0.38889 0,0.55556c0,0.27778 -0.05556,0.44444 -0.11111,0.61111c-0.05556,0.16667 -0.01353,0.28179 -0.05556,0.5c-0.05658,0.29378 -0.27529,0.4194 -0.33333,0.61111c-0.0322,0.10634 -0.09523,0.34509 -0.22222,0.5c-0.14943,0.18228 -0.318,0.40126 -0.5,0.61111c-0.15443,0.17806 -0.37749,0.40112 -0.55556,0.55556c-0.20985,0.182 -0.38889,0.33333 -0.55556,0.5c-0.16667,0.16667 -0.4016,0.37387 -0.66667,0.61111c-0.23417,0.20959 -0.5,0.38889 -0.77778,0.55556c-0.27778,0.16667 -0.50896,0.3748 -0.77778,0.55556c-0.23051,0.155 -0.32293,0.34482 -0.44444,0.44444c-0.15491,0.12699 -0.26737,0.28927 -0.38889,0.38889c-0.15491,0.12699 -0.27778,0.27778 -0.38889,0.38889c-0.16667,0.16667 -0.30911,0.29821 -0.5,0.5c-0.13765,0.14552 -0.24725,0.24725 -0.38889,0.38889c-0.14164,0.14164 -0.20586,0.24146 -0.33333,0.33333c-0.20156,0.14527 -0.39256,0.21543 -0.5,0.27778c-0.17325,0.10054 -0.31697,0.1859 -0.44444,0.27778c-0.10078,0.07264 -0.19718,0.16418 -0.38889,0.22222c-0.10634,0.0322 -0.21243,0.13812 -0.33333,0.16667c-0.10814,0.02553 -0.26075,0.08105 -0.33333,0.11111c-0.05133,0.02126 -0.17102,-0.01167 -0.33333,0.05556c-0.11477,0.04754 -0.16667,0.05556 -0.27778,0.05556c-0.16667,0 -0.28811,-0.03848 -0.38889,-0.11111c-0.12747,-0.09188 -0.32437,-0.23169 -0.5,-0.38889c-0.26506,-0.23724 -0.61111,-0.5 -0.88889,-0.83333c-0.27778,-0.33333 -0.59682,-0.69408 -0.88889,-1.16667c-0.26124,-0.42269 -0.45244,-0.77258 -0.66667,-1.11111c-0.17323,-0.27373 -0.23118,-0.51356 -0.33333,-0.77778c-0.11681,-0.30215 -0.30183,-0.54458 -0.44444,-0.88889c-0.13446,-0.32462 -0.20039,-0.67643 -0.33333,-0.94444c-0.14395,-0.2902 -0.30835,-0.53562 -0.44444,-0.77778c-0.14657,-0.26081 -0.20863,-0.45178 -0.33333,-0.66667c-0.10054,-0.17325 -0.27625,-0.42486 -0.33333,-0.66667c-0.05106,-0.21628 -0.05753,-0.52801 -0.22222,-0.77778c-0.12975,-0.19677 -0.24533,-0.43117 -0.33333,-0.61111c-0.07719,-0.15782 -0.13447,-0.3381 -0.16667,-0.44444c-0.05805,-0.19171 -0.1859,-0.26141 -0.27778,-0.38889c-0.07264,-0.10078 -0.11111,-0.27778 -0.16667,-0.38889c-0.05556,-0.11111 -0.13812,-0.21243 -0.16667,-0.33333c-0.02553,-0.10814 -0.05556,-0.22222 -0.11111,-0.33333c-0.05556,-0.11111 -0.05556,-0.27778 -0.05556,-0.38889c0,-0.11111 0,-0.27778 0,-0.44444c0,-0.16667 0,-0.27778 0,-0.5c0,-0.16667 0.15386,-0.41061 0.27778,-0.61111c0.09236,-0.14944 0.14959,-0.34367 0.22222,-0.44444c0.13782,-0.19121 0.2712,-0.39946 0.44444,-0.5c0.10744,-0.06235 0.27046,-0.23825 0.5,-0.33333c0.16231,-0.06723 0.3302,-0.17713 0.5,-0.22222c0.27379,-0.07271 0.44444,-0.05556 0.66667,-0.05556c0.27778,0 0.44538,-0.00537 0.77778,0.05556c0.27864,0.05107 0.55556,0.11111 0.83333,0.11111c0.27778,0 0.60968,0.06328 0.88889,0.11111c0.3872,0.06632 0.72691,0.08474 1.11111,0.16667c0.39556,0.08435 0.77778,0.22222 1.22222,0.33333c0.44444,0.11111 0.8365,0.26855 1.33333,0.44444c0.44745,0.15841 0.94951,0.43309 1.33333,0.61111c0.45078,0.20907 0.87075,0.37444 1.33333,0.66667c0.43303,0.27356 0.88446,0.56186 1.27778,0.83333c0.32971,0.22757 0.67331,0.37622 1,0.55556c0.28397,0.15588 0.5023,0.26929 0.72222,0.33333c0.16867,0.04912 0.27778,0.11111 0.33333,0.11111c0.11111,0 0.3028,0.03053 0.44444,-0.11111c0.14164,-0.14164 0.24509,-0.35578 0.44444,-0.61111c0.19341,-0.24771 0.38714,-0.46734 0.5,-0.66667c0.15484,-0.27348 0.38889,-0.44445 0.5,-0.55556c0.11111,-0.11111 0.20519,-0.24771 0.27778,-0.27778c0.05133,-0.02126 0.05556,-0.05556 0.16667,-0.05556c0.05556,0 0.13868,0.16154 0.16667,0.38889c0.02036,0.16542 0,0.44444 0,0.83333c0,0.44444 0.02151,0.94504 0,1.33333c-0.02782,0.50231 -0.13787,0.93778 -0.22222,1.33333c-0.08193,0.3842 -0.15291,0.78268 -0.27778,1.11111c-0.15036,0.39548 -0.31294,0.78878 -0.5,1.11111c-0.20108,0.3465 -0.42019,0.59458 -0.55556,0.88889c-0.07341,0.15961 -0.23825,0.32602 -0.33333,0.55556c-0.06723,0.16231 -0.15079,0.34509 -0.27778,0.5c-0.09962,0.12152 -0.24725,0.24725 -0.38889,0.38889c-0.14164,0.14164 -0.23459,0.26245 -0.44444,0.44444c-0.11871,0.10295 -0.28754,0.25595 -0.55556,0.38889c-0.2902,0.14395 -0.54726,0.345 -0.77778,0.5c-0.26882,0.18076 -0.55556,0.27778 -0.77778,0.44444c-0.22222,0.16667 -0.44444,0.33333 -0.72222,0.44444c-0.27778,0.11111 -0.50872,0.19887 -0.83333,0.33333c-0.22954,0.09508 -0.49874,0.22753 -0.72222,0.27778c-0.27638,0.06215 -0.4194,0.16418 -0.61111,0.22222c-0.15952,0.0483 -0.31188,0.07206 -0.44444,0.22222c-0.08221,0.09313 -0.17816,0.21181 -0.27778,0.33333c-0.12699,0.15491 -0.29701,0.26142 -0.38889,0.38889c-0.07264,0.10078 -0.177,0.14959 -0.27778,0.22222c-0.06374,0.04594 -0.14963,0.1366 -0.22222,0.16667c-0.05133,0.02126 -0.16667,0.05556 -0.22222,0.05556c-0.05556,0 -0.11111,0 -0.27778,0c-0.16667,0 -0.28663,-0.03392 -0.44444,-0.11111c-0.17994,-0.08801 -0.44785,-0.21248 -0.77778,-0.33333c-0.28092,-0.1029 -0.59712,-0.25378 -0.94444,-0.38889c-0.37694,-0.14662 -0.6535,-0.29892 -1,-0.5c-0.32233,-0.18706 -0.69019,-0.35712 -1,-0.61111c-0.3038,-0.24905 -0.59158,-0.5237 -0.83333,-0.83333c-0.19936,-0.25533 -0.41513,-0.52624 -0.66667,-0.77778c-0.25154,-0.25154 -0.4302,-0.5655 -0.66667,-0.88889c-0.20997,-0.28715 -0.39836,-0.54659 -0.55556,-0.72222c-0.23724,-0.26506 -0.436,-0.50443 -0.55556,-0.72222c-0.15588,-0.28397 -0.30407,-0.62743 -0.5,-0.94444c-0.14604,-0.23629 -0.3524,-0.49311 -0.44444,-0.77778c-0.07048,-0.21795 -0.176,-0.49557 -0.27778,-0.72222c-0.12256,-0.27292 -0.19632,-0.50537 -0.27778,-0.83333c-0.04235,-0.1705 -0.13868,-0.38377 -0.16667,-0.61111c-0.01358,-0.11028 0,-0.22222 0,-0.33333c0,-0.11111 0,-0.22222 0,-0.33333c0,-0.16667 0,-0.27778 0,-0.38889c0,-0.16667 0.03776,-0.27921 0.05556,-0.38889c0.02814,-0.17341 0.07431,-0.35056 0.16667,-0.5c0.08261,-0.13367 0.24725,-0.24725 0.38889,-0.38889c0.14164,-0.14164 0.24337,-0.25123 0.38889,-0.38889c0.20179,-0.19089 0.40065,-0.37301 0.55556,-0.5c0.24304,-0.19924 0.38889,-0.33333 0.66667,-0.5c0.27778,-0.16667 0.59704,-0.35396 0.83333,-0.5c0.31702,-0.19593 0.71563,-0.34964 1.11111,-0.5c0.49264,-0.1873 0.94956,-0.31872 1.44444,-0.5c0.28092,-0.1029 0.55804,-0.20897 0.88889,-0.27778c0.22426,-0.04664 0.38889,-0.05556 0.61111,-0.05556c0.22222,0 0.44243,0.00644 0.61111,0.05556c0.21993,0.06404 0.44849,0.10455 0.72222,0.27778c0.33852,0.21423 0.679,0.42698 1,0.66667c0.34768,0.2596 0.66323,0.50437 0.94444,0.72222c0.21959,0.17012 0.42808,0.29701 0.55556,0.38889c0.10078,0.07264 0.34482,0.15626 0.44444,0.27778c0.12699,0.15491 0.21768,0.28401 0.44444,0.44444c0.16352,0.11569 0.30667,0.29576 0.38889,0.38889c0.13256,0.15017 0.17415,0.2673 0.33333,0.38889c0.13962,0.10664 0.27778,0.16667 0.33333,0.22222c0.11111,0.11111 0.21702,0.22797 0.27778,0.27778c0.15491,0.12699 0.22222,0.22222 0.33333,0.27778l0,0.11111l0,0.05556l0,0.11111" id="svg_12" fill-opacity="0" stroke-opacity="null" stroke-width="1.5" stroke="#fdf1e1" fill="none"/>
 </g>
</svg>