<svg width="20" height="20" viewBox="0 0 20 20" fill="none" xmlns="http://www.w3.org/2000/svg">
<path fill-rule="evenodd" clip-rule="evenodd" d="M10.5204 19.0693L18.3645 10.7942C20.5452 8.44211 20.5452 4.8069 18.3644 2.45481C17.33 1.34289 15.8804 0.710225 14.3617 0.70788C13.1783 0.70925 12.0366 1.09287 11.1001 1.78758C10.8337 1.98514 10.584 2.20786 10.3546 2.4541L10.0015 2.82723L9.64836 2.4541C9.41292 2.2007 9.15905 1.97465 8.89075 1.77611C6.81629 0.240967 3.87875 0.349815 1.91953 2.17023C1.82148 2.26136 1.72679 2.35601 1.63565 2.4541C-0.545218 4.80644 -0.545218 8.44186 1.63565 10.7942L9.48255 19.0693C9.75403 19.3559 10.2064 19.3681 10.493 19.0966C10.5024 19.0878 10.5115 19.0786 10.5204 19.0693ZM3.09541 9.42698L10.0013 16.7097L16.9047 9.42705C18.3671 7.84212 18.3651 5.39818 16.8987 3.81556C16.2425 3.11113 15.3238 2.71011 14.3612 2.70788C13.3965 2.70975 12.4756 3.11144 11.8179 3.81739L11.8126 3.82312L10.0015 5.73694L8.18942 3.82216L8.18318 3.81544C6.87928 2.41209 4.68462 2.3314 3.28117 3.63512M3.09541 9.42698C1.63282 7.84174 1.63487 5.39752 3.10154 3.81468C3.15884 3.75304 3.21894 3.69299 3.28117 3.63512" fill="#00978E"/>
</svg>
