<svg width="30" height="30" viewBox="0 0 30 30" fill="none" xmlns="http://www.w3.org/2000/svg">
<rect width="30" height="30" rx="5" fill="url(#paint0_linear)"/>
<path d="M14.9976 3.92353C10.4589 3.92353 6.14885 3.51978 4.5026 7.74478C3.8226 9.48978 3.92135 11.756 3.92135 15.001C3.92135 17.8485 3.8301 20.5248 4.5026 22.256C6.1451 26.4835 10.4901 26.0785 14.9951 26.0785C19.3414 26.0785 23.8226 26.531 25.4889 22.256C26.1701 20.4935 26.0701 18.261 26.0701 15.001C26.0701 10.6735 26.3089 7.87978 24.2101 5.78228C22.0851 3.65728 19.2114 3.92353 14.9926 3.92353H14.9976ZM14.0051 5.91978C23.4726 5.90478 24.6776 4.85228 24.0126 19.4735C23.7764 24.6448 19.8389 24.0773 14.9989 24.0773C6.17385 24.0773 5.9201 23.8248 5.9201 14.996C5.9201 6.06478 6.6201 5.92478 14.0051 5.91728V5.91978ZM20.9101 7.75853C20.1764 7.75853 19.5814 8.35353 19.5814 9.08728C19.5814 9.82103 20.1764 10.416 20.9101 10.416C21.6439 10.416 22.2389 9.82103 22.2389 9.08728C22.2389 8.35353 21.6439 7.75853 20.9101 7.75853ZM14.9976 9.31228C11.8564 9.31228 9.3101 11.8598 9.3101 15.001C9.3101 18.1423 11.8564 20.6885 14.9976 20.6885C18.1389 20.6885 20.6839 18.1423 20.6839 15.001C20.6839 11.8598 18.1389 9.31228 14.9976 9.31228ZM14.9976 11.3085C19.8789 11.3085 19.8851 18.6935 14.9976 18.6935C10.1176 18.6935 10.1101 11.3085 14.9976 11.3085Z" fill="white"/>
<defs>
<linearGradient id="paint0_linear" x1="2.01425" y1="28.0455" x2="29.8113" y2="3.98276" gradientUnits="userSpaceOnUse">
<stop stop-color="#FFDD55"/>
<stop offset="0.5" stop-color="#FF543E"/>
<stop offset="1" stop-color="#C837AB"/>
</linearGradient>
</defs>
</svg>
