<svg width="31" height="30" viewBox="0 0 31 30" fill="none" xmlns="http://www.w3.org/2000/svg">
<path d="M0.570312 0V30H30.5703V0H0.570312Z" fill="url(#paint0_linear_header_social)"/>
<path d="M15.5681 3.92378C11.0293 3.92378 6.71932 3.52003 5.07307 7.74503C4.39307 9.49003 4.49182 11.7563 4.49182 15.0013C4.49182 17.8488 4.40057 20.525 5.07307 22.2563C6.71557 26.4838 11.0606 26.0788 15.5656 26.0788C19.9118 26.0788 24.3931 26.5313 26.0593 22.2563C26.7406 20.4938 26.6406 18.2613 26.6406 15.0013C26.6406 10.6738 26.8793 7.88003 24.7806 5.78253C22.6556 3.65753 19.7818 3.92378 15.5631 3.92378H15.5681ZM14.5756 5.92003C24.0431 5.90503 25.2481 4.85253 24.5831 19.4738C24.3468 24.645 20.4093 24.0775 15.5693 24.0775C6.74432 24.0775 6.49057 23.825 6.49057 14.9963C6.49057 6.06503 7.19057 5.92503 14.5756 5.91753V5.92003ZM21.4806 7.75878C20.7468 7.75878 20.1518 8.35378 20.1518 9.08753C20.1518 9.82128 20.7468 10.4163 21.4806 10.4163C22.2143 10.4163 22.8093 9.82128 22.8093 9.08753C22.8093 8.35378 22.2143 7.75878 21.4806 7.75878V7.75878ZM15.5681 9.31253C12.4268 9.31253 9.88057 11.86 9.88057 15.0013C9.88057 18.1425 12.4268 20.6888 15.5681 20.6888C18.7093 20.6888 21.2543 18.1425 21.2543 15.0013C21.2543 11.86 18.7093 9.31253 15.5681 9.31253V9.31253ZM15.5681 11.3088C20.4493 11.3088 20.4556 18.6938 15.5681 18.6938C10.6881 18.6938 10.6806 11.3088 15.5681 11.3088Z" fill="white"/>
<defs>
<linearGradient id="paint0_linear_header_social" x1="2.50466" y1="28.3831" x2="30.6435" y2="4.26185" gradientUnits="userSpaceOnUse">
<stop stop-color="#FFDD55"/>
<stop offset="0.5" stop-color="#FF543E"/>
<stop offset="1" stop-color="#C837AB"/>
</linearGradient>
</defs>
</svg>
