<svg width="20" height="20" viewBox="0 0 20 20" fill="none" xmlns="http://www.w3.org/2000/svg">
<path d="M7.12638 6.07347L9.06149 4.13835V14.375C9.06149 14.6237 9.16027 14.8621 9.33608 15.0379C9.5119 15.2138 9.75035 15.3125 9.99899 15.3125C10.2476 15.3125 10.4861 15.2138 10.6619 15.0379C10.8377 14.8621 10.9365 14.6237 10.9365 14.375V4.13835L12.8716 6.07347C12.9586 6.16091 13.0619 6.23034 13.1758 6.27777C13.2896 6.3252 13.4117 6.3497 13.535 6.34986C13.6584 6.35003 13.7805 6.32586 13.8945 6.27874C14.0085 6.23163 14.112 6.16248 14.1992 6.07528C14.2864 5.98807 14.3556 5.88451 14.4027 5.77054C14.4498 5.65657 14.474 5.53442 14.4738 5.41109C14.4736 5.28776 14.4491 5.16568 14.4017 5.05183C14.3543 4.93799 14.2849 4.83462 14.1974 4.74765L10.6619 1.2121C10.5749 1.12504 10.4715 1.05598 10.3578 1.00887C10.244 0.961751 10.1221 0.9375 9.99899 0.9375C9.87587 0.9375 9.75396 0.961751 9.64022 1.00887C9.52647 1.05598 9.42312 1.12504 9.33606 1.2121L5.80056 4.74765C5.71312 4.83462 5.64369 4.93799 5.59627 5.05183C5.54884 5.16568 5.52434 5.28776 5.52417 5.41109C5.524 5.53442 5.54817 5.65657 5.59529 5.77054C5.64241 5.88451 5.71155 5.98807 5.79876 6.07528C5.88596 6.16248 5.98952 6.23163 6.10349 6.27874C6.21747 6.32586 6.33962 6.35003 6.46294 6.34986C6.58627 6.3497 6.70836 6.3252 6.8222 6.27777C6.93604 6.23034 7.03941 6.16091 7.12638 6.07347Z" fill="#00978E"/>
<path d="M18.125 9.0625C17.8764 9.0625 17.6379 9.16127 17.4621 9.33709C17.2863 9.5129 17.1875 9.75136 17.1875 10V17.1875H2.8125V10C2.8125 9.75136 2.71373 9.5129 2.53791 9.33709C2.3621 9.16127 2.12364 9.0625 1.875 9.0625C1.62636 9.0625 1.3879 9.16127 1.21209 9.33709C1.03627 9.5129 0.9375 9.75136 0.9375 10V17.5C0.9375 17.9144 1.10212 18.3118 1.39515 18.6049C1.68817 18.8979 2.0856 19.0625 2.5 19.0625H17.5C17.9144 19.0625 18.3118 18.8979 18.6049 18.6049C18.8979 18.3118 19.0625 17.9144 19.0625 17.5V10C19.0625 9.75136 18.9637 9.5129 18.7879 9.33709C18.6121 9.16127 18.3736 9.0625 18.125 9.0625Z" fill="#00978E"/>
</svg>
