<svg width="30" height="30" viewBox="0 0 30 30" fill="none" xmlns="http://www.w3.org/2000/svg">
<path d="M0 0V30H30V0H0Z" fill="#0057A8"/>
<g clip-path="url(#clip0_header_social)">
<path d="M24.8941 20.739C24.874 20.6883 24.8515 20.6388 24.8267 20.5908C24.2806 19.6102 23.6105 18.7268 22.838 17.969L22.8176 17.9449L22.8074 17.9333L22.7972 17.9217H22.7871C22.343 17.4391 22.062 17.1147 21.9439 16.9487C21.8423 16.8205 21.7747 16.6622 21.7489 16.492C21.7231 16.3219 21.7402 16.1469 21.7982 15.9873C22.0627 15.433 22.3779 14.912 22.7385 14.4331C23.0232 14.0166 23.2488 13.6803 23.4155 13.4244C24.617 11.6052 25.1375 10.4426 24.9772 9.93676L24.9152 9.81803C24.8278 9.71673 24.7151 9.64848 24.5924 9.62253C24.3743 9.56076 24.1473 9.55073 23.9256 9.59308L20.9268 9.61629C20.8581 9.59689 20.7861 9.59904 20.7184 9.62253L20.5829 9.65824L20.5304 9.6877L20.4888 9.7234C20.4447 9.757 20.406 9.79897 20.3744 9.84749C20.3309 9.91059 20.2958 9.98068 20.2702 10.0555C19.959 10.9762 19.5865 11.8685 19.156 12.7246C18.8989 13.2149 18.6639 13.6402 18.4507 14.0002C18.2896 14.2815 18.1086 14.5472 17.9093 14.7947C17.786 14.9414 17.6538 15.0781 17.5136 15.2035C17.3955 15.3065 17.3054 15.3499 17.2433 15.3339L17.0662 15.2865C16.9674 15.2139 16.8865 15.1137 16.8311 14.9955C16.7662 14.8513 16.7255 14.6944 16.7112 14.5331C16.6903 14.3469 16.678 14.1868 16.6744 14.0529C16.6707 13.919 16.6725 13.7291 16.6799 13.4833C16.6872 13.2382 16.6906 13.0721 16.69 12.9852C16.69 12.6847 16.6953 12.3574 16.7057 12.0033C16.7162 11.6492 16.7248 11.3704 16.7316 11.1669C16.7389 10.961 16.7423 10.7434 16.7418 10.5143C16.7449 10.3348 16.7326 10.1554 16.7049 9.97871C16.6808 9.84814 16.6443 9.72093 16.596 9.59932C16.5515 9.4823 16.4773 9.38313 16.3829 9.31456C16.2747 9.24082 16.1571 9.1869 16.0342 9.15477C15.5715 9.04889 15.1004 8.99714 14.6285 9.00034C13.7906 8.91997 12.9469 9.01651 12.1398 9.2851C11.9914 9.37633 11.8587 9.49729 11.748 9.64218C11.6232 9.81595 11.6057 9.91087 11.6955 9.92694C11.8655 9.94028 12.0314 9.99225 12.1835 10.0798C12.3356 10.1673 12.4707 10.2887 12.581 10.4367L12.6437 10.5795C12.7122 10.7536 12.7611 10.9368 12.7894 11.1249C12.8408 11.4102 12.8722 11.6998 12.8834 11.9908C12.9183 12.4842 12.9183 12.9801 12.8834 13.4735C12.8484 13.8848 12.8155 14.2049 12.7847 14.434C12.763 14.627 12.7157 14.8151 12.6444 14.992C12.6075 15.0818 12.5656 15.1688 12.5191 15.2526C12.5056 15.2761 12.488 15.2962 12.4674 15.3115C12.3776 15.351 12.2822 15.3713 12.186 15.3714C12.0509 15.3602 11.922 15.3019 11.817 15.2044C11.6577 15.072 11.5128 14.9186 11.3852 14.7474C11.1976 14.4927 11.0286 14.221 10.8798 13.935C10.6923 13.5869 10.498 13.1757 10.2968 12.7014L10.1299 12.3568C10.0255 12.1354 9.88312 11.8132 9.70289 11.39C9.52267 10.9669 9.36543 10.5578 9.23118 10.1626C9.18435 10.0097 9.09701 9.87714 8.98122 9.78321L8.92872 9.74751C8.87726 9.70561 8.82113 9.67169 8.76182 9.64664C8.68469 9.61083 8.60425 9.58508 8.52204 9.56987L5.66904 9.59308C5.56164 9.57788 5.45262 9.59028 5.34998 9.62936C5.24733 9.66845 5.15367 9.73322 5.07587 9.81892L5.03434 9.89034C5.00982 9.94963 4.99903 10.0151 5.003 10.0805C5.00731 10.1906 5.02853 10.2991 5.06569 10.4009C5.4836 11.5162 5.9365 12.5919 6.42441 13.628C6.91232 14.6641 7.33754 15.4972 7.70007 16.1274C8.06104 16.7601 8.42906 17.3572 8.80413 17.919C9.1792 18.4808 9.42734 18.8406 9.54853 18.9983C9.67024 19.1566 9.76584 19.2756 9.83532 19.3554L10.0955 19.6401C10.3245 19.8885 10.57 20.1165 10.8297 20.3221C11.1754 20.6036 11.5334 20.8649 11.9024 21.105C12.3338 21.3787 12.7941 21.5886 13.2721 21.7299C13.7661 21.8888 14.2795 21.9551 14.7922 21.9262H15.9856C16.1904 21.9195 16.3858 21.8266 16.5341 21.6656L16.5756 21.6058C16.6114 21.5375 16.6378 21.4635 16.654 21.3862C16.6793 21.28 16.6917 21.1704 16.6908 21.0604C16.6814 20.7519 16.704 20.4433 16.7582 20.1409C16.7926 19.9272 16.8522 19.7197 16.9353 19.5241C16.9949 19.3958 17.0704 19.278 17.1594 19.1741C17.2117 19.1083 17.2712 19.0503 17.3365 19.0018C17.3634 18.9861 17.3911 18.9724 17.4196 18.9608C17.5234 18.9354 17.6311 18.9388 17.7335 18.9708C17.8359 19.0028 17.9301 19.0624 18.008 19.1447C18.2446 19.3424 18.4582 19.5737 18.6435 19.8329C18.8415 20.1061 19.0792 20.4126 19.3566 20.7524C19.5764 21.0329 19.8205 21.2874 20.0853 21.5121L20.2937 21.654C20.4647 21.7645 20.6464 21.852 20.8352 21.9146C21.0219 21.9904 21.2226 22.0107 21.4181 21.9736L24.0823 21.9262C24.295 21.9394 24.5069 21.8883 24.6966 21.7781C24.8171 21.7119 24.9104 21.5951 24.9568 21.4522C24.9848 21.3199 24.9867 21.182 24.9623 21.0487C24.9493 20.943 24.9265 20.8392 24.8941 20.739V20.739Z" fill="white"/>
</g>
<defs>
<clipPath id="clip0_header_social">
<rect width="20" height="13" fill="white" transform="translate(5 9)"/>
</clipPath>
</defs>
</svg>
