<svg width="30" height="30" viewBox="0 0 30 30" fill="none" xmlns="http://www.w3.org/2000/svg">
<rect width="30" height="30" rx="5" fill="#0057A8"/>
<g clip-path="url(#clip0)">
<path d="M22.4213 19.0291C22.4062 18.9901 22.3894 18.952 22.3708 18.9151C21.9612 18.1608 21.4586 17.4813 20.8793 16.8984L20.864 16.8798L20.8563 16.8709L20.8487 16.862H20.8411C20.508 16.4907 20.2973 16.2412 20.2087 16.1135C20.1325 16.0149 20.0818 15.8931 20.0624 15.7622C20.0431 15.6313 20.0559 15.4967 20.0994 15.374C20.2978 14.9476 20.5342 14.5468 20.8046 14.1785C21.0181 13.858 21.1874 13.5994 21.3124 13.4025C22.2135 12.0031 22.6039 11.1088 22.4836 10.7197L22.4372 10.6284C22.3716 10.5504 22.2871 10.4979 22.1951 10.478C22.0315 10.4305 21.8612 10.4228 21.695 10.4553L19.4459 10.4732C19.3944 10.4583 19.3404 10.4599 19.2896 10.478L19.1879 10.5055L19.1485 10.5281L19.1174 10.5556C19.0843 10.5814 19.0553 10.6137 19.0316 10.651C18.9989 10.6996 18.9726 10.7535 18.9534 10.811C18.72 11.5193 18.4406 12.2057 18.1177 12.8642C17.925 13.2414 17.7487 13.5685 17.5888 13.8454C17.468 14.0618 17.3322 14.2662 17.1827 14.4566C17.0903 14.5694 16.9911 14.6745 16.886 14.7711C16.7974 14.8503 16.7298 14.8837 16.6832 14.8713L16.5504 14.8349C16.4763 14.779 16.4156 14.702 16.3741 14.6111C16.3254 14.5001 16.2949 14.3794 16.2842 14.2554C16.2685 14.1121 16.2593 13.9889 16.2565 13.8859C16.2538 13.7829 16.2552 13.6369 16.2607 13.4478C16.2661 13.2592 16.2687 13.1315 16.2683 13.0647C16.2683 12.8335 16.2722 12.5817 16.2801 12.3093C16.2879 12.037 16.2944 11.8225 16.2994 11.6659C16.3049 11.5075 16.3075 11.3402 16.3071 11.164C16.3094 11.0259 16.3002 10.8879 16.2795 10.752C16.2613 10.6515 16.234 10.5537 16.1978 10.4601C16.1644 10.3701 16.1087 10.2938 16.0379 10.2411C15.9568 10.1844 15.8686 10.1429 15.7764 10.1182C15.4294 10.0367 15.0761 9.99692 14.7221 9.99938C14.0937 9.93756 13.4609 10.0118 12.8556 10.2184C12.7443 10.2886 12.6448 10.3817 12.5618 10.4931C12.4681 10.6268 12.455 10.6998 12.5224 10.7121C12.6499 10.7224 12.7743 10.7624 12.8884 10.8297C13.0024 10.8971 13.1038 10.9904 13.1865 11.1042L13.2335 11.2141C13.2849 11.348 13.3216 11.489 13.3428 11.6337C13.3814 11.8532 13.4049 12.0759 13.4133 12.2997C13.4395 12.6793 13.4395 13.0607 13.4133 13.4403C13.3871 13.7566 13.3624 14.0029 13.3393 14.1791C13.323 14.3276 13.2875 14.4723 13.2341 14.6083C13.2064 14.6774 13.175 14.7444 13.1401 14.8088C13.1299 14.8269 13.1167 14.8423 13.1013 14.8541C13.034 14.8845 12.9624 14.9001 12.8903 14.9002C12.7889 14.8916 12.6923 14.8467 12.6135 14.7717C12.4941 14.6699 12.3854 14.5519 12.2897 14.4202C12.149 14.2243 12.0222 14.0153 11.9106 13.7953C11.77 13.5275 11.6242 13.2112 11.4734 12.8463L11.3482 12.5813C11.2699 12.411 11.1631 12.1631 11.0279 11.8376C10.8928 11.5121 10.7748 11.1974 10.6741 10.8934C10.639 10.7758 10.5735 10.6738 10.4867 10.6016L10.4473 10.5741C10.4087 10.5419 10.3666 10.5158 10.3221 10.4965C10.2643 10.469 10.204 10.4492 10.1423 10.4375L8.00254 10.4553C7.92199 10.4436 7.84023 10.4532 7.76324 10.4832C7.68626 10.5133 7.61602 10.5631 7.55767 10.6291L7.52652 10.684C7.50813 10.7296 7.50003 10.78 7.50301 10.8303C7.50625 10.915 7.52216 10.9984 7.55003 11.0768C7.86346 11.9346 8.20314 12.7621 8.56907 13.5591C8.935 14.3561 9.25392 14.997 9.52582 15.4818C9.79654 15.9684 10.0726 16.4278 10.3539 16.8599C10.6352 17.2921 10.8213 17.5688 10.9122 17.6901C11.0034 17.8119 11.0751 17.9034 11.1273 17.9648L11.3224 18.1838C11.4942 18.3749 11.6782 18.5503 11.873 18.7084C12.1323 18.925 12.4008 19.126 12.6776 19.3106C13.0011 19.5212 13.3463 19.6827 13.7048 19.7913C14.0753 19.9135 14.4604 19.9646 14.8449 19.9424H15.74C15.8936 19.9372 16.0401 19.8658 16.1514 19.7419L16.1825 19.6959C16.2093 19.6434 16.2291 19.5864 16.2413 19.5269C16.2602 19.4453 16.2695 19.3609 16.2689 19.2763C16.2618 19.039 16.2787 18.8016 16.3194 18.569C16.3452 18.4046 16.3899 18.245 16.4522 18.0946C16.497 17.9959 16.5536 17.9053 16.6203 17.8254C16.6595 17.7747 16.7042 17.7302 16.7531 17.6928C16.7733 17.6807 16.7941 17.6702 16.8154 17.6613C16.8933 17.6417 16.9741 17.6443 17.0509 17.669C17.1277 17.6936 17.1983 17.7395 17.2568 17.8027C17.4342 17.9548 17.5944 18.1327 17.7334 18.3321C17.8819 18.5423 18.0601 18.778 18.2682 19.0394C18.4331 19.2552 18.6162 19.451 18.8147 19.6238L18.9711 19.733C19.0993 19.818 19.2356 19.8853 19.3771 19.9335C19.5172 19.9917 19.6677 20.0073 19.8144 19.9788L21.8125 19.9424C21.972 19.9525 22.1309 19.9132 22.2732 19.8284C22.3636 19.7775 22.4335 19.6877 22.4683 19.5778C22.4894 19.4759 22.4908 19.3699 22.4725 19.2674C22.4628 19.186 22.4456 19.1062 22.4213 19.0291Z" fill="white"/>
</g>
<defs>
<clipPath id="clip0">
<rect width="15" height="10" fill="white" transform="translate(7.5 10)"/>
</clipPath>
</defs>
</svg>
