<svg width="22" height="22" viewBox="0 0 22 22" fill="none" xmlns="http://www.w3.org/2000/svg">
<path d="M18.3016 3.82512C16.6221 1.39438 13.9603 0 10.9993 0C8.03828 0 5.3765 1.39438 3.69698 3.82512C2.02571 6.24357 1.63981 9.3054 2.66264 12.0105C2.93622 12.7492 3.3711 13.4669 3.95213 14.1395L10.4137 21.7292C10.5598 21.901 10.7739 22 10.9993 22C11.2247 22 11.4388 21.901 11.5849 21.7292L18.0447 14.1415C18.6283 13.4651 19.0626 12.7482 19.3339 12.0154C20.3588 9.3054 19.9729 6.24357 18.3016 3.82512ZM17.8934 11.4767C17.6842 12.042 17.3427 12.601 16.8788 13.1387C16.8775 13.14 16.8762 13.1413 16.8752 13.1428L10.9993 20.0444L5.1198 13.1385C4.65621 12.6013 4.31466 12.0423 4.10338 11.4715C3.2575 9.23437 3.57851 6.70282 4.96237 4.70001C6.35056 2.69079 8.55107 1.53845 10.9993 1.53845C13.4475 1.53845 15.6477 2.69075 17.036 4.70001C18.4201 6.70282 18.7414 9.23437 17.8934 11.4767Z" fill="#00A44B"/>
<path d="M11.0001 4.56384C8.62495 4.56384 6.69238 6.49615 6.69238 8.87155C6.69238 11.2469 8.62469 13.1792 11.0001 13.1792C13.3755 13.1792 15.3078 11.2469 15.3078 8.87155C15.3078 6.4964 13.3752 4.56384 11.0001 4.56384ZM11.0001 11.6408C9.47315 11.6408 8.23084 10.3984 8.23084 8.8715C8.23084 7.34457 9.47315 6.10225 11.0001 6.10225C12.527 6.10225 13.7693 7.34457 13.7693 8.8715C13.7693 10.3984 12.527 11.6408 11.0001 11.6408Z" fill="#00A44B"/>
</svg>
