<svg class="icon-prev-catalog" width="7" height="9" viewBox="0 0 7 9" fill="none" xmlns="http://www.w3.org/2000/svg">
<path d="M5.71391 8.85614L6.01076 8.56134C6.10347 8.46856 6.15454 8.34512 6.15454 8.21319C6.15454 8.08133 6.10347 7.95775 6.01076 7.86497L2.64766 4.50201L6.01449 1.13518C6.1072 1.04255 6.1582 0.918959 6.1582 0.787104C6.1582 0.655249 6.1072 0.53159 6.01449 0.438882L5.71947 0.144001C5.52761 -0.0480004 5.2151 -0.0480004 5.02324 0.144001L1.00021 4.15262C0.907575 4.24525 0.842306 4.36869 0.842306 4.50172V4.50326C0.842306 4.63518 0.907649 4.75862 1.00021 4.85126L5.01234 8.85614C5.10498 8.94893 5.23215 8.99985 5.364 9C5.49593 9 5.62135 8.94893 5.71391 8.85614Z" fill="#006D25"/>
</svg>
