<svg width="24" height="22" viewBox="0 0 24 22" fill="none" xmlns="http://www.w3.org/2000/svg">
<path d="M19.0027 16.0054C17.3526 16.0054 16.0102 17.35 16.0102 19.0027C16.0102 20.6554 17.3526 22 19.0027 22C20.6528 22 21.9952 20.6554 21.9952 19.0027C21.9952 17.35 20.6528 16.0054 19.0027 16.0054ZM19.0027 20.2016C18.3426 20.2016 17.8057 19.6639 17.8057 19.0027C17.8057 18.3415 18.3426 17.8038 19.0027 17.8038C19.6628 17.8038 20.1997 18.3415 20.1997 19.0027C20.1997 19.6639 19.6628 20.2016 19.0027 20.2016Z" fill="white"/>
<path d="M23.8092 4.42126C23.6393 4.20337 23.3786 4.07627 23.1024 4.07627H5.5416L4.73361 0.690256C4.63695 0.285643 4.27573 4.10638e-09 3.86037 4.10638e-09H0.897756C0.401909 -4.69457e-05 0 0.4025 0 0.899135C0 1.39577 0.401909 1.79832 0.897756 1.79832H3.15175L6.06946 14.0261C6.16612 14.431 6.52734 14.7163 6.9427 14.7163H20.9179C21.3306 14.7163 21.6902 14.4346 21.7893 14.0335L23.9739 5.19152C24.0399 4.92301 23.9792 4.63915 23.8092 4.42126ZM20.2155 12.918H7.65131L5.97069 5.87464H21.9553L20.2155 12.918Z" fill="white"/>
<path d="M8.13967 16.0054C6.48957 16.0054 5.14715 17.35 5.14715 19.0027C5.14715 20.6554 6.48961 22 8.13967 22C9.78973 22 11.1322 20.6554 11.1322 19.0027C11.1322 17.35 9.78973 16.0054 8.13967 16.0054ZM8.13967 20.2016C7.47953 20.2016 6.94266 19.6639 6.94266 19.0027C6.94266 18.3415 7.47953 17.8038 8.13967 17.8038C8.79982 17.8038 9.33668 18.3415 9.33668 19.0027C9.33668 19.6639 8.79982 20.2016 8.13967 20.2016Z" fill="white"/>
</svg>
