<svg width="12" height="10" viewBox="0 0 12 10" fill="none" xmlns="http://www.w3.org/2000/svg">
<path d="M0.138462 5.46152C0.0461539 5.36921 0 5.23075 0 5.13844C0 5.04614 0.0461539 4.90767 0.138462 4.81537L0.784615 4.16921C0.969231 3.9846 1.24615 3.9846 1.43077 4.16921L1.47692 4.21537L4.01538 6.93844C4.10769 7.03075 4.24615 7.03075 4.33846 6.93844L10.5231 0.523059H10.5692C10.7538 0.338444 11.0308 0.338444 11.2154 0.523059L11.8615 1.16921C12.0462 1.35383 12.0462 1.63075 11.8615 1.81537L4.47692 9.47691C4.38462 9.56921 4.29231 9.61537 4.15385 9.61537C4.01538 9.61537 3.92308 9.56921 3.83077 9.47691L0.230769 5.59998L0.138462 5.46152Z" fill="white"/>
</svg>
