<svg width="15" height="14" viewBox="0 0 15 14" fill="none" xmlns="http://www.w3.org/2000/svg">
<path d="M7.5 12.7892L7.94465 12.3381L7.96291 12.3196L7.98228 12.3022C9.94637 10.5395 11.5031 9.12203 12.5771 7.79644C13.641 6.48324 14.15 5.35627 14.15 4.18478C14.15 2.28396 12.7191 0.85 10.875 0.85C9.85866 0.85 8.82048 1.34169 8.15275 2.14226L7.5 2.92488L6.84725 2.14226C6.17952 1.34169 5.14134 0.85 4.125 0.85C2.28093 0.85 0.85 2.28396 0.85 4.18478C0.85 5.35627 1.35902 6.48324 2.42295 7.79644C3.49691 9.12203 5.05363 10.5395 7.01772 12.3022L7.03709 12.3196L7.05535 12.3381L7.5 12.7892Z" stroke="#323232" stroke-width="1.7"/>
</svg>
