<svg width="434" height="333" viewBox="0 0 434 333" fill="none" xmlns="http://www.w3.org/2000/svg">
<g clip-path="url(#clip0_823_5128)">
<rect x="95" y="43" width="60" height="35" fill="#FDF1E1"/>
<path d="M62.1702 413.097V392.038M62.1702 0H154.915M62.1702 0L-31 74.451V114.016H154.915M62.1702 0V206.548M154.915 0L235.322 26.4995M154.915 0V42.118M154.915 413.097V330M154.915 114.016L235.322 26.4995M154.915 114.016H311.475M154.915 114.016L62.1702 206.548M154.915 114.016V299.293M154.915 114.016V74.451M235.322 26.4995L380.821 74.451V114.016H354.869M235.322 26.4995L311.475 114.016M311.475 114.016H354.869M62.1702 206.548L154.915 299.293M62.1702 206.548V330M154.915 299.293L62.1702 392.038M154.915 299.293V330M62.1702 392.038V532.219M62.1702 392.038L154.915 484.783M62.1702 392.038V330M154.915 42.118H96.6304V74.451H154.915M154.915 42.118V74.451M354.869 114.016V190.595M354.869 190.595L332.321 200.805V219.099M354.869 190.595L380.821 200.805V219.099M154.915 532.219V484.783M154.915 484.783L76.6349 563.063M154.915 484.783V330M62.1702 330H154.915" stroke="black" stroke-width="5.10522" stroke-linecap="round"/>
<path d="M369.732 189.122L369.74 189.78L370.337 189.502L406.092 172.844L381.099 203.359L380.681 203.869L381.317 204.04L419.415 214.261L380.654 221.572L380.006 221.695L380.384 222.234L402.998 254.553L368.606 235.238L368.031 234.916L367.974 235.572L364.523 274.866L350.592 237.963L350.36 237.347L349.893 237.812L321.993 265.695L335.042 228.471L335.26 227.849L334.603 227.907L295.308 231.332L329.231 211.204L329.797 210.868L329.258 210.49L296.954 187.855L335.878 194.242L336.528 194.349L336.358 193.712L326.161 155.608L351.873 185.521L352.303 186.02L352.581 185.423L369.263 149.68L369.732 189.122Z" fill="black" stroke="black" stroke-width="0.850869"/>
</g>
<defs>
<clipPath id="clip0_823_5128">
<rect width="465" height="333" fill="white" transform="translate(-31)"/>
</clipPath>
</defs>
</svg>
