<svg width="115" height="118" viewBox="0 0 115 118" fill="none" xmlns="http://www.w3.org/2000/svg">
<path d="M36.38 51.214L37.135 51.0418L36.6674 50.4246L15.5256 22.5206L46.6768 38.4958L47.3659 38.8491L47.4044 38.0757L49.1451 3.11037L62.7398 35.3717L63.0405 36.0853L63.5671 35.5175L87.3759 9.85149L77.0528 43.3035L76.8245 44.0435L77.5928 43.9471L112.329 39.5897L82.9188 58.58L82.2682 59L82.9188 59.42L112.329 78.4103L77.5928 74.0529L76.8245 73.9565L77.0528 74.6965L87.3759 108.149L63.5671 82.4825L63.0405 81.9148L62.7398 82.6283L49.1451 114.89L47.4044 79.9243L47.3659 79.1509L46.6768 79.5042L15.5256 95.4794L36.6674 67.5754L37.135 66.9582L36.38 66.786L2.24818 59L36.38 51.214Z" fill="white" stroke="black"/>
</svg>
