<svg width="18" height="18" viewBox="0 0 18 18" fill="none" xmlns="http://www.w3.org/2000/svg">
<path d="M0.466297 7.12015C0.466309 7.12015 0.466263 7.12015 0.466297 7.12015ZM0.466297 7.12015L0.466238 7.12015L0.462948 7.08185L0.462912 7.08144L0.423442 6.62199L0.466297 7.12015ZM6.74572 6.31305L9.00026 0.97785L11.2548 6.31394L11.3721 6.5917L11.6726 6.61751L17.4449 7.1134L13.0668 10.9065L12.8389 11.1039L12.9072 11.3976L14.2191 17.0399L9.25894 14.0486L9.00072 13.8928L8.7425 14.0486L3.78235 17.0399L5.09422 11.3976L5.1625 11.1039L4.93462 10.9065L0.55559 7.11248L6.32795 6.61658L6.62836 6.59078L6.74572 6.31305Z" stroke="#7A8086"/>
</svg>
