<svg width="31" height="32" viewBox="0 0 31 32" fill="none" xmlns="http://www.w3.org/2000/svg">
<path id="Star" d="M19.829 11.3505L19.7137 11.0687L15.7705 1.43472L16.2332 1.24533L15.7704 1.43436C15.666 1.17878 15.3349 1.17878 15.2305 1.43436L15.2304 1.43475L11.2872 11.0671L11.1718 11.3488L10.8686 11.3757L0.77356 12.2709C0.650274 12.2819 0.556745 12.3615 0.516964 12.4879C0.47689 12.6152 0.506241 12.7473 0.608817 12.8389L0.60906 12.8392L8.26796 19.6889L8.48699 19.8848L8.42242 20.1715L6.12777 30.359L6.12777 30.3591C6.0945 30.5067 6.15228 30.6278 6.24694 30.6988C6.3398 30.7685 6.4525 30.7809 6.56174 30.7131L15.237 25.3124L15.5012 25.1479L15.7655 25.3124L24.4412 30.7134L24.4421 30.7139C24.5502 30.7815 24.6622 30.7696 24.7551 30.7C24.8498 30.629 24.9081 30.5074 24.8747 30.3588L22.5801 20.1715L22.5155 19.8848L22.7345 19.6889L30.3918 12.8408L30.3921 12.8406C30.4943 12.7493 30.5237 12.6174 30.4834 12.4898C30.4434 12.3629 30.3496 12.2836 30.2275 12.2726L19.829 11.3505ZM19.829 11.3505L20.1323 11.3774L30.2272 12.2726L19.829 11.3505Z" stroke="#7A8086"/>
</svg>
