<svg width="145" height="35" viewBox="0 0 145 35" fill="none" xmlns="http://www.w3.org/2000/svg">
<path fill-rule="evenodd" clip-rule="evenodd" d="M11.058 0.183499C11.0488 0.284443 11.058 1.54042 11.0784 2.97461C11.1497 7.96725 11.0566 11.9544 10.7347 17.6932C10.429 23.1449 9.9279 25.8738 8.88694 27.7566C8.16313 29.0658 7.30109 29.7831 6.00524 30.1545C5.6726 30.2498 5.55013 30.2635 4.89911 30.2781L4.16702 30.2946L2.23674 29.0675C1.17509 28.3926 0.237501 27.7954 0.153229 27.7406L0 27.6407L0.08722 27.7425C0.135187 27.7984 1.95501 29.4543 4.13129 31.4221L8.08814 35H9.82889H11.5696L11.2793 34.8165C7.67686 32.539 5.40839 31.0736 5.44914 31.0505C5.47664 31.0349 8.98943 31.0219 13.2552 31.0216L21.0113 31.021V30.654V30.287H19.7571H18.503L18.5053 15.7906L18.5077 1.29415L19.4898 0.676049L20.4718 0.057947L19.0804 0.0293985C18.315 0.0136755 17.1938 0.00498344 16.5887 0.0100828L15.4886 0.0193157L15.4775 15.1531L15.4664 30.287H11.59H7.71356L7.94855 30.1248C9.42298 29.107 10.4016 27.1076 10.9512 23.9901C11.335 21.8132 11.4902 19.7854 11.8134 12.729C11.9146 10.5198 11.9504 7.52971 11.9203 3.81485L11.8893 0H11.4821H11.0748L11.058 0.183499Z" fill="black"/>
<path fill-rule="evenodd" clip-rule="evenodd" d="M40.7685 0.134244C40.7685 0.572478 41.0284 1.92442 41.2962 2.87904C41.998 5.38146 43.2346 7.49139 44.8822 8.99763C45.9598 9.98277 47.1142 10.6453 48.368 10.9981C48.6606 11.0804 48.8657 11.1585 48.8657 11.1877C48.8657 11.2171 48.7629 11.2552 48.6126 11.2816C46.9184 11.5784 45.3826 12.32 43.9564 13.5302C41.2577 15.8202 39.4011 19.5303 38.8568 23.7207C38.6411 25.3818 38.6415 27.2358 38.858 28.9552C38.9248 29.4855 39.1472 30.6967 39.2198 30.9254L39.2566 31.0413L40.6786 31.0515L42.1004 31.0617L42.0729 30.9163C41.8388 29.6794 41.6938 27.9326 41.6931 26.3422C41.6918 23.1662 42.176 20.3292 43.1656 17.7135C44.4437 14.3359 46.339 12.1169 48.5778 11.3772L48.8655 11.2821L48.8766 21.181L48.8877 31.0799L50.3948 31.0901L51.9019 31.1002L51.913 21.2091L51.9241 11.318L52.2874 11.4723C53.7466 12.0917 55.017 13.3507 56.1294 15.2797C57.9208 18.3862 58.8706 22.8679 58.6793 27.3119C58.6212 28.6615 58.4535 30.2636 58.2996 30.939L58.2717 31.0617L59.6965 31.0515L61.1214 31.0413L61.2388 30.5285C61.9555 27.3979 61.8299 23.7491 60.8979 20.6301C59.439 15.7484 56.1756 12.2066 52.3054 11.3047L51.9241 11.2158L51.913 5.60792L51.9018 0L50.3947 0.01016L48.8877 0.0203201L48.8765 5.53352L48.8654 11.0467L48.6565 10.9683C48.5416 10.9251 48.2496 10.7744 48.0075 10.6333C45.5507 9.20106 43.6711 5.3348 43.2001 0.744658L43.1238 0.00100442H41.9462H40.7685V0.134244ZM57.8869 1.14291C57.8869 2.04642 57.8984 2.27867 57.9419 2.25534C58.0516 2.19658 61.387 0.00100445 61.387 0.00100445C61.387 0.00100445 61.1862 0.00100442 59.6786 0.00100442H57.8869V1.14291Z" fill="black"/>
<path fill-rule="evenodd" clip-rule="evenodd" d="M89.7723 0.0352914C89.7239 0.0540276 89.4399 0.159839 89.1412 0.27044C87.0575 1.04206 85.0171 2.55359 83.4372 4.49586C80.4004 8.22931 79.1853 13.5499 80.2237 18.5667C80.7244 20.9853 81.7739 23.2938 83.2408 25.203C84.7086 27.1133 86.5641 28.5845 88.6281 29.4744C89.2662 29.7495 90.0353 30.0224 89.8397 29.9043C88.7301 29.2345 88.0059 28.6498 87.2382 27.804C86.5093 27.0009 85.9745 26.2538 85.3904 25.2223C84.1049 22.9522 83.3188 20.3688 82.9924 17.3415C82.8969 16.4555 82.8616 14.4492 82.9247 13.4977C83.2261 8.9555 84.6948 5.04643 87.1556 2.23662C87.5223 1.81786 88.6264 0.833415 89.0334 0.562262C89.1836 0.462168 89.4496 0.293812 89.6243 0.188117C89.9247 0.00651104 89.9713 -0.0417395 89.7723 0.0352914Z" fill="black"/>
<path fill-rule="evenodd" clip-rule="evenodd" d="M97.4315 0.235458C97.9839 0.56622 98.3603 0.843631 98.8934 1.31293C100.947 3.1213 102.571 5.99261 103.412 9.30216C103.927 11.3309 104.121 13.1026 104.084 15.4247C104.054 17.2643 103.911 18.5099 103.543 20.1269C102.549 24.4971 100.202 28.155 97.3508 29.7796C97.1879 29.8725 97.0547 29.9548 97.0547 29.9626C97.0547 29.9704 97.1587 29.9406 97.2857 29.8963C97.4128 29.852 97.6096 29.7834 97.7232 29.7438C97.8368 29.7042 98.15 29.5748 98.4192 29.4563C102.499 27.6602 105.582 23.7345 106.689 18.9268C107.165 16.8585 107.259 14.5671 106.955 12.4586C106.656 10.3874 105.97 8.35546 104.986 6.62528C104.541 5.84264 104.338 5.53274 103.805 4.82892C102.368 2.92818 100.48 1.41201 98.417 0.501396C98.0661 0.346485 97.136 0 97.0711 0C97.053 0 97.2152 0.105966 97.4315 0.235458Z" fill="black"/>
<path fill-rule="evenodd" clip-rule="evenodd" d="M128.642 0.396242C127.194 2.36231 126.296 4.73118 125.933 7.54061C125.874 7.99155 125.856 8.46196 125.855 9.52263C125.853 10.9412 125.882 11.355 126.055 12.4007C126.778 16.7665 129.163 20.352 132.344 21.856C133.032 22.1813 134.102 22.4825 134.764 22.5373L135.05 22.561L134.735 22.4841C131.883 21.7885 129.533 18.1819 128.718 13.2506C128.499 11.9256 128.454 11.3022 128.452 9.59989C128.45 8.59092 128.47 7.81269 128.507 7.45585C128.784 4.76236 129.4 2.53943 130.396 0.637417C130.551 0.339956 130.689 0.0748289 130.702 0.0482892C130.72 0.010585 130.529 7.72615e-05 129.829 0.000270418L128.934 0.000540841L128.642 0.396242ZM140.001 15.5298V31.0596H141.497H142.993L143.005 16.1796L143.016 1.29956L143.992 0.678019C144.529 0.336209 144.997 3.68417e-08 144.997 3.68417e-08C144.997 3.68417e-08 143.9 0 142.517 0H140.001V15.5298ZM129.378 31.2522C126.21 33.2685 123.597 34.9367 123.572 34.9592C123.539 34.9879 124.038 35 125.25 35H126.974L127.102 34.8938C127.172 34.8353 128.829 33.336 130.784 31.5618C132.739 29.7877 134.528 28.1666 134.759 27.9594C134.991 27.7523 135.171 27.5835 135.16 27.5844C135.148 27.5854 132.546 29.2359 129.378 31.2522Z" fill="black"/>
</svg>
