<svg width="116" height="30" viewBox="0 0 116 30" fill="none" xmlns="http://www.w3.org/2000/svg">
<path fill-rule="evenodd" clip-rule="evenodd" d="M8.84642 1.08689C8.83902 1.16799 8.84638 2.17713 8.86275 3.32945C8.91975 7.34085 8.84525 10.5444 8.58777 15.1553C8.34316 19.5356 7.94232 21.7281 7.10955 23.2409C6.5305 24.2928 5.84087 24.8691 4.8042 25.1675C4.53808 25.2441 4.44011 25.2551 3.91929 25.2668L3.33362 25.28L1.78939 24.2941C0.940075 23.7518 0.190001 23.2721 0.122583 23.228L0 23.1478L0.069776 23.2295C0.108149 23.2745 1.56401 24.6049 3.30503 26.186L6.47051 29.0607H7.86311H9.25567L9.02346 28.9132C6.14149 27.0833 4.32671 25.906 4.35931 25.8874C4.38131 25.8749 7.19154 25.8644 10.6042 25.8641L16.809 25.8637V25.5688V25.2739H15.8057H14.8024L14.8043 13.6266L14.8062 1.97926L15.5918 1.48263L16.3775 0.986011L15.2643 0.963074C14.652 0.950441 13.755 0.943457 13.271 0.947554L12.3908 0.954973L12.382 13.1144L12.3731 25.2739H9.27201H6.17085L6.35884 25.1436C7.53838 24.3259 8.32127 22.7194 8.76097 20.2146C9.06796 18.4655 9.19216 16.8363 9.45071 11.1668C9.53168 9.39174 9.56034 6.9893 9.53622 4.00454L9.51147 0.939453H9.18565H8.85983L8.84642 1.08689Z" fill="black"/>
<path fill-rule="evenodd" clip-rule="evenodd" d="M32.6176 1.04731C32.6176 1.39942 32.8255 2.48565 33.0397 3.25266C33.6012 5.26326 34.5905 6.95851 35.9085 8.16872C36.7705 8.96024 37.6941 9.49252 38.6972 9.77603C38.9312 9.84218 39.0953 9.90494 39.0953 9.92837C39.0953 9.95199 39.0131 9.98263 38.8928 10.0038C37.5375 10.2422 36.3088 10.8382 35.1679 11.8105C33.0089 13.6504 31.5236 16.6313 31.0882 19.9981C30.9156 21.3328 30.9159 22.8224 31.0892 24.2039C31.1426 24.63 31.3205 25.6031 31.3786 25.7869L31.408 25.88L32.5456 25.8882L33.6831 25.8964L33.6611 25.7795C33.4738 24.7857 33.3578 23.3822 33.3572 22.1045C33.3562 19.5527 33.7435 17.2732 34.5353 15.1716C35.5577 12.4578 37.0739 10.6749 38.865 10.0806L39.0951 10.0042L39.104 17.9576L39.1129 25.911L40.3186 25.9192L41.5243 25.9274L41.5331 17.9802L41.542 10.0331L41.8327 10.157C43 10.6547 44.0163 11.6663 44.9063 13.2161C46.3394 15.7121 47.0992 19.313 46.9462 22.8836C46.8997 23.9679 46.7656 25.2552 46.6425 25.7978L46.6201 25.8964L47.76 25.8882L48.8998 25.88L48.9937 25.4679C49.5672 22.9526 49.4666 20.021 48.721 17.515C47.5539 13.5927 44.9432 10.747 41.8471 10.0224L41.542 9.95094L41.5331 5.44521L41.5242 0.939453L40.3185 0.947616L39.1129 0.95578L39.104 5.38543L39.095 9.81508L38.9279 9.75204C38.836 9.71737 38.6024 9.59625 38.4088 9.4829C36.4433 8.33217 34.9396 5.22577 34.5628 1.53776L34.5017 0.94026H33.5597H32.6176V1.04731ZM46.3123 1.85774C46.3123 2.58367 46.3215 2.77028 46.3563 2.75153C46.444 2.70432 49.1123 0.94026 49.1123 0.94026C49.1123 0.94026 48.9517 0.94026 47.7456 0.94026H46.3123V1.85774Z" fill="black"/>
<path fill-rule="evenodd" clip-rule="evenodd" d="M71.8161 0.967808C71.7774 0.982862 71.5502 1.06788 71.3112 1.15674C69.6443 1.77671 68.0119 2.99117 66.748 4.55171C64.3185 7.5514 63.3465 11.8263 64.1772 15.8571C64.5778 17.8004 65.4173 19.6551 66.5909 21.1891C67.7651 22.724 69.2495 23.906 70.9008 24.621C71.4112 24.8421 72.0265 25.0614 71.87 24.9665C70.9823 24.4283 70.403 23.9585 69.7888 23.2789C69.2056 22.6337 68.7778 22.0334 68.3105 21.2046C67.2821 19.3807 66.6533 17.3051 66.3921 14.8727C66.3158 14.1608 66.2875 12.5489 66.338 11.7843C66.5792 8.13487 67.7541 4.99408 69.7227 2.7365C70.0161 2.40003 70.8994 1.60907 71.225 1.39121C71.3452 1.31079 71.5579 1.17552 71.6977 1.0906C71.938 0.944685 71.9753 0.905917 71.8161 0.967808Z" fill="black"/>
<path fill-rule="evenodd" clip-rule="evenodd" d="M77.9457 1.12864C78.3877 1.39439 78.6888 1.61728 79.1153 1.99434C80.7585 3.4473 82.0576 5.75429 82.73 8.41339C83.1421 10.0434 83.2977 11.4669 83.2676 13.3326C83.2438 14.8107 83.1291 15.8115 82.8349 17.1107C82.0395 20.6219 80.1623 23.561 77.8812 24.8663C77.7509 24.9409 77.6443 25.007 77.6443 25.0133C77.6443 25.0196 77.7275 24.9956 77.8291 24.96C77.9307 24.9245 78.0883 24.8693 78.1791 24.8375C78.2699 24.8057 78.5205 24.7017 78.7359 24.6065C81.9994 23.1634 84.466 20.0093 85.3516 16.1464C85.7326 14.4846 85.8079 12.6436 85.5644 10.9495C85.3252 9.28537 84.7766 7.65276 83.9895 6.26262C83.6336 5.6338 83.4706 5.38481 83.0448 4.81931C81.8949 3.29214 80.3847 2.07395 78.7342 1.34231C78.4534 1.21784 77.7093 0.939453 77.6574 0.939453C77.643 0.939453 77.7727 1.02459 77.9457 1.12864Z" fill="black"/>
<path fill-rule="evenodd" clip-rule="evenodd" d="M102.912 1.25782C101.754 2.83748 101.035 4.74078 100.744 6.99805C100.698 7.36037 100.683 7.73833 100.682 8.59053C100.681 9.73028 100.704 10.0628 100.842 10.9029C101.421 14.4107 103.329 17.2916 105.874 18.4999C106.424 18.7613 107.28 19.0033 107.81 19.0474L108.039 19.0664L107.786 19.0046C105.505 18.4457 103.624 15.548 102.973 11.5858C102.798 10.5212 102.761 10.0203 102.76 8.65261C102.759 7.84194 102.775 7.21666 102.804 6.92995C103.026 4.76583 103.518 2.97979 104.315 1.45159C104.439 1.2126 104.55 0.999575 104.56 0.978252C104.574 0.947958 104.422 0.939515 103.862 0.93967L103.145 0.939888L102.912 1.25782ZM111.999 13.4171V25.8947H113.196H114.393L114.402 13.9392L114.411 1.9836L115.192 1.48422C115.621 1.20958 115.996 0.939453 115.996 0.939453C115.996 0.939453 115.119 0.939453 114.012 0.939453H111.999V13.4171ZM103.501 26.0495C100.967 27.6695 98.8762 29.0098 98.8557 29.0279C98.8295 29.0509 99.2283 29.0607 100.198 29.0607H101.577L101.68 28.9753C101.736 28.9283 103.061 27.7237 104.625 26.2982C106.189 24.8727 107.62 23.5703 107.806 23.4038C107.991 23.2374 108.135 23.1018 108.126 23.1025C108.117 23.1033 106.035 24.4294 103.501 26.0495Z" fill="black"/>
</svg>
